SplineFontDB: 3.0
FontName: ArefRuqaa-Bold
FullName: Aref Ruqaa Bold
FamilyName: Aref Ruqaa
Weight: Bold
Copyright: Copyright (c) 2015, Khaled Hosny <khaledhosny@eglug.org>
Version: 000.001
ItalicAngle: 0
UnderlinePosition: -142
UnderlineWidth: 150
Ascent: 1638
Descent: 410
sfntRevision: 0x00010000
LayerCount: 2
Layer: 0 1 "Back"  1
Layer: 1 1 "Fore"  0
FSType: 8
OS2_WeightWidthSlopeOnly: 0
OS2_UseTypoMetrics: 0
CreationTime: 1425763181
PfmFamily: 17
TTFWeight: 700
TTFWidth: 5
LineGap: 222
VLineGap: 0
Panose: 2 0 5 0 0 0 0 0 0 0
OS2TypoAscent: 1434
OS2TypoAOffset: 0
OS2TypoDescent: -410
OS2TypoDOffset: 0
OS2TypoLinegap: 205
OS2WinAscent: 4500
OS2WinAOffset: 0
OS2WinDescent: 2000
OS2WinDOffset: 0
HheadAscent: 1716
HheadAOffset: 0
HheadDescent: -418
HheadDOffset: 0
OS2SubXSize: 1434
OS2SubYSize: 1331
OS2SubXOff: 0
OS2SubYOff: 283
OS2SupXSize: 1434
OS2SupYSize: 1331
OS2SupXOff: 0
OS2SupYOff: 977
OS2StrikeYSize: 102
OS2StrikeYPos: 530
OS2Vendor: 'BLQ '
Lookup: 2 9 0 "'isol' Isolated Forms in Arabic lookup 0"  {"'isol' Isolated Forms in Arabic lookup 0 subtable"  } ['isol' ('arab' <'FAR ' 'URD ' 'dflt' > ) ]
Lookup: 2 9 0 "'init' Initial Forms in Arabic lookup 1"  {"'init' Initial Forms in Arabic lookup 1 subtable"  } ['init' ('arab' <'FAR ' 'URD ' 'dflt' > ) ]
Lookup: 2 9 0 "'fina' Terminal Forms in Arabic lookup 2"  {"'fina' Terminal Forms in Arabic lookup 2 subtable"  } ['fina' ('arab' <'FAR ' 'URD ' 'dflt' > ) ]
Lookup: 2 0 0 "'medi' Medial Forms in Arabic lookup 3"  {"'medi' Medial Forms in Arabic lookup 3 subtable"  } ['medi' ('arab' <'FAR ' 'URD ' 'dflt' > ) ]
Lookup: 4 1 0 "'ccmp' Glyph Composition/Decomposition in Arabic lookup 4"  {"'ccmp' Glyph Composition/Decomposition in Arabic lookup 4 subtable"  } ['ccmp' ('arab' <'FAR ' 'URD ' 'dflt' > ) ]
Lookup: 6 9 0 "'calt' Contextual Alternates in Arabic lookup 5"  {"'calt' Contextual Alternates in Arabic lookup 5 subtable"  } ['calt' ('arab' <'FAR ' 'URD ' 'dflt' > ) ]

StartChar: .notdef
Encoding: 65536 -1 0
Width: 1024
GlyphClass: 2
Flags: W
LayerCount: 2
Fore
SplineSet
105 0 m 2,0,1
 95 0 95 0 88 7 c 128,-1,2
 81 14 81 14 81 24 c 2,3,-1
 81 1410 l 2,4,5
 81 1420 81 1420 88 1427 c 128,-1,6
 95 1434 95 1434 105 1434 c 2,7,-1
 901 1434 l 2,8,9
 912 1434 912 1434 919 1427 c 128,-1,10
 926 1420 926 1420 926 1410 c 2,11,-1
 926 24 l 2,12,13
 926 14 926 14 919 7 c 128,-1,14
 912 0 912 0 901 0 c 2,15,-1
 105 0 l 2,0,1
178 97 m 1,16,-1
 829 97 l 1,17,-1
 829 1337 l 1,18,-1
 178 1337 l 1,19,-1
 178 97 l 1,16,-1
299 1133 m 2,20,21
 299 1137 299 1137 301.5 1143.5 c 128,-1,22
 304 1150 304 1150 306 1152 c 0,23,24
 322 1166 322 1166 337.5 1177 c 128,-1,25
 353 1188 353 1188 367 1196 c 0,26,27
 425 1228 425 1228 487 1228 c 0,28,29
 537 1228 537 1228 577.5 1214.5 c 128,-1,30
 618 1201 618 1201 647 1176 c 128,-1,31
 676 1151 676 1151 692 1115 c 128,-1,32
 708 1079 708 1079 708 1035 c 0,33,34
 708 981 708 981 684 930 c 1,35,36
 673 904 673 904 650.5 871.5 c 128,-1,37
 628 839 628 839 596 799 c 1,38,-1
 598 801 l 1,39,-1
 582 779 l 1,40,41
 529 714 529 714 500 670.5 c 128,-1,42
 471 627 471 627 471 591 c 0,43,44
 471 559 471 559 494 469 c 0,45,46
 497 456 497 456 490 447.5 c 128,-1,47
 483 439 483 439 471 439 c 2,48,-1
 440 439 l 2,49,50
 433 439 433 439 425.5 443.5 c 128,-1,51
 418 448 418 448 416 455 c 0,52,53
 382 551 382 551 382 606 c 0,54,55
 382 685 382 685 463 828 c 1,56,57
 539 959 539 959 539 1026 c 0,58,59
 539 1071 539 1071 513.5 1096 c 128,-1,60
 488 1121 488 1121 443 1121 c 0,61,62
 416 1121 416 1121 388 1107 c 1,63,-1
 389 1107 l 1,64,65
 376 1099 376 1099 363 1090.5 c 128,-1,66
 350 1082 350 1082 338 1072 c 0,67,68
 326 1061 326 1061 312.5 1067 c 128,-1,69
 299 1073 299 1073 299 1090 c 2,70,-1
 299 1133 l 2,20,21
422 420 m 2,71,72
 439 437 439 437 459 437 c 0,73,74
 470 437 470 437 480 431.5 c 128,-1,75
 490 426 490 426 501 416 c 1,76,-1
 553 359 l 1,77,78
 567 342 567 342 567 325 c 0,79,80
 567 305 567 305 552 287 c 2,81,-1
 497 226 l 1,82,83
 487 217 487 217 477.5 211.5 c 128,-1,84
 468 206 468 206 459 206 c 0,85,86
 439 206 439 206 421 224 c 1,87,-1
 362 293 l 2,88,89
 350 308 350 308 350 326 c 0,90,91
 350 337 350 337 354 346 c 128,-1,92
 358 355 358 355 366 363 c 2,93,-1
 422 420 l 2,71,72
EndSplineSet
EndChar

StartChar: exclam
Encoding: 33 33 4
Width: 520
GlyphClass: 2
Flags: W
LayerCount: 2
Fore
SplineSet
260 390 m 1,0,-1
 258 389 l 1,1,2
 271 405 271 405 290 405 c 0,3,4
 307 405 307 405 319 392 c 1,5,-1
 318 392 l 1,6,-1
 462 253 l 2,7,8
 477 239 477 239 477 223 c 256,9,10
 477 207 477 207 464 194 c 1,11,-1
 464 195 l 1,12,-1
 283 8 l 2,13,14
 278 4 278 4 272.5 2 c 128,-1,15
 267 0 267 0 258 0 c 0,16,17
 245 0 245 0 232 10 c 1,18,-1
 86 151 l 2,19,20
 72 164 72 164 72 181 c 0,21,22
 72 197 72 197 85 210 c 1,23,-1
 85 209 l 1,24,-1
 260 390 l 1,0,-1
431 945 m 0,25,26
 434 907 434 907 434 870 c 0,27,28
 434 819 434 819 429 772 c 128,-1,29
 424 725 424 725 413 683 c 0,30,31
 385 573 385 573 341 484 c 1,32,-1
 342 485 l 1,33,-1
 332 465 l 2,34,35
 322 443 322 443 310.5 422.5 c 128,-1,36
 299 402 299 402 281 387 c 0,37,38
 275 383 275 383 270 380.5 c 128,-1,39
 265 378 265 378 257 378 c 0,40,41
 228 378 228 378 228 409 c 0,42,43
 228 412 228 412 227.5 414 c 128,-1,44
 227 416 227 416 227 417 c 0,45,46
 227 419 227 419 226.5 422.5 c 128,-1,47
 226 426 226 426 226 427 c 0,48,49
 235 486 235 486 240 541.5 c 128,-1,50
 245 597 245 597 245 649 c 0,51,52
 245 716 245 716 237 780.5 c 128,-1,53
 229 845 229 845 215 903 c 1,54,55
 201 953 201 953 185.5 1003.5 c 128,-1,56
 170 1054 170 1054 152.5 1102.5 c 128,-1,57
 135 1151 135 1151 116.5 1195.5 c 128,-1,58
 98 1240 98 1240 79 1277 c 1,59,-1
 53 1322 l 1,60,61
 31 1356 31 1356 31 1382 c 1,62,63
 47 1423 47 1423 65.5 1466 c 128,-1,64
 84 1509 84 1509 102 1550 c 0,65,66
 115 1579 115 1579 128 1607.5 c 128,-1,67
 141 1636 141 1636 153 1666 c 0,68,69
 160 1681 160 1681 175 1681.5 c 128,-1,70
 190 1682 190 1682 198 1667 c 0,71,72
 236 1587 236 1587 272 1505.5 c 128,-1,73
 308 1424 308 1424 343 1342 c 0,74,75
 378 1258 378 1258 400.5 1159 c 128,-1,76
 423 1060 423 1060 431 945 c 0,25,26
EndSplineSet
EndChar

StartChar: quotedbl
Encoding: 34 34 5
Width: 971
GlyphClass: 2
Flags: W
LayerCount: 2
Fore
SplineSet
168 913 m 2,0,1
 160 913 160 913 152.5 918.5 c 128,-1,2
 145 924 145 924 144 932 c 2,3,-1
 92 1196 l 1,4,-1
 92 1441 l 2,5,6
 92 1451 92 1451 99 1458 c 128,-1,7
 106 1465 106 1465 116 1465 c 2,8,-1
 412 1465 l 2,9,10
 423 1465 423 1465 429.5 1458 c 128,-1,11
 436 1451 436 1451 436 1441 c 2,12,-1
 436 1197 l 1,13,-1
 392 933 l 2,14,15
 390 925 390 925 383 919 c 128,-1,16
 376 913 376 913 368 913 c 2,17,-1
 168 913 l 2,0,1
603 913 m 2,18,19
 595 913 595 913 588 918.5 c 128,-1,20
 581 924 581 924 579 932 c 2,21,-1
 528 1196 l 1,22,-1
 528 1441 l 2,23,24
 528 1451 528 1451 535 1458 c 128,-1,25
 542 1465 542 1465 552 1465 c 2,26,-1
 848 1465 l 2,27,28
 859 1465 859 1465 865.5 1458 c 128,-1,29
 872 1451 872 1451 872 1441 c 2,30,-1
 872 1197 l 1,31,-1
 828 933 l 2,32,33
 826 925 826 925 819 919 c 128,-1,34
 812 913 812 913 804 913 c 2,35,-1
 603 913 l 2,18,19
EndSplineSet
EndChar

StartChar: numbersign
Encoding: 35 35 6
Width: 1139
GlyphClass: 2
Flags: W
LayerCount: 2
Fore
SplineSet
128 353 m 1,0,-1
 27 353 l 2,1,2
 16 353 16 353 9.5 359.5 c 128,-1,3
 3 366 3 366 3 377 c 2,4,-1
 3 589 l 2,5,6
 3 600 3 600 9.5 607 c 128,-1,7
 16 614 16 614 27 614 c 2,8,-1
 182 614 l 1,9,-1
 230 850 l 1,10,-1
 27 850 l 2,11,12
 16 850 16 850 9.5 857 c 128,-1,13
 3 864 3 864 3 875 c 2,14,-1
 3 1088 l 2,15,16
 3 1099 3 1099 9.5 1105.5 c 128,-1,17
 16 1112 16 1112 27 1112 c 2,18,-1
 282 1112 l 1,19,20
 299 1197 299 1197 318.5 1291 c 128,-1,21
 338 1385 338 1385 355 1470 c 0,22,23
 356 1478 356 1478 363.5 1483.5 c 128,-1,24
 371 1489 371 1489 379 1489 c 2,25,-1
 595 1489 l 2,26,27
 608 1489 608 1489 614.5 1480.5 c 128,-1,28
 621 1472 621 1472 619 1460 c 2,29,-1
 549 1112 l 1,30,-1
 712 1112 l 1,31,-1
 783 1470 l 2,32,33
 785 1478 785 1478 792 1483.5 c 128,-1,34
 799 1489 799 1489 807 1489 c 2,35,-1
 1031 1489 l 2,36,37
 1043 1489 1043 1489 1050 1480.5 c 128,-1,38
 1057 1472 1057 1472 1055 1460 c 2,39,-1
 984 1112 l 1,40,-1
 1087 1112 l 2,41,42
 1097 1112 1097 1112 1104 1105.5 c 128,-1,43
 1111 1099 1111 1099 1111 1088 c 2,44,-1
 1111 875 l 2,45,46
 1111 864 1111 864 1104 857 c 128,-1,47
 1097 850 1097 850 1087 850 c 2,48,-1
 929 850 l 1,49,50
 923 818 923 818 917 789.5 c 128,-1,51
 911 761 911 761 905.5 733.5 c 128,-1,52
 900 706 900 706 894.5 676.5 c 128,-1,53
 889 647 889 647 882 614 c 1,54,-1
 1087 614 l 2,55,56
 1097 614 1097 614 1104 607 c 128,-1,57
 1111 600 1111 600 1111 589 c 2,58,-1
 1111 377 l 2,59,60
 1111 366 1111 366 1104 359.5 c 128,-1,61
 1097 353 1097 353 1087 353 c 2,62,-1
 829 353 l 1,63,-1
 756 -5 l 2,64,65
 755 -13 755 -13 747.5 -18.5 c 128,-1,66
 740 -24 740 -24 732 -24 c 2,67,-1
 517 -24 l 2,68,69
 505 -24 505 -24 498 -15.5 c 128,-1,70
 491 -7 491 -7 493 5 c 2,71,-1
 561 353 l 1,72,-1
 397 353 l 1,73,-1
 325 -5 l 2,74,75
 323 -13 323 -13 315.5 -18.5 c 128,-1,76
 308 -24 308 -24 300 -24 c 2,77,-1
 82 -24 l 2,78,79
 70 -24 70 -24 63 -15.5 c 128,-1,80
 56 -7 56 -7 58 5 c 2,81,-1
 128 353 l 1,0,-1
497 850 m 1,82,83
 491 818 491 818 485 789.5 c 128,-1,84
 479 761 479 761 473.5 733.5 c 128,-1,85
 468 706 468 706 462 676.5 c 128,-1,86
 456 647 456 647 449 614 c 1,87,-1
 613 614 l 1,88,-1
 660 850 l 1,89,-1
 497 850 l 1,82,83
EndSplineSet
EndChar

StartChar: quotesingle
Encoding: 39 39 7
Width: 487
GlyphClass: 2
Flags: W
LayerCount: 2
Fore
SplineSet
144 913 m 2,0,1
 136 913 136 913 129 918.5 c 128,-1,2
 122 924 122 924 120 932 c 2,3,-1
 69 1196 l 1,4,-1
 69 1441 l 2,5,6
 69 1451 69 1451 75.5 1458 c 128,-1,7
 82 1465 82 1465 93 1465 c 2,8,-1
 389 1465 l 2,9,10
 399 1465 399 1465 406 1458 c 128,-1,11
 413 1451 413 1451 413 1441 c 2,12,-1
 413 1197 l 1,13,-1
 368 933 l 2,14,15
 366 925 366 925 359.5 919 c 128,-1,16
 353 913 353 913 344 913 c 2,17,-1
 144 913 l 2,0,1
EndSplineSet
EndChar

StartChar: parenleft
Encoding: 40 40 8
Width: 682
GlyphClass: 2
Flags: W
LayerCount: 2
Fore
SplineSet
412 -416 m 2,0,1
 407 -416 407 -416 400.5 -413 c 128,-1,2
 394 -410 394 -410 392 -406 c 0,3,4
 241 -177 241 -177 164 64 c 0,5,6
 124 186 124 186 104.5 304 c 128,-1,7
 85 422 85 422 85 537 c 0,8,9
 85 677 85 677 110.5 813.5 c 128,-1,10
 136 950 136 950 183 1075 c 1,11,12
 225 1183 225 1183 278.5 1285 c 128,-1,13
 332 1387 332 1387 396 1478 c 0,14,15
 398 1482 398 1482 404.5 1485.5 c 128,-1,16
 411 1489 411 1489 416 1489 c 2,17,-1
 601 1489 l 2,18,19
 615 1489 615 1489 622 1479 c 128,-1,20
 629 1469 629 1469 624 1455 c 1,21,22
 558 1308 558 1308 513 1185 c 128,-1,23
 468 1062 468 1062 442 961 c 1,24,25
 394 760 394 760 394 531 c 0,26,27
 394 454 394 454 401 374.5 c 128,-1,28
 408 295 408 295 423 211 c 0,29,30
 438 128 438 128 457.5 50.5 c 128,-1,31
 477 -27 477 -27 503 -101 c 0,32,33
 519 -149 519 -149 548.5 -219 c 128,-1,34
 578 -289 578 -289 621 -382 c 0,35,36
 626 -395 626 -395 619.5 -405.5 c 128,-1,37
 613 -416 613 -416 598 -416 c 2,38,-1
 412 -416 l 2,0,1
EndSplineSet
EndChar

StartChar: parenright
Encoding: 41 41 9
Width: 682
GlyphClass: 2
Flags: W
LayerCount: 2
Fore
SplineSet
72 -416 m 2,0,1
 58 -416 58 -416 51 -406 c 128,-1,2
 44 -396 44 -396 50 -383 c 0,3,4
 91 -294 91 -294 119 -229 c 128,-1,5
 147 -164 147 -164 163 -120 c 0,6,7
 180 -75 180 -75 194.5 -23 c 128,-1,8
 209 29 209 29 223 89 c 0,9,10
 251 206 251 206 264 312.5 c 128,-1,11
 277 419 277 419 277 531 c 0,12,13
 277 760 277 760 229 961 c 0,14,15
 204 1062 204 1062 159 1185 c 128,-1,16
 114 1308 114 1308 48 1455 c 0,17,18
 42 1469 42 1469 49 1479 c 128,-1,19
 56 1489 56 1489 70 1489 c 2,20,-1
 255 1489 l 2,21,22
 260 1489 260 1489 266 1485.5 c 128,-1,23
 272 1482 272 1482 274 1478 c 0,24,25
 348 1373 348 1373 406 1260.5 c 128,-1,26
 464 1148 464 1148 504 1031 c 128,-1,27
 544 914 544 914 565 793.5 c 128,-1,28
 586 673 586 673 586 552 c 0,29,30
 586 449 586 449 570 339.5 c 128,-1,31
 554 230 554 230 521 112 c 0,32,33
 448 -152 448 -152 280 -406 c 0,34,35
 278 -410 278 -410 271 -413 c 128,-1,36
 264 -416 264 -416 260 -416 c 2,37,-1
 72 -416 l 2,0,1
EndSplineSet
EndChar

StartChar: comma
Encoding: 44 44 10
Width: 569
GlyphClass: 2
Flags: W
LayerCount: 2
Fore
SplineSet
116 296 m 2,0,1
 116 306 116 306 122.5 313 c 128,-1,2
 129 320 129 320 140 320 c 2,3,-1
 411 320 l 2,4,5
 422 320 422 320 428.5 313 c 128,-1,6
 435 306 435 306 435 296 c 2,7,-1
 435 101 l 2,8,9
 435 41 435 41 430 -7 c 128,-1,10
 425 -55 425 -55 414 -91 c 0,11,12
 393 -166 393 -166 330 -224 c 1,13,14
 269 -284 269 -284 178 -315 c 0,15,16
 170 -318 170 -318 161 -314 c 128,-1,17
 152 -310 152 -310 148 -302 c 2,18,-1
 95 -190 l 2,19,20
 90 -180 90 -180 94.5 -170 c 128,-1,21
 99 -160 99 -160 110 -157 c 0,22,23
 177 -135 177 -135 207.5 -98 c 128,-1,24
 238 -61 238 -61 245 0 c 1,25,-1
 140 0 l 2,26,27
 129 0 129 0 122.5 7 c 128,-1,28
 116 14 116 14 116 24 c 2,29,-1
 116 296 l 2,0,1
EndSplineSet
EndChar

StartChar: slash
Encoding: 47 47 11
Width: 569
GlyphClass: 2
Flags: W
LayerCount: 2
Fore
SplineSet
2 -24 m 2,0,1
 -11 -24 -11 -24 -17.5 -15.5 c 128,-1,2
 -24 -7 -24 -7 -21 6 c 2,3,-1
 329 1471 l 2,4,5
 331 1478 331 1478 338 1483.5 c 128,-1,6
 345 1489 345 1489 353 1489 c 2,7,-1
 557 1489 l 2,8,9
 569 1489 569 1489 576 1480.5 c 128,-1,10
 583 1472 583 1472 580 1459 c 2,11,-1
 225 -6 l 2,12,13
 223 -13 223 -13 216.5 -18.5 c 128,-1,14
 210 -24 210 -24 202 -24 c 2,15,-1
 2 -24 l 2,0,1
EndSplineSet
EndChar

StartChar: colon
Encoding: 58 58 12
Width: 682
GlyphClass: 2
Flags: W
LayerCount: 2
Fore
SplineSet
200 755 m 2,0,1
 189 755 189 755 182.5 761.5 c 128,-1,2
 176 768 176 768 176 779 c 2,3,-1
 176 1050 l 2,4,5
 176 1061 176 1061 182.5 1068 c 128,-1,6
 189 1075 189 1075 200 1075 c 2,7,-1
 472 1075 l 2,8,9
 482 1075 482 1075 489 1068 c 128,-1,10
 496 1061 496 1061 496 1050 c 2,11,-1
 496 779 l 2,12,13
 496 768 496 768 489 761.5 c 128,-1,14
 482 755 482 755 472 755 c 2,15,-1
 200 755 l 2,0,1
200 0 m 2,16,17
 189 0 189 0 182.5 7 c 128,-1,18
 176 14 176 14 176 24 c 2,19,-1
 176 296 l 2,20,21
 176 306 176 306 182.5 313 c 128,-1,22
 189 320 189 320 200 320 c 2,23,-1
 472 320 l 2,24,25
 482 320 482 320 489 313 c 128,-1,26
 496 306 496 306 496 296 c 2,27,-1
 496 24 l 2,28,29
 496 14 496 14 489 7 c 128,-1,30
 482 0 482 0 472 0 c 2,31,-1
 200 0 l 2,16,17
EndSplineSet
EndChar

StartChar: semicolon
Encoding: 59 59 13
AltUni2: 00037e.ffffffff.0
Width: 682
GlyphClass: 2
Flags: W
LayerCount: 2
Fore
SplineSet
192 755 m 2,0,1
 181 755 181 755 174.5 761.5 c 128,-1,2
 168 768 168 768 168 779 c 2,3,-1
 168 1050 l 2,4,5
 168 1061 168 1061 174.5 1068 c 128,-1,6
 181 1075 181 1075 192 1075 c 2,7,-1
 463 1075 l 2,8,9
 474 1075 474 1075 481 1068 c 128,-1,10
 488 1061 488 1061 488 1050 c 2,11,-1
 488 779 l 2,12,13
 488 768 488 768 481 761.5 c 128,-1,14
 474 755 474 755 463 755 c 2,15,-1
 192 755 l 2,0,1
168 296 m 2,16,17
 168 306 168 306 174.5 313 c 128,-1,18
 181 320 181 320 192 320 c 2,19,-1
 463 320 l 2,20,21
 474 320 474 320 481 313 c 128,-1,22
 488 306 488 306 488 296 c 2,23,-1
 488 101 l 2,24,25
 488 -21 488 -21 466 -91 c 1,26,27
 445 -166 445 -166 382 -224 c 1,28,29
 321 -284 321 -284 231 -315 c 0,30,31
 222 -318 222 -318 213 -314 c 128,-1,32
 204 -310 204 -310 201 -302 c 2,33,-1
 147 -190 l 2,34,35
 142 -180 142 -180 146.5 -170 c 128,-1,36
 151 -160 151 -160 162 -157 c 0,37,38
 229 -135 229 -135 260.5 -98 c 128,-1,39
 292 -61 292 -61 297 0 c 1,40,-1
 192 0 l 2,41,42
 181 0 181 0 174.5 7 c 128,-1,43
 168 14 168 14 168 24 c 2,44,-1
 168 296 l 2,16,17
EndSplineSet
EndChar

StartChar: less
Encoding: 60 60 14
Width: 1196
GlyphClass: 2
Flags: W
LayerCount: 2
Fore
SplineSet
1097 186 m 2,0,1
 1097 172 1097 172 1087 165 c 128,-1,2
 1077 158 1077 158 1063 163 c 1,3,-1
 92 586 l 2,4,5
 86 588 86 588 82 595 c 128,-1,6
 78 602 78 602 78 608 c 2,7,-1
 78 842 l 2,8,9
 78 847 78 847 82 854.5 c 128,-1,10
 86 862 86 862 92 864 c 2,11,-1
 1063 1284 l 2,12,13
 1077 1290 1077 1290 1087 1283 c 128,-1,14
 1097 1276 1097 1276 1097 1262 c 2,15,-1
 1097 987 l 2,16,17
 1097 980 1097 980 1092 973 c 128,-1,18
 1087 966 1087 966 1082 964 c 2,19,-1
 462 727 l 1,20,-1
 1082 481 l 2,21,22
 1087 479 1087 479 1092 472.5 c 128,-1,23
 1097 466 1097 466 1097 459 c 2,24,-1
 1097 186 l 2,0,1
EndSplineSet
EndChar

StartChar: equal
Encoding: 61 61 15
Width: 1196
GlyphClass: 2
Flags: W
LayerCount: 2
Fore
SplineSet
92 789 m 2,0,1
 82 789 82 789 75 795.5 c 128,-1,2
 68 802 68 802 68 813 c 2,3,-1
 68 1062 l 2,4,5
 68 1072 68 1072 75 1079 c 128,-1,6
 82 1086 82 1086 92 1086 c 2,7,-1
 1083 1086 l 2,8,9
 1093 1086 1093 1086 1100 1079 c 128,-1,10
 1107 1072 1107 1072 1107 1062 c 2,11,-1
 1107 813 l 2,12,13
 1107 802 1107 802 1100 795.5 c 128,-1,14
 1093 789 1093 789 1083 789 c 2,15,-1
 92 789 l 2,0,1
92 359 m 2,16,17
 82 359 82 359 75 366 c 128,-1,18
 68 373 68 373 68 384 c 2,19,-1
 68 634 l 2,20,21
 68 644 68 644 75 651 c 128,-1,22
 82 658 82 658 92 658 c 2,23,-1
 1083 658 l 2,24,25
 1093 658 1093 658 1100 651 c 128,-1,26
 1107 644 1107 644 1107 634 c 2,27,-1
 1107 384 l 2,28,29
 1107 373 1107 373 1100 366 c 128,-1,30
 1093 359 1093 359 1083 359 c 2,31,-1
 92 359 l 2,16,17
EndSplineSet
EndChar

StartChar: greater
Encoding: 62 62 16
Width: 1196
GlyphClass: 2
Flags: W
LayerCount: 2
Fore
SplineSet
112 162 m 1,0,1
 98 157 98 157 88 164 c 128,-1,2
 78 171 78 171 78 185 c 2,3,-1
 78 458 l 2,4,5
 78 465 78 465 82.5 471.5 c 128,-1,6
 87 478 87 478 93 480 c 2,7,-1
 715 724 l 1,8,9
 558 784 558 784 404 845 c 128,-1,10
 250 906 250 906 93 966 c 0,11,12
 87 968 87 968 82.5 975 c 128,-1,13
 78 982 78 982 78 989 c 2,14,-1
 78 1260 l 2,15,16
 78 1274 78 1274 88 1281 c 128,-1,17
 98 1288 98 1288 112 1282 c 2,18,-1
 1084 862 l 2,19,20
 1089 860 1089 860 1093.5 852.5 c 128,-1,21
 1098 845 1098 845 1098 840 c 2,22,-1
 1098 608 l 2,23,24
 1098 602 1098 602 1093.5 595 c 128,-1,25
 1089 588 1089 588 1084 586 c 2,26,-1
 112 162 l 1,0,1
EndSplineSet
EndChar

StartChar: question
Encoding: 63 63 17
Width: 1251
GlyphClass: 2
Flags: W
LayerCount: 2
Fore
SplineSet
490 365 m 2,0,1
 480 365 480 365 473 372 c 128,-1,2
 466 379 466 379 466 388 c 0,3,4
 465 415 465 415 465 431.5 c 128,-1,5
 465 448 465 448 465 454 c 0,6,7
 465 579 465 579 507 662 c 0,8,9
 527 701 527 701 570.5 748.5 c 128,-1,10
 614 796 614 796 672 844 c 0,11,12
 726 889 726 889 762.5 920.5 c 128,-1,13
 799 952 799 952 810 966 c 0,14,15
 841 1008 841 1008 841 1056 c 0,16,17
 841 1091 841 1091 827 1119.5 c 128,-1,18
 813 1148 813 1148 785 1173 c 0,19,20
 729 1224 729 1224 631 1224 c 0,21,22
 536 1224 536 1224 472.5 1170.5 c 128,-1,23
 409 1117 409 1117 386 1005 c 0,24,25
 384 996 384 996 376 990.5 c 128,-1,26
 368 985 368 985 359 986 c 2,27,-1
 110 1017 l 2,28,29
 101 1018 101 1018 94.5 1025 c 128,-1,30
 88 1032 88 1032 89 1042 c 0,31,32
 100 1227 100 1227 244 1353 c 256,33,34
 388 1479 388 1479 619 1479 c 0,35,36
 740 1479 740 1479 837.5 1446.5 c 128,-1,37
 935 1414 935 1414 1008 1351 c 1,38,39
 1077 1287 1077 1287 1115.5 1210 c 128,-1,40
 1154 1133 1154 1133 1154 1048 c 0,41,42
 1154 955 1154 955 1099 866 c 0,43,44
 1073 825 1073 825 1017.5 768 c 128,-1,45
 962 711 962 711 877 642 c 1,46,47
 839 609 839 609 812.5 581 c 128,-1,48
 786 553 786 553 776 534 c 1,49,-1
 777 534 l 1,50,51
 768 514 768 514 764 478 c 128,-1,52
 760 442 760 442 760 389 c 0,53,54
 760 379 760 379 753.5 372 c 128,-1,55
 747 365 747 365 736 365 c 2,56,-1
 490 365 l 2,0,1
490 0 m 2,57,58
 479 0 479 0 472.5 7 c 128,-1,59
 466 14 466 14 466 24 c 2,60,-1
 466 296 l 2,61,62
 466 306 466 306 472.5 313 c 128,-1,63
 479 320 479 320 490 320 c 2,64,-1
 761 320 l 2,65,66
 772 320 772 320 779 313 c 128,-1,67
 786 306 786 306 786 296 c 2,68,-1
 786 24 l 2,69,70
 786 14 786 14 779 7 c 128,-1,71
 772 0 772 0 761 0 c 2,72,-1
 490 0 l 2,57,58
EndSplineSet
EndChar

StartChar: braceleft
Encoding: 123 123 18
Width: 797
GlyphClass: 2
Flags: W
LayerCount: 2
Fore
SplineSet
41 652 m 2,0,1
 41 674 41 674 63 676 c 0,2,3
 129 681 129 681 160 696 c 0,4,5
 189 709 189 709 213 745 c 1,6,-1
 213 744 l 1,7,8
 223 761 223 761 231 786.5 c 128,-1,9
 239 812 239 812 244 839 c 0,10,11
 248 862 248 862 250 902 c 128,-1,12
 252 942 252 942 252 996 c 0,13,14
 252 1187 252 1187 271 1263 c 1,15,16
 289 1345 289 1345 339 1393 c 1,17,18
 389 1443 389 1443 482 1471 c 1,19,20
 546 1489 546 1489 674 1489 c 2,21,-1
 726 1489 l 2,22,23
 736 1489 736 1489 743 1482 c 128,-1,24
 750 1475 750 1475 750 1465 c 2,25,-1
 750 1234 l 2,26,27
 750 1223 750 1223 743 1216.5 c 128,-1,28
 736 1210 736 1210 726 1210 c 0,29,30
 621 1210 621 1210 596 1199 c 0,31,32
 575 1190 575 1190 564 1172 c 0,33,34
 553 1153 553 1153 553 1101 c 0,35,36
 553 1038 553 1038 544 869 c 0,37,38
 539 768 539 768 517 705.5 c 128,-1,39
 495 643 495 643 461 601 c 1,40,-1
 462 602 l 1,41,42
 449 585 449 585 432.5 569 c 128,-1,43
 416 553 416 553 391 536 c 1,44,45
 437 504 437 504 469.5 460.5 c 128,-1,46
 502 417 502 417 519 359 c 0,47,48
 528 327 528 327 535 284 c 128,-1,49
 542 241 542 241 545 186 c 0,50,51
 549 105 549 105 550.5 54 c 128,-1,52
 552 3 552 3 552 -20 c 0,53,54
 552 -76 552 -76 563 -96 c 1,55,56
 577 -115 577 -115 599 -125 c 1,57,-1
 598 -125 l 1,58,59
 628 -136 628 -136 726 -136 c 0,60,61
 736 -136 736 -136 743 -143 c 128,-1,62
 750 -150 750 -150 750 -160 c 2,63,-1
 750 -392 l 2,64,65
 750 -403 750 -403 743 -409.5 c 128,-1,66
 736 -416 736 -416 726 -416 c 2,67,-1
 674 -416 l 2,68,69
 611 -416 611 -416 557.5 -410.5 c 128,-1,70
 504 -405 504 -405 468 -394 c 1,71,72
 392 -373 392 -373 339 -320 c 256,73,74
 286 -267 286 -267 270 -187 c 1,75,76
 252 -112 252 -112 252 41 c 0,77,78
 252 214 252 214 238 265 c 0,79,80
 218 335 218 335 181 362 c 1,81,82
 146 391 146 391 64 396 c 0,83,84
 54 397 54 397 47.5 404 c 128,-1,85
 41 411 41 411 41 420 c 2,86,-1
 41 652 l 2,0,1
EndSplineSet
EndChar

StartChar: bar
Encoding: 124 124 19
Width: 573
GlyphClass: 2
Flags: W
LayerCount: 2
Fore
SplineSet
175 -416 m 2,0,1
 164 -416 164 -416 157.5 -409.5 c 128,-1,2
 151 -403 151 -403 151 -392 c 2,3,-1
 151 1465 l 2,4,5
 151 1475 151 1475 157.5 1482 c 128,-1,6
 164 1489 164 1489 175 1489 c 2,7,-1
 390 1489 l 2,8,9
 401 1489 401 1489 408 1482 c 128,-1,10
 415 1475 415 1475 415 1465 c 2,11,-1
 415 -392 l 2,12,13
 415 -403 415 -403 408 -409.5 c 128,-1,14
 401 -416 401 -416 390 -416 c 2,15,-1
 175 -416 l 2,0,1
EndSplineSet
EndChar

StartChar: braceright
Encoding: 125 125 20
Width: 797
GlyphClass: 2
Flags: W
LayerCount: 2
Fore
SplineSet
735 420 m 2,0,1
 735 411 735 411 728.5 404 c 128,-1,2
 722 397 722 397 713 396 c 0,3,4
 649 392 649 392 615 377 c 0,5,6
 599 369 599 369 586.5 357 c 128,-1,7
 574 345 574 345 563 328 c 1,8,9
 554 310 554 310 545 285 c 128,-1,10
 536 260 536 260 531 234 c 0,11,12
 527 211 527 211 525 171 c 128,-1,13
 523 131 523 131 523 77 c 0,14,15
 523 -17 523 -17 519 -84 c 128,-1,16
 515 -151 515 -151 505 -190 c 1,17,-1
 505 -189 l 1,18,19
 497 -231 497 -231 479.5 -263.5 c 128,-1,20
 462 -296 462 -296 437 -321 c 0,21,22
 389 -371 389 -371 294 -398 c 0,23,24
 262 -408 262 -408 214.5 -412 c 128,-1,25
 167 -416 167 -416 101 -416 c 2,26,-1
 50 -416 l 2,27,28
 39 -416 39 -416 32.5 -409.5 c 128,-1,29
 26 -403 26 -403 26 -392 c 2,30,-1
 26 -160 l 2,31,32
 26 -150 26 -150 32.5 -143 c 128,-1,33
 39 -136 39 -136 50 -136 c 0,34,35
 147 -136 147 -136 177 -125 c 1,36,37
 201 -114 201 -114 210 -97 c 1,38,39
 223 -77 223 -77 223 -26 c 0,40,41
 224 33 224 33 232 200 c 0,42,43
 236 272 236 272 247.5 324 c 128,-1,44
 259 376 259 376 277.5 414.5 c 128,-1,45
 296 453 296 453 323 482 c 128,-1,46
 350 511 350 511 385 536 c 1,47,48
 359 555 359 555 339 574 c 128,-1,49
 319 593 319 593 305 613 c 0,50,51
 256 681 256 681 238 786 c 0,52,53
 233 820 233 820 229 894.5 c 128,-1,54
 225 969 225 969 223 1087 c 0,55,56
 222 1120 222 1120 219.5 1141 c 128,-1,57
 217 1162 217 1162 211 1172 c 1,58,59
 204 1189 204 1189 180 1198 c 1,60,61
 154 1210 154 1210 50 1210 c 0,62,63
 39 1210 39 1210 32.5 1216.5 c 128,-1,64
 26 1223 26 1223 26 1234 c 2,65,-1
 26 1465 l 2,66,67
 26 1475 26 1475 32.5 1482 c 128,-1,68
 39 1489 39 1489 50 1489 c 2,69,-1
 101 1489 l 2,70,71
 236 1489 236 1489 308 1468 c 1,72,73
 385 1443 385 1443 436 1391 c 1,74,-1
 436 1392 l 1,75,76
 488 1339 488 1339 505 1260 c 1,77,-1
 505 1261 l 1,78,79
 515 1223 515 1223 519 1166 c 128,-1,80
 523 1109 523 1109 523 1032 c 0,81,82
 523 862 523 862 537 808 c 1,83,84
 558 738 558 738 593 709 c 1,85,86
 630 681 630 681 712 676 c 0,87,88
 721 675 721 675 728 668.5 c 128,-1,89
 735 662 735 662 735 652 c 2,90,-1
 735 420 l 2,0,1
EndSplineSet
EndChar

StartChar: endash
Encoding: 8211 8211 21
Width: 1108
GlyphClass: 2
Flags: W
LayerCount: 2
Fore
SplineSet
63 405 m 2,0,1
 53 405 53 405 46 412 c 128,-1,2
 39 419 39 419 39 429 c 2,3,-1
 39 545 l 2,4,5
 39 556 39 556 46 562.5 c 128,-1,6
 53 569 53 569 63 569 c 2,7,-1
 1026 569 l 2,8,9
 1036 569 1036 569 1043 562.5 c 128,-1,10
 1050 556 1050 556 1050 545 c 2,11,-1
 1050 429 l 2,12,13
 1050 419 1050 419 1043 412 c 128,-1,14
 1036 405 1036 405 1026 405 c 2,15,-1
 63 405 l 2,0,1
EndSplineSet
EndChar

StartChar: emdash
Encoding: 8212 8212 22
Width: 2048
GlyphClass: 2
Flags: W
LayerCount: 2
Fore
SplineSet
17 405 m 2,0,1
 7 405 7 405 0 412 c 128,-1,2
 -7 419 -7 419 -7 429 c 2,3,-1
 -7 545 l 2,4,5
 -7 556 -7 556 0 562.5 c 128,-1,6
 7 569 7 569 17 569 c 2,7,-1
 1996 569 l 2,8,9
 2007 569 2007 569 2013.5 562.5 c 128,-1,10
 2020 556 2020 556 2020 545 c 2,11,-1
 2020 429 l 2,12,13
 2020 419 2020 419 2013.5 412 c 128,-1,14
 2007 405 2007 405 1996 405 c 2,15,-1
 17 405 l 2,0,1
EndSplineSet
EndChar

StartChar: quoteleft
Encoding: 8216 8216 23
Width: 557
GlyphClass: 2
Flags: W
LayerCount: 2
Fore
SplineSet
331 989 m 2,0,1
 329 987 329 987 322.5 984.5 c 128,-1,2
 316 982 316 982 314 982 c 0,3,4
 259 982 259 982 207 1055 c 1,5,6
 161 1125 161 1125 161 1216 c 0,7,8
 161 1272 161 1272 179.5 1329.5 c 128,-1,9
 198 1387 198 1387 233 1447 c 1,10,11
 271 1507 271 1507 310.5 1539.5 c 128,-1,12
 350 1572 350 1572 388 1572 c 0,13,14
 398 1572 398 1572 405 1565.5 c 128,-1,15
 412 1559 412 1559 412 1548 c 2,16,-1
 412 1506 l 2,17,18
 412 1501 412 1501 408.5 1494 c 128,-1,19
 405 1487 405 1487 400 1485 c 0,20,21
 371 1468 371 1468 353 1425.5 c 128,-1,22
 335 1383 335 1383 328 1321 c 1,23,24
 328 1226 328 1226 436 1190 c 0,25,26
 443 1188 443 1188 448 1181.5 c 128,-1,27
 453 1175 453 1175 453 1167 c 2,28,-1
 453 1117 l 1,29,-1
 331 989 l 2,0,1
EndSplineSet
EndChar

StartChar: quoteright
Encoding: 8217 8217 24
Width: 557
GlyphClass: 2
Flags: W
LayerCount: 2
Fore
SplineSet
217 1564 m 2,0,1
 219 1566 219 1566 225 1569 c 128,-1,2
 231 1572 231 1572 234 1572 c 0,3,4
 291 1572 291 1572 339 1498 c 0,5,6
 362 1464 362 1464 374.5 1424 c 128,-1,7
 387 1384 387 1384 387 1338 c 0,8,9
 387 1228 387 1228 314 1106 c 0,10,11
 239 982 239 982 160 982 c 0,12,13
 149 982 149 982 142.5 988.5 c 128,-1,14
 136 995 136 995 136 1006 c 2,15,-1
 136 1047 l 2,16,17
 136 1052 136 1052 139 1059.5 c 128,-1,18
 142 1067 142 1067 147 1069 c 0,19,20
 177 1086 177 1086 195 1128.5 c 128,-1,21
 213 1171 213 1171 220 1233 c 1,22,23
 220 1329 220 1329 111 1363 c 0,24,25
 105 1365 105 1365 100 1372 c 128,-1,26
 95 1379 95 1379 95 1387 c 2,27,-1
 95 1437 l 1,28,-1
 217 1564 l 2,0,1
EndSplineSet
EndChar

StartChar: quotesinglbase
Encoding: 8218 8218 25
Width: 557
GlyphClass: 2
Flags: W
LayerCount: 2
Fore
SplineSet
217 312 m 2,0,1
 219 314 219 314 225 317 c 128,-1,2
 231 320 231 320 234 320 c 0,3,4
 291 320 291 320 339 245 c 1,5,6
 387 177 387 177 387 86 c 0,7,8
 387 -26 387 -26 314 -145 c 0,9,10
 277 -205 277 -205 237.5 -238 c 128,-1,11
 198 -271 198 -271 160 -271 c 0,12,13
 149 -271 149 -271 142.5 -264 c 128,-1,14
 136 -257 136 -257 136 -246 c 2,15,-1
 136 -205 l 2,16,17
 136 -200 136 -200 139 -193 c 128,-1,18
 142 -186 142 -186 147 -184 c 0,19,20
 177 -167 177 -167 195 -124 c 128,-1,21
 213 -81 213 -81 220 -19 c 1,22,23
 220 77 220 77 111 111 c 0,24,25
 105 113 105 113 100 120 c 128,-1,26
 95 127 95 127 95 134 c 2,27,-1
 95 185 l 1,28,-1
 217 312 l 2,0,1
EndSplineSet
EndChar

StartChar: quotedblleft
Encoding: 8220 8220 26
Width: 910
GlyphClass: 2
Flags: W
LayerCount: 2
Fore
SplineSet
334 989 m 2,0,1
 332 987 332 987 325.5 984.5 c 128,-1,2
 319 982 319 982 316 982 c 0,3,4
 262 982 262 982 210 1055 c 1,5,6
 164 1125 164 1125 164 1216 c 0,7,8
 164 1272 164 1272 182.5 1329.5 c 128,-1,9
 201 1387 201 1387 236 1447 c 1,10,11
 274 1507 274 1507 313.5 1539.5 c 128,-1,12
 353 1572 353 1572 391 1572 c 0,13,14
 401 1572 401 1572 408 1565.5 c 128,-1,15
 415 1559 415 1559 415 1548 c 2,16,-1
 415 1506 l 2,17,18
 415 1501 415 1501 411.5 1494 c 128,-1,19
 408 1487 408 1487 403 1485 c 0,20,21
 374 1468 374 1468 356 1425.5 c 128,-1,22
 338 1383 338 1383 331 1321 c 1,23,24
 331 1226 331 1226 439 1190 c 0,25,26
 446 1188 446 1188 451 1181.5 c 128,-1,27
 456 1175 456 1175 456 1167 c 2,28,-1
 456 1117 l 1,29,-1
 334 989 l 2,0,1
675 989 m 2,30,31
 673 987 673 987 666.5 984.5 c 128,-1,32
 660 982 660 982 658 982 c 0,33,34
 603 982 603 982 551 1055 c 1,35,36
 505 1125 505 1125 505 1216 c 0,37,38
 505 1272 505 1272 523.5 1329.5 c 128,-1,39
 542 1387 542 1387 577 1447 c 1,40,41
 615 1507 615 1507 654.5 1539.5 c 128,-1,42
 694 1572 694 1572 732 1572 c 0,43,44
 743 1572 743 1572 749.5 1565.5 c 128,-1,45
 756 1559 756 1559 756 1548 c 2,46,-1
 756 1506 l 2,47,48
 756 1501 756 1501 752.5 1494 c 128,-1,49
 749 1487 749 1487 745 1485 c 0,50,51
 715 1468 715 1468 697 1425.5 c 128,-1,52
 679 1383 679 1383 672 1321 c 1,53,54
 672 1226 672 1226 780 1190 c 0,55,56
 787 1188 787 1188 792 1181.5 c 128,-1,57
 797 1175 797 1175 797 1167 c 2,58,-1
 797 1117 l 1,59,-1
 675 989 l 2,30,31
EndSplineSet
EndChar

StartChar: quotedblright
Encoding: 8221 8221 27
Width: 910
GlyphClass: 2
Flags: W
LayerCount: 2
Fore
SplineSet
220 1564 m 2,0,1
 222 1566 222 1566 228 1569 c 128,-1,2
 234 1572 234 1572 237 1572 c 0,3,4
 294 1572 294 1572 342 1498 c 0,5,6
 365 1464 365 1464 377.5 1424 c 128,-1,7
 390 1384 390 1384 390 1338 c 0,8,9
 390 1228 390 1228 317 1106 c 0,10,11
 242 982 242 982 163 982 c 0,12,13
 152 982 152 982 145.5 988.5 c 128,-1,14
 139 995 139 995 139 1006 c 2,15,-1
 139 1047 l 2,16,17
 139 1052 139 1052 142 1059.5 c 128,-1,18
 145 1067 145 1067 150 1069 c 0,19,20
 180 1086 180 1086 198 1128.5 c 128,-1,21
 216 1171 216 1171 223 1233 c 1,22,23
 223 1329 223 1329 114 1363 c 0,24,25
 108 1365 108 1365 103 1372 c 128,-1,26
 98 1379 98 1379 98 1387 c 2,27,-1
 98 1437 l 1,28,-1
 220 1564 l 2,0,1
561 1564 m 2,29,30
 563 1566 563 1566 569 1569 c 128,-1,31
 575 1572 575 1572 578 1572 c 0,32,33
 634 1572 634 1572 684 1498 c 0,34,35
 707 1464 707 1464 719 1424 c 128,-1,36
 731 1384 731 1384 731 1338 c 0,37,38
 731 1228 731 1228 658 1106 c 0,39,40
 583 982 583 982 504 982 c 0,41,42
 493 982 493 982 486.5 988.5 c 128,-1,43
 480 995 480 995 480 1006 c 2,44,-1
 480 1047 l 2,45,46
 480 1052 480 1052 483 1059.5 c 128,-1,47
 486 1067 486 1067 491 1069 c 0,48,49
 521 1086 521 1086 539 1128.5 c 128,-1,50
 557 1171 557 1171 564 1233 c 1,51,52
 564 1329 564 1329 455 1363 c 0,53,54
 449 1365 449 1365 444 1372 c 128,-1,55
 439 1379 439 1379 439 1387 c 2,56,-1
 439 1437 l 1,57,-1
 561 1564 l 2,29,30
EndSplineSet
EndChar

StartChar: quotedblbase
Encoding: 8222 8222 28
Width: 910
GlyphClass: 2
Flags: W
LayerCount: 2
Fore
SplineSet
220 312 m 2,0,1
 222 314 222 314 228 317 c 128,-1,2
 234 320 234 320 237 320 c 0,3,4
 294 320 294 320 342 245 c 1,5,6
 390 177 390 177 390 86 c 0,7,8
 390 -26 390 -26 317 -145 c 0,9,10
 280 -205 280 -205 240.5 -238 c 128,-1,11
 201 -271 201 -271 163 -271 c 0,12,13
 152 -271 152 -271 145.5 -264 c 128,-1,14
 139 -257 139 -257 139 -246 c 2,15,-1
 139 -205 l 2,16,17
 139 -200 139 -200 142 -193 c 128,-1,18
 145 -186 145 -186 150 -184 c 0,19,20
 180 -167 180 -167 198 -124 c 128,-1,21
 216 -81 216 -81 223 -19 c 1,22,23
 223 77 223 77 114 111 c 0,24,25
 108 113 108 113 103 120 c 128,-1,26
 98 127 98 127 98 134 c 2,27,-1
 98 185 l 1,28,-1
 220 312 l 2,0,1
561 312 m 2,29,30
 563 314 563 314 569 317 c 128,-1,31
 575 320 575 320 578 320 c 0,32,33
 634 320 634 320 684 245 c 0,34,35
 707 212 707 212 719 172 c 128,-1,36
 731 132 731 132 731 86 c 0,37,38
 731 -26 731 -26 658 -145 c 0,39,40
 621 -205 621 -205 581.5 -238 c 128,-1,41
 542 -271 542 -271 504 -271 c 0,42,43
 493 -271 493 -271 486.5 -264 c 128,-1,44
 480 -257 480 -257 480 -246 c 2,45,-1
 480 -205 l 2,46,47
 480 -200 480 -200 483 -193 c 128,-1,48
 486 -186 486 -186 491 -184 c 0,49,50
 521 -167 521 -167 539 -124 c 128,-1,51
 557 -81 557 -81 564 -19 c 1,52,53
 564 77 564 77 455 111 c 0,54,55
 449 113 449 113 444 120 c 128,-1,56
 439 127 439 127 439 134 c 2,57,-1
 439 185 l 1,58,-1
 561 312 l 2,29,30
EndSplineSet
EndChar

StartChar: ellipsis
Encoding: 8230 8230 29
Width: 2048
GlyphClass: 2
Flags: W
LayerCount: 2
Fore
SplineSet
218 284 m 1,0,1
 240 304 240 304 263 304 c 0,2,3
 274 304 274 304 285.5 299 c 128,-1,4
 297 294 297 294 310 282 c 1,5,-1
 391 195 l 1,6,7
 398 185 398 185 402 175 c 128,-1,8
 406 165 406 165 406 154 c 0,9,10
 406 131 406 131 387 107 c 1,11,-1
 309 21 l 1,12,13
 281 -5 281 -5 263 -5 c 0,14,15
 237 -5 237 -5 217 15 c 1,16,-1
 131 115 l 1,17,18
 116 134 116 134 116 156 c 0,19,20
 116 180 116 180 139 203 c 1,21,-1
 139 202 l 1,22,-1
 218 284 l 1,0,1
878 284 m 1,23,24
 900 304 900 304 923 304 c 0,25,26
 934 304 934 304 945.5 299 c 128,-1,27
 957 294 957 294 970 282 c 1,28,-1
 1051 195 l 1,29,30
 1058 185 1058 185 1062 175 c 128,-1,31
 1066 165 1066 165 1066 154 c 0,32,33
 1066 131 1066 131 1047 107 c 1,34,-1
 969 21 l 1,35,36
 941 -5 941 -5 923 -5 c 0,37,38
 897 -5 897 -5 877 15 c 1,39,-1
 791 115 l 1,40,41
 776 134 776 134 776 156 c 0,42,43
 776 180 776 180 798 203 c 1,44,-1
 798 202 l 1,45,-1
 878 284 l 1,23,24
1538 284 m 1,46,47
 1560 304 1560 304 1583 304 c 0,48,49
 1594 304 1594 304 1605.5 299 c 128,-1,50
 1617 294 1617 294 1630 282 c 1,51,-1
 1711 195 l 1,52,53
 1718 185 1718 185 1722 175 c 128,-1,54
 1726 165 1726 165 1726 154 c 0,55,56
 1726 131 1726 131 1707 107 c 1,57,-1
 1629 21 l 1,58,59
 1601 -5 1601 -5 1583 -5 c 0,60,61
 1557 -5 1557 -5 1537 15 c 1,62,-1
 1451 115 l 1,63,64
 1436 134 1436 134 1436 156 c 0,65,66
 1436 180 1436 180 1458 203 c 1,67,-1
 1458 202 l 1,68,-1
 1538 284 l 1,46,47
EndSplineSet
EndChar

StartChar: afii57388
Encoding: 1548 1548 30
Width: 376
GlyphClass: 2
Flags: W
LayerCount: 2
Fore
SplineSet
203 2 m 1,0,1
 105 -17 105 -17 38 115 c 0,2,3
 31 131 31 131 27 153 c 128,-1,4
 23 175 23 175 23 205 c 0,5,6
 23 292 23 292 57.5 439 c 128,-1,7
 92 586 92 586 164 797 c 1,8,-1
 163 790 l 2,9,10
 163 791 163 791 163.5 791.5 c 128,-1,11
 164 792 164 792 164 793 c 0,12,13
 164 796 164 796 166.5 802.5 c 128,-1,14
 169 809 169 809 171 811 c 2,15,-1
 232 872 l 2,16,17
 238 878 238 878 246 879 c 128,-1,18
 254 880 254 880 260.5 876.5 c 128,-1,19
 267 873 267 873 270.5 866 c 128,-1,20
 274 859 274 859 273 850 c 0,21,22
 271 836 271 836 257 780 c 128,-1,23
 243 724 243 724 217 628 c 0,24,25
 203 574 203 574 195 522.5 c 128,-1,26
 187 471 187 471 187 428 c 0,27,28
 187 372 187 372 199 330 c 0,29,30
 205 310 205 310 214 298 c 128,-1,31
 223 286 223 286 234 286 c 0,32,33
 266 286 266 286 324 341 c 1,34,35
 364 357 364 357 379 340 c 1,36,37
 391 328 391 328 390 306 c 0,38,39
 381 166 381 166 334 87 c 128,-1,40
 287 8 287 8 200 2 c 1,41,-1
 203 2 l 1,0,1
EndSplineSet
EndChar

StartChar: afii57403
Encoding: 1563 1563 31
Width: 404
GlyphClass: 2
Flags: W
LayerCount: 2
Fore
SplineSet
203 455 m 1,0,1
 104 437 104 437 38 568 c 0,2,3
 31 584 31 584 27 606 c 128,-1,4
 23 628 23 628 23 658 c 0,5,6
 23 745 23 745 57.5 892 c 128,-1,7
 92 1039 92 1039 164 1250 c 1,8,-1
 163 1244 l 2,9,10
 163 1245 163 1245 163.5 1245.5 c 128,-1,11
 164 1246 164 1246 164 1247 c 0,12,13
 164 1249 164 1249 166.5 1255.5 c 128,-1,14
 169 1262 169 1262 171 1264 c 2,15,-1
 232 1325 l 2,16,17
 238 1331 238 1331 246 1332 c 128,-1,18
 254 1333 254 1333 260.5 1330 c 128,-1,19
 267 1327 267 1327 270.5 1320 c 128,-1,20
 274 1313 274 1313 273 1304 c 0,21,22
 271 1290 271 1290 257 1233.5 c 128,-1,23
 243 1177 243 1177 217 1081 c 0,24,25
 203 1027 203 1027 195 975.5 c 128,-1,26
 187 924 187 924 187 881 c 0,27,28
 187 826 187 826 199 783 c 1,29,30
 206 763 206 763 214.5 751 c 128,-1,31
 223 739 223 739 234 739 c 0,32,33
 264 739 264 739 325 794 c 1,34,35
 364 809 364 809 380 793 c 0,36,37
 385 788 385 788 388 779.5 c 128,-1,38
 391 771 391 771 390 760 c 0,39,40
 382 620 382 620 334.5 540.5 c 128,-1,41
 287 461 287 461 200 455 c 1,42,-1
 203 455 l 1,0,1
201 390 m 1,43,-1
 199 389 l 1,44,45
 212 405 212 405 231 405 c 0,46,47
 245 405 245 405 253 399 c 1,48,-1
 404 253 l 2,49,50
 418 239 418 239 418 223 c 256,51,52
 418 207 418 207 406 194 c 1,53,-1
 406 195 l 1,54,-1
 230 13 l 2,55,56
 217 0 217 0 200 0 c 0,57,58
 193 0 193 0 187 2.5 c 128,-1,59
 181 5 181 5 173 10 c 1,60,-1
 28 151 l 1,61,-1
 29 149 l 1,62,63
 13 162 13 162 13 181 c 0,64,65
 13 197 13 197 26 210 c 1,66,-1
 26 209 l 1,67,-1
 201 390 l 1,43,-1
EndSplineSet
EndChar

StartChar: afii57407
Encoding: 1567 1567 32
Width: 707
GlyphClass: 2
Flags: W
LayerCount: 2
Fore
SplineSet
664 1513 m 1,0,1
 647 1448 647 1448 625.5 1385 c 128,-1,2
 604 1322 604 1322 578 1261 c 1,3,4
 567 1241 567 1241 540 1228 c 0,5,6
 536 1226 536 1226 530.5 1224.5 c 128,-1,7
 525 1223 525 1223 521 1223 c 0,8,9
 491 1223 491 1223 486 1260 c 1,10,11
 477 1378 477 1378 347 1384 c 1,12,-1
 336 1384 l 2,13,14
 301 1384 301 1384 268.5 1374.5 c 128,-1,15
 236 1365 236 1365 210 1349 c 1,16,17
 224 1291 224 1291 260 1251 c 1,18,19
 305 1203 305 1203 351 1157 c 1,20,21
 386 1119 386 1119 418.5 1080 c 128,-1,22
 451 1041 451 1041 480 999 c 0,23,24
 540 909 540 909 553 779 c 1,25,26
 551 716 551 716 539 662.5 c 128,-1,27
 527 609 527 609 507 564 c 1,28,29
 487 522 487 522 466 479 c 128,-1,30
 445 436 445 436 425 396 c 1,31,32
 416 386 416 386 400 381 c 1,33,34
 397 379 397 379 394.5 379 c 128,-1,35
 392 379 392 379 389 379 c 0,36,37
 360 379 360 379 360 408 c 0,38,39
 360 411 360 411 360.5 414.5 c 128,-1,40
 361 418 361 418 364 424 c 2,41,-1
 362 420 l 1,42,43
 382 489 382 489 382 547 c 0,44,45
 382 581 382 581 375 614.5 c 128,-1,46
 368 648 368 648 356 677 c 1,47,48
 330 733 330 733 297.5 781.5 c 128,-1,49
 265 830 265 830 230 864 c 0,50,51
 180 911 180 911 134 968.5 c 128,-1,52
 88 1026 88 1026 59 1099 c 1,53,54
 55 1117 55 1117 54 1136 c 128,-1,55
 53 1155 53 1155 53 1175 c 0,56,57
 53 1313 53 1313 135 1476 c 1,58,59
 234 1680 234 1680 440 1680 c 0,60,61
 448 1680 448 1680 454.5 1680 c 128,-1,62
 461 1680 461 1680 468 1679 c 1,63,-1
 467 1679 l 1,64,65
 500 1677 500 1677 526.5 1666.5 c 128,-1,66
 553 1656 553 1656 575 1639.5 c 128,-1,67
 597 1623 597 1623 614.5 1602 c 128,-1,68
 632 1581 632 1581 646 1559 c 1,69,-1
 653 1544 l 2,70,71
 653 1542 653 1542 655 1540 c 1,72,-1
 664 1513 l 1,0,1
374 390 m 1,73,-1
 372 389 l 1,74,75
 385 405 385 405 404 405 c 0,76,77
 420 405 420 405 426 399 c 2,78,-1
 577 253 l 2,79,80
 592 239 592 239 592 223 c 256,81,82
 592 207 592 207 579 194 c 1,83,-1
 579 195 l 1,84,-1
 403 13 l 2,85,86
 391 0 391 0 373 0 c 0,87,88
 367 0 367 0 360.5 2.5 c 128,-1,89
 354 5 354 5 346 10 c 1,90,-1
 201 151 l 1,91,-1
 202 149 l 1,92,93
 187 162 187 162 187 181 c 0,94,95
 187 196 187 196 199 210 c 1,96,-1
 199 209 l 1,97,-1
 374 390 l 1,73,-1
EndSplineSet
EndChar

StartChar: afii57409
Encoding: 1569 1569 33
AltUni2: 00fe80.ffffffff.0
Width: 720
GlyphClass: 2
Flags: W
LayerCount: 2
Fore
SplineSet
558 645 m 1,0,1
 515 633 515 633 479.5 620.5 c 128,-1,2
 444 608 444 608 409 582 c 1,3,4
 418 571 418 571 430.5 563.5 c 128,-1,5
 443 556 443 556 458 551 c 0,6,7
 482 543 482 543 505 533 c 128,-1,8
 528 523 528 523 547 512 c 0,9,10
 570 500 570 500 584 482 c 128,-1,11
 598 464 598 464 602 440 c 0,12,13
 603 437 603 437 603 433 c 128,-1,14
 603 429 603 429 603 426 c 0,15,16
 603 403 603 403 587 370.5 c 128,-1,17
 571 338 571 338 541 296 c 2,18,-1
 439 157 l 2,19,20
 385 85 385 85 304 39 c 0,21,22
 252 10 252 10 161 4 c 0,23,24
 113 1 113 1 75 1 c 0,25,26
 60 1 60 1 46 1.5 c 128,-1,27
 32 2 32 2 20 3 c 0,28,29
 0 5 0 5 -9.5 12 c 128,-1,30
 -19 19 -19 19 -19 36 c 0,31,32
 -19 46 -19 46 -9 58 c 128,-1,33
 1 70 1 70 18 81 c 0,34,35
 44 97 44 97 75 113.5 c 128,-1,36
 106 130 106 130 142 147 c 1,37,-1
 141 147 l 1,38,39
 178 164 178 164 214.5 180 c 128,-1,40
 251 196 251 196 286 211 c 2,41,-1
 361 242 l 1,42,-1
 360 242 l 1,43,-1
 367 244 l 1,44,-1
 355 247 l 2,45,46
 319 256 319 256 290 269.5 c 128,-1,47
 261 283 261 283 240 303 c 1,48,-1
 240 302 l 1,49,50
 184 352 184 352 184 405 c 0,51,52
 184 412 184 412 184.5 418 c 128,-1,53
 185 424 185 424 187 432 c 1,54,-1
 187 431 l 1,55,56
 201 484 201 484 239 546 c 0,57,58
 273 601 273 601 316.5 653 c 128,-1,59
 360 705 360 705 415 755 c 0,60,61
 472 806 472 806 523.5 839.5 c 128,-1,62
 575 873 575 873 623 889 c 0,63,64
 639 895 639 895 652 895 c 0,65,66
 689 895 689 895 689 860 c 0,67,68
 689 852 689 852 687 847 c 0,69,70
 679 820 679 820 656.5 780.5 c 128,-1,71
 634 741 634 741 606 703 c 0,72,73
 591 683 591 683 583 672 c 128,-1,74
 575 661 575 661 572 656 c 1,75,-1
 558 645 l 1,0,1
EndSplineSet
MultipleSubs2: "'fina' Terminal Forms in Arabic lookup 2 subtable" _.notdef_1
MultipleSubs2: "'isol' Isolated Forms in Arabic lookup 0 subtable" _.notdef_1
EndChar

StartChar: afii57410
Encoding: 1570 1570 34
AltUni2: 00fe81.ffffffff.0
Width: 226
GlyphClass: 2
Flags: W
LayerCount: 2
Fore
SplineSet
-16 871 m 1,0,-1
 135 1109 l 2,1,2
 139 1117 139 1117 146.5 1119.5 c 128,-1,3
 154 1122 154 1122 161 1120.5 c 128,-1,4
 168 1119 168 1119 173 1113.5 c 128,-1,5
 178 1108 178 1108 179 1099 c 2,6,-1
 236 250 l 1,7,-1
 86 12 l 2,8,9
 81 4 81 4 73.5 1.5 c 128,-1,10
 66 -1 66 -1 59 0.5 c 128,-1,11
 52 2 52 2 47 7.5 c 128,-1,12
 42 13 42 13 41 22 c 2,13,-1
 -16 871 l 1,0,-1
412 1248 m 1,14,15
 372 1222 372 1222 321 1203.5 c 128,-1,16
 270 1185 270 1185 207 1171 c 0,17,18
 188 1167 188 1167 169 1165 c 128,-1,19
 150 1163 150 1163 129 1163 c 0,20,21
 41 1163 41 1163 -37 1205 c 1,22,-1
 -36 1205 l 1,23,24
 -40 1207 -40 1207 -43 1207 c 2,25,-1
 -42 1207 l 1,26,-1
 -78 1186 l 2,27,28
 -90 1179 -90 1179 -109.5 1161.5 c 128,-1,29
 -129 1144 -129 1144 -149 1123 c 0,30,31
 -161 1110 -161 1110 -172.5 1103.5 c 128,-1,32
 -184 1097 -184 1097 -198 1102 c 0,33,34
 -203 1104 -203 1104 -208 1110.5 c 128,-1,35
 -213 1117 -213 1117 -213 1124 c 0,36,37
 -213 1132 -213 1132 -204 1152 c 128,-1,38
 -195 1172 -195 1172 -178 1201 c 0,39,40
 -151 1246 -151 1246 -108.5 1286.5 c 128,-1,41
 -66 1327 -66 1327 -12 1355 c 0,42,43
 -8 1357 -8 1357 -3.5 1358.5 c 128,-1,44
 1 1360 1 1360 6 1360 c 0,45,46
 20 1360 20 1360 44 1349 c 0,47,48
 118 1312 118 1312 198 1312 c 0,49,50
 230 1312 230 1312 273 1320 c 1,51,-1
 272 1320 l 1,52,53
 395 1344 395 1344 459 1401 c 1,54,-1
 458 1400 l 2,55,56
 467 1410 467 1410 480 1410 c 0,57,58
 494 1410 494 1410 500.5 1399 c 128,-1,59
 507 1388 507 1388 507 1369 c 1,60,-1
 412 1248 l 1,14,15
EndSplineSet
MultipleSubs2: "'fina' Terminal Forms in Arabic lookup 2 subtable" _.notdef_3 uni0653
MultipleSubs2: "'isol' Isolated Forms in Arabic lookup 0 subtable" _.notdef_2 uni0653
EndChar

StartChar: afii57411
Encoding: 1571 1571 35
AltUni2: 00fe83.ffffffff.0
Width: 226
GlyphClass: 2
Flags: W
LayerCount: 2
Fore
SplineSet
-17 871 m 1,0,-1
 134 1109 l 2,1,2
 139 1117 139 1117 146.5 1119.5 c 128,-1,3
 154 1122 154 1122 161 1120.5 c 128,-1,4
 168 1119 168 1119 173 1113.5 c 128,-1,5
 178 1108 178 1108 179 1099 c 2,6,-1
 236 250 l 1,7,-1
 85 12 l 2,8,9
 80 4 80 4 72.5 1.5 c 128,-1,10
 65 -1 65 -1 58 0.5 c 128,-1,11
 51 2 51 2 46 7.5 c 128,-1,12
 41 13 41 13 40 22 c 2,13,-1
 -17 871 l 1,0,-1
128 1159 m 2,14,15
 128 1159 128 1159 125 1160 c 1,16,17
 126 1160 126 1160 126.5 1159.5 c 128,-1,18
 127 1159 127 1159 128 1159 c 2,14,15
212 1381 m 2,19,20
 205 1367 205 1367 192 1355.5 c 128,-1,21
 179 1344 179 1344 164 1336 c 0,22,23
 159 1334 159 1334 155.5 1333 c 128,-1,24
 152 1332 152 1332 148 1328 c 1,25,26
 153 1325 153 1325 158 1323 c 128,-1,27
 163 1321 163 1321 169 1319 c 0,28,29
 177 1316 177 1316 187 1311.5 c 128,-1,30
 197 1307 197 1307 207 1302 c 1,31,32
 239 1279 239 1279 239 1244 c 0,33,34
 239 1235 239 1235 237.5 1225.5 c 128,-1,35
 236 1216 236 1216 231 1206 c 0,36,37
 208 1153 208 1153 159 1120 c 1,38,-1
 160 1121 l 1,39,40
 125 1094 125 1094 87 1085.5 c 128,-1,41
 49 1077 49 1077 10 1072 c 2,42,-1
 -17 1068 l 2,43,44
 -27 1067 -27 1067 -33 1072.5 c 128,-1,45
 -39 1078 -39 1078 -41 1086 c 128,-1,46
 -43 1094 -43 1094 -40 1102 c 128,-1,47
 -37 1110 -37 1110 -28 1114 c 2,48,-1
 9 1131 l 1,49,50
 31 1140 31 1140 54 1150 c 128,-1,51
 77 1160 77 1160 99 1171 c 1,52,53
 91 1176 91 1176 81 1181 c 128,-1,54
 71 1186 71 1186 65 1190 c 1,55,-1
 66 1190 l 1,56,57
 23 1212 23 1212 23 1254 c 0,58,59
 23 1293 23 1293 65 1346 c 1,60,-1
 64 1345 l 1,61,62
 97 1390 97 1390 123.5 1419 c 128,-1,63
 150 1448 150 1448 167 1461 c 0,64,65
 175 1467 175 1467 186.5 1473 c 128,-1,66
 198 1479 198 1479 214 1487 c 0,67,68
 222 1491 222 1491 229.5 1489.5 c 128,-1,69
 237 1488 237 1488 242 1483 c 128,-1,70
 247 1478 247 1478 248.5 1470.5 c 128,-1,71
 250 1463 250 1463 246 1455 c 2,72,-1
 212 1381 l 2,19,20
EndSplineSet
MultipleSubs2: "'fina' Terminal Forms in Arabic lookup 2 subtable" _.notdef_3 uni0654
MultipleSubs2: "'isol' Isolated Forms in Arabic lookup 0 subtable" _.notdef_2 uni0654
EndChar

StartChar: afii57412
Encoding: 1572 1572 36
AltUni2: 00fe85.ffffffff.0
Width: 1001
GlyphClass: 2
Flags: W
LayerCount: 2
Fore
SplineSet
466 16 m 1,0,1
 421 8 421 8 375 4 c 128,-1,2
 329 0 329 0 280 0 c 0,3,4
 270 0 270 0 259.5 0 c 128,-1,5
 249 0 249 0 238 1 c 0,6,7
 183 3 183 3 126.5 7 c 128,-1,8
 70 11 70 11 16 16 c 0,9,10
 -16 18 -16 18 -16 52 c 0,11,12
 -16 75 -16 75 3 88 c 1,13,14
 82 132 82 132 164.5 170 c 128,-1,15
 247 208 247 208 335 242 c 0,16,17
 422 275 422 275 507.5 309 c 128,-1,18
 593 343 593 343 679 378 c 0,19,20
 720 394 720 394 755 418.5 c 128,-1,21
 790 443 790 443 819 475 c 1,22,-1
 819 478 l 1,23,24
 818 479 818 479 818 482 c 0,25,26
 818 484 818 484 817.5 486.5 c 128,-1,27
 817 489 817 489 817 493 c 1,28,-1
 818 490 l 2,29,30
 817 495 817 495 815.5 499 c 128,-1,31
 814 503 814 503 812 507 c 1,32,33
 797 504 797 504 782.5 503 c 128,-1,34
 768 502 768 502 752 502 c 0,35,36
 744 502 744 502 735.5 502.5 c 128,-1,37
 727 503 727 503 721 504 c 0,38,39
 655 509 655 509 624 546 c 1,40,-1
 624 545 l 1,41,42
 610 561 610 561 603 578.5 c 128,-1,43
 596 596 596 596 596 617 c 0,44,45
 596 653 596 653 617 694 c 0,46,47
 634 726 634 726 649 758 c 128,-1,48
 664 790 664 790 679 824 c 0,49,50
 710 897 710 897 760 953 c 1,51,52
 784 978 784 978 814 978 c 0,53,54
 822 978 822 978 829 977 c 128,-1,55
 836 976 836 976 844 972 c 1,56,-1
 843 972 l 1,57,58
 862 964 862 964 877 955.5 c 128,-1,59
 892 947 892 947 903 936 c 0,60,61
 1002 835 1002 835 1002 695 c 2,62,-1
 1002 681 l 1,63,64
 1000 609 1000 609 979.5 537 c 128,-1,65
 959 465 959 465 924 396 c 1,66,67
 888 330 888 330 839 267.5 c 128,-1,68
 790 205 790 205 729 152 c 0,69,70
 607 45 607 45 467 16 c 1,71,-1
 466 16 l 1,0,1
851 1159 m 2,72,73
 851 1159 851 1159 848 1160 c 1,74,75
 849 1160 849 1160 849.5 1159.5 c 128,-1,76
 850 1159 850 1159 851 1159 c 2,72,73
935 1381 m 1,77,78
 927 1367 927 1367 914.5 1355.5 c 128,-1,79
 902 1344 902 1344 887 1336 c 0,80,81
 882 1334 882 1334 878 1333 c 128,-1,82
 874 1332 874 1332 870 1328 c 1,83,84
 875 1325 875 1325 880.5 1323 c 128,-1,85
 886 1321 886 1321 892 1319 c 0,86,87
 900 1316 900 1316 910 1311.5 c 128,-1,88
 920 1307 920 1307 929 1302 c 1,89,90
 962 1279 962 1279 962 1244 c 0,91,92
 962 1235 962 1235 960 1225.5 c 128,-1,93
 958 1216 958 1216 953 1206 c 0,94,95
 931 1153 931 1153 882 1120 c 1,96,-1
 883 1121 l 1,97,98
 848 1094 848 1094 809.5 1085.5 c 128,-1,99
 771 1077 771 1077 733 1072 c 2,100,-1
 706 1068 l 2,101,102
 696 1067 696 1067 689.5 1072.5 c 128,-1,103
 683 1078 683 1078 681 1086 c 128,-1,104
 679 1094 679 1094 682.5 1102 c 128,-1,105
 686 1110 686 1110 695 1114 c 2,106,-1
 732 1131 l 1,107,-1
 731 1131 l 1,108,109
 778 1150 778 1150 822 1171 c 1,110,111
 813 1176 813 1176 803.5 1181 c 128,-1,112
 794 1186 794 1186 787 1190 c 1,113,-1
 788 1190 l 1,114,115
 746 1212 746 1212 746 1254 c 0,116,117
 746 1295 746 1295 787 1346 c 1,118,-1
 786 1345 l 1,119,120
 854 1435 854 1435 890 1461 c 0,121,122
 897 1467 897 1467 909 1473 c 128,-1,123
 921 1479 921 1479 937 1487 c 0,124,125
 945 1491 945 1491 952.5 1489.5 c 128,-1,126
 960 1488 960 1488 965 1483 c 128,-1,127
 970 1478 970 1478 971.5 1470.5 c 128,-1,128
 973 1463 973 1463 969 1455 c 2,129,-1
 935 1381 l 1,77,78
EndSplineSet
MultipleSubs2: "'fina' Terminal Forms in Arabic lookup 2 subtable" __.notdef_58 uni0654
MultipleSubs2: "'isol' Isolated Forms in Arabic lookup 0 subtable" __.notdef_57 uni0654
EndChar

StartChar: afii57413
Encoding: 1573 1573 37
AltUni2: 00fe87.ffffffff.0
Width: 226
GlyphClass: 2
Flags: W
LayerCount: 2
Fore
SplineSet
-16 871 m 1,0,-1
 134 1109 l 2,1,2
 139 1117 139 1117 146.5 1119.5 c 128,-1,3
 154 1122 154 1122 161 1120.5 c 128,-1,4
 168 1119 168 1119 173 1113.5 c 128,-1,5
 178 1108 178 1108 179 1099 c 2,6,-1
 236 250 l 1,7,-1
 85 12 l 2,8,9
 80 4 80 4 73 1.5 c 128,-1,10
 66 -1 66 -1 59 0.5 c 128,-1,11
 52 2 52 2 47 7.5 c 128,-1,12
 42 13 42 13 41 22 c 2,13,-1
 -16 871 l 1,0,-1
145 -216 m 1,14,15
 145 -216 145 -216 142 -215 c 2,16,-1
 145 -216 l 1,14,15
229 6 m 1,17,18
 221 -8 221 -8 208.5 -19.5 c 128,-1,19
 196 -31 196 -31 181 -39 c 0,20,21
 176 -41 176 -41 172 -42.5 c 128,-1,22
 168 -44 168 -44 164 -47 c 1,23,24
 169 -50 169 -50 174.5 -52 c 128,-1,25
 180 -54 180 -54 186 -56 c 0,26,27
 194 -59 194 -59 204 -63.5 c 128,-1,28
 214 -68 214 -68 223 -73 c 1,29,30
 256 -96 256 -96 256 -131 c 0,31,32
 256 -140 256 -140 254 -149.5 c 128,-1,33
 252 -159 252 -159 247 -169 c 0,34,35
 225 -222 225 -222 176 -255 c 1,36,-1
 177 -254 l 1,37,38
 142 -281 142 -281 103.5 -289.5 c 128,-1,39
 65 -298 65 -298 27 -303 c 2,40,-1
 0 -307 l 2,41,42
 -10 -308 -10 -308 -16.5 -302.5 c 128,-1,43
 -23 -297 -23 -297 -25 -289 c 128,-1,44
 -27 -281 -27 -281 -23.5 -273 c 128,-1,45
 -20 -265 -20 -265 -11 -261 c 2,46,-1
 26 -244 l 1,47,-1
 25 -244 l 1,48,49
 48 -234 48 -234 71 -224 c 128,-1,50
 94 -214 94 -214 116 -203 c 1,51,52
 107 -198 107 -198 97.5 -193.5 c 128,-1,53
 88 -189 88 -189 81 -185 c 1,54,-1
 82 -186 l 1,55,56
 40 -163 40 -163 40 -121 c 0,57,58
 40 -80 40 -80 81 -29 c 1,59,-1
 80 -30 l 1,60,61
 148 60 148 60 184 86 c 0,62,63
 191 92 191 92 203 98 c 128,-1,64
 215 104 215 104 231 112 c 0,65,66
 247 119 247 119 258.5 107.5 c 128,-1,67
 270 96 270 96 263 80 c 2,68,-1
 229 6 l 1,17,18
EndSplineSet
MultipleSubs2: "'fina' Terminal Forms in Arabic lookup 2 subtable" _.notdef_3 uni0655
MultipleSubs2: "'isol' Isolated Forms in Arabic lookup 0 subtable" _.notdef_2 uni0655
EndChar

StartChar: afii57414
Encoding: 1574 1574 38
AltUni2: 00fe89.ffffffff.0
Width: 1261
GlyphClass: 2
Flags: W
LayerCount: 2
Fore
SplineSet
154 49 m 0,0,1
 14 126 14 126 -5 264 c 1,2,-1
 -5 263 l 1,3,4
 -11 302 -11 302 -11 346 c 0,5,6
 -11 391 -11 391 -3.5 439.5 c 128,-1,7
 4 488 4 488 17 534 c 0,8,9
 37 600 37 600 65.5 670 c 128,-1,10
 94 740 94 740 129 800 c 0,11,12
 164 862 164 862 196 913.5 c 128,-1,13
 228 965 228 965 255 1002 c 1,14,15
 266 1013 266 1013 280 1013 c 0,16,17
 282 1013 282 1013 286 1012.5 c 128,-1,18
 290 1012 290 1012 296 1009 c 2,19,-1
 293 1011 l 1,20,21
 313 1004 313 1004 313 982 c 0,22,23
 313 977 313 977 312 972.5 c 128,-1,24
 311 968 311 968 309 963 c 0,25,26
 295 933 295 933 276.5 897 c 128,-1,27
 258 861 258 861 235 819 c 0,28,29
 213 780 213 780 196 739.5 c 128,-1,30
 179 699 179 699 165 657 c 1,31,-1
 165 658 l 1,32,33
 156 627 156 627 151 596.5 c 128,-1,34
 146 566 146 566 146 535 c 0,35,36
 146 526 146 526 146.5 517.5 c 128,-1,37
 147 509 147 509 148 500 c 0,38,39
 154 429 154 429 222 376 c 0,40,41
 252 352 252 352 295 338.5 c 128,-1,42
 338 325 338 325 392 321 c 0,43,44
 407 320 407 320 424 319.5 c 128,-1,45
 441 319 441 319 455 319 c 0,46,47
 493 319 493 319 531.5 322.5 c 128,-1,48
 570 326 570 326 606 333 c 0,49,50
 797 368 797 368 961 459 c 1,51,52
 928 466 928 466 897.5 474.5 c 128,-1,53
 867 483 867 483 838 496 c 0,54,55
 745 537 745 537 719 627 c 0,56,57
 713 649 713 649 713 674 c 0,58,59
 713 756 713 756 785 885 c 0,60,61
 876 1046 876 1046 940 1107 c 1,62,-1
 939 1107 l 1,63,64
 953 1121 953 1121 970 1135.5 c 128,-1,65
 987 1150 987 1150 1011 1168 c 1,66,-1
 1010 1168 l 1,67,68
 1055 1204 1055 1204 1119 1209 c 0,69,70
 1129 1209 1129 1209 1144 1205 c 1,71,-1
 1143 1206 l 1,72,73
 1159 1204 1159 1204 1166 1194.5 c 128,-1,74
 1173 1185 1173 1185 1173 1172 c 0,75,76
 1173 1168 1173 1168 1172.5 1164.5 c 128,-1,77
 1172 1161 1172 1161 1168 1154 c 1,78,-1
 1169 1154 l 1,79,80
 1159 1133 1159 1133 1150 1112.5 c 128,-1,81
 1141 1092 1141 1092 1133 1070 c 0,82,83
 1119 1035 1119 1035 1105 1002.5 c 128,-1,84
 1091 970 1091 970 1073 940 c 0,85,86
 1069 934 1069 934 1061 931 c 128,-1,87
 1053 928 1053 928 1046 930 c 0,88,89
 1040 932 1040 932 1034.5 932 c 128,-1,90
 1029 932 1029 932 1022 932 c 0,91,92
 999 932 999 932 972 923 c 1,93,-1
 973 924 l 1,94,95
 951 916 951 916 935.5 905.5 c 128,-1,96
 920 895 920 895 911 881 c 1,97,-1
 911 882 l 1,98,99
 904 872 904 872 904 863 c 0,100,101
 904 858 904 858 907 851 c 128,-1,102
 910 844 910 844 915 836 c 0,103,104
 927 820 927 820 959.5 804 c 128,-1,105
 992 788 992 788 1047 773 c 0,106,107
 1084 762 1084 762 1129 756 c 1,108,-1
 1128 756 l 1,109,110
 1154 752 1154 752 1175 741.5 c 128,-1,111
 1196 731 1196 731 1213 714 c 0,112,113
 1251 673 1251 673 1251 618 c 0,114,115
 1251 558 1251 558 1201 479 c 1,116,117
 1169 431 1169 431 1121 379 c 128,-1,118
 1073 327 1073 327 1010 275 c 0,119,120
 947 224 947 224 879 180 c 128,-1,121
 811 136 811 136 736 100 c 1,122,123
 662 63 662 63 585 39.5 c 128,-1,124
 508 16 508 16 435 5 c 0,125,126
 397 -1 397 -1 358 -1 c 0,127,128
 244 -1 244 -1 154 49 c 0,0,1
406 1118 m 2,129,130
 406 1118 406 1118 403 1119 c 1,131,132
 404 1119 404 1119 404.5 1118.5 c 128,-1,133
 405 1118 405 1118 406 1118 c 2,129,130
490 1340 m 1,134,135
 482 1326 482 1326 469.5 1314.5 c 128,-1,136
 457 1303 457 1303 442 1296 c 0,137,138
 437 1294 437 1294 433 1292.5 c 128,-1,139
 429 1291 429 1291 425 1287 c 1,140,141
 430 1284 430 1284 435.5 1282 c 128,-1,142
 441 1280 441 1280 446 1278 c 0,143,144
 454 1276 454 1276 464.5 1271.5 c 128,-1,145
 475 1267 475 1267 484 1261 c 0,146,147
 517 1238 517 1238 517 1203 c 0,148,149
 517 1194 517 1194 515 1185 c 128,-1,150
 513 1176 513 1176 508 1165 c 0,151,152
 486 1114 486 1114 437 1079 c 1,153,-1
 438 1080 l 1,154,155
 402 1054 402 1054 364 1045 c 128,-1,156
 326 1036 326 1036 288 1031 c 2,157,-1
 261 1027 l 2,158,159
 251 1026 251 1026 244.5 1031.5 c 128,-1,160
 238 1037 238 1037 236 1045.5 c 128,-1,161
 234 1054 234 1054 237 1062 c 128,-1,162
 240 1070 240 1070 249 1074 c 2,163,-1
 287 1090 l 1,164,-1
 286 1090 l 1,165,166
 309 1100 309 1100 332 1110 c 128,-1,167
 355 1120 355 1120 377 1131 c 1,168,169
 368 1135 368 1135 358.5 1140 c 128,-1,170
 349 1145 349 1145 342 1150 c 1,171,-1
 343 1149 l 1,172,173
 301 1171 301 1171 301 1214 c 0,174,175
 301 1255 301 1255 342 1305 c 1,176,-1
 341 1305 l 1,177,178
 375 1349 375 1349 401 1378 c 128,-1,179
 427 1407 427 1407 445 1420 c 0,180,181
 452 1426 452 1426 464 1432.5 c 128,-1,182
 476 1439 476 1439 492 1447 c 0,183,184
 508 1454 508 1454 519.5 1442.5 c 128,-1,185
 531 1431 531 1431 524 1415 c 2,186,-1
 490 1340 l 1,134,135
EndSplineSet
MultipleSubs2: "'medi' Medial Forms in Arabic lookup 3 subtable" _.notdef_7 uni0654
MultipleSubs2: "'fina' Terminal Forms in Arabic lookup 2 subtable" __.notdef_60 uni0654
MultipleSubs2: "'init' Initial Forms in Arabic lookup 1 subtable" _.notdef_6 uni0654
MultipleSubs2: "'isol' Isolated Forms in Arabic lookup 0 subtable" __.notdef_59 uni0654
EndChar

StartChar: afii57415
Encoding: 1575 1575 39
AltUni2: 00fe8d.ffffffff.0
Width: 226
GlyphClass: 2
Flags: W
LayerCount: 2
Fore
SplineSet
-16 871 m 1,0,-1
 134 1109 l 2,1,2
 139 1117 139 1117 146.5 1119.5 c 128,-1,3
 154 1122 154 1122 161 1120.5 c 128,-1,4
 168 1119 168 1119 173 1113.5 c 128,-1,5
 178 1108 178 1108 179 1099 c 2,6,-1
 236 250 l 1,7,-1
 85 12 l 2,8,9
 80 4 80 4 72.5 1.5 c 128,-1,10
 65 -1 65 -1 58.5 0.5 c 128,-1,11
 52 2 52 2 46.5 7.5 c 128,-1,12
 41 13 41 13 41 22 c 2,13,-1
 -16 871 l 1,0,-1
EndSplineSet
MultipleSubs2: "'fina' Terminal Forms in Arabic lookup 2 subtable" _.notdef_3
MultipleSubs2: "'isol' Isolated Forms in Arabic lookup 0 subtable" _.notdef_2
EndChar

StartChar: afii57416
Encoding: 1576 1576 40
AltUni2: 00fe8f.ffffffff.0
Width: 1439
GlyphClass: 2
Flags: W
LayerCount: 2
Fore
SplineSet
1269 439 m 1,0,1
 1204 302 1204 302 1020 188 c 0,2,3
 931 134 931 134 834 94.5 c 128,-1,4
 737 55 737 55 638 31 c 0,5,6
 578 17 578 17 520 9.5 c 128,-1,7
 462 2 462 2 408 2 c 0,8,9
 328 2 328 2 255 16 c 1,10,11
 163 36 163 36 99 85.5 c 128,-1,12
 35 135 35 135 5 219 c 0,13,14
 -15 276 -15 276 -15 337 c 0,15,16
 -15 379 -15 379 -4 424 c 128,-1,17
 7 469 7 469 27 517 c 1,18,19
 62 594 62 594 96.5 660.5 c 128,-1,20
 131 727 131 727 169 786 c 1,21,22
 190 814 190 814 215 814 c 0,23,24
 225 814 225 814 231 812 c 0,25,26
 260 799 260 799 260 770 c 0,27,28
 260 758 260 758 251 737 c 1,29,30
 173 591 173 591 173 499 c 0,31,32
 173 484 173 484 176 469 c 0,33,34
 191 377 191 377 269 335 c 256,35,36
 347 293 347 293 469 293 c 0,37,38
 473 293 473 293 478 294 c 0,39,40
 619 296 619 296 755 330 c 0,41,42
 824 347 824 347 890 370 c 128,-1,43
 956 393 956 393 1016 422 c 2,44,-1
 1125 475 l 1,45,46
 1123 508 1123 508 1108 564 c 1,47,48
 1097 599 1097 599 1087 632 c 128,-1,49
 1077 665 1077 665 1066 694 c 0,50,51
 1065 698 1065 698 1066 704.5 c 128,-1,52
 1067 711 1067 711 1069 715 c 2,53,-1
 1221 939 l 2,54,55
 1231 953 1231 953 1245.5 951 c 128,-1,56
 1260 949 1260 949 1265 933 c 2,57,-1
 1312 788 l 1,58,59
 1329 732 1329 732 1329 674 c 0,60,61
 1329 563 1329 563 1269 439 c 1,0,1
807 -156 m 2,62,63
 813 -162 813 -162 814 -171 c 128,-1,64
 815 -180 815 -180 809 -187 c 0,65,66
 768 -240 768 -240 727.5 -290.5 c 128,-1,67
 687 -341 687 -341 646 -391 c 0,68,69
 639 -399 639 -399 629 -400 c 128,-1,70
 619 -401 619 -401 611 -393 c 2,71,-1
 472 -263 l 2,72,73
 457 -248 457 -248 469 -231 c 1,74,75
 492 -202 492 -202 515 -173.5 c 128,-1,76
 538 -145 538 -145 561 -116 c 0,77,78
 579 -94 579 -94 596.5 -72.5 c 128,-1,79
 614 -51 614 -51 632 -28 c 0,80,81
 638 -19 638 -19 648.5 -18 c 128,-1,82
 659 -17 659 -17 667 -25 c 2,83,-1
 807 -156 l 2,62,63
EndSplineSet
MultipleSubs2: "'medi' Medial Forms in Arabic lookup 3 subtable" _.notdef_7 noqta_B
MultipleSubs2: "'fina' Terminal Forms in Arabic lookup 2 subtable" _.notdef_5 noqta_B
MultipleSubs2: "'init' Initial Forms in Arabic lookup 1 subtable" _.notdef_6 noqta_B
MultipleSubs2: "'isol' Isolated Forms in Arabic lookup 0 subtable" _.notdef_4 noqta_B
EndChar

StartChar: afii57417
Encoding: 1577 1577 41
AltUni2: 00fe93.ffffffff.0
Width: 506
GlyphClass: 2
Flags: W
LayerCount: 2
Fore
SplineSet
114 347 m 0,0,1
 114 348 114 348 115 349 c 1,2,-1
 115 347 l 1,3,4
 114 345 114 345 114 347 c 0,0,1
265 531 m 0,5,6
 248 542 248 542 237 542 c 0,7,8
 204 542 204 542 173 477 c 1,9,10
 148 427 148 427 133.5 394 c 128,-1,11
 119 361 119 361 115 349 c 1,12,13
 119 349 119 349 128 345 c 1,14,-1
 127 345 l 1,15,16
 155 331 155 331 187 331 c 0,17,18
 198 331 198 331 209 333 c 128,-1,19
 220 335 220 335 231 338 c 0,20,21
 293 355 293 355 330 379 c 1,22,-1
 329 378 l 2,23,24
 330 379 330 379 330 383 c 0,25,26
 330 391 330 391 324.5 408.5 c 128,-1,27
 319 426 319 426 311 446 c 0,28,29
 279 522 279 522 265 531 c 0,5,6
457 353 m 0,30,31
 444 294 444 294 425 243 c 128,-1,32
 406 192 406 192 380 145 c 0,33,34
 325 46 325 46 188 11 c 0,35,36
 143 -1 143 -1 109 -1 c 0,37,38
 -17 -1 -17 -1 -17 136 c 0,39,40
 -17 139 -17 139 -17.5 141 c 128,-1,41
 -18 143 -18 143 -16 147 c 1,42,43
 -15 225 -15 225 -0.5 304.5 c 128,-1,44
 14 384 14 384 43 471 c 0,45,46
 128 722 128 722 216 804 c 0,47,48
 277 862 277 862 330 862 c 0,49,50
 359 862 359 862 385 845 c 1,51,52
 450 799 450 799 473 659 c 0,53,54
 477 635 477 635 479 609 c 128,-1,55
 481 583 481 583 481 555 c 0,56,57
 481 462 481 462 457 353 c 0,30,31
461 954 m 2,58,59
 459 950 459 950 453.5 945.5 c 128,-1,60
 448 941 448 941 445 940 c 2,61,-1
 241 903 l 1,62,-1
 65 870 l 2,63,64
 48 867 48 867 39.5 878.5 c 128,-1,65
 31 890 31 890 39 904 c 2,66,-1
 157 1140 l 2,67,68
 159 1144 159 1144 164 1148.5 c 128,-1,69
 169 1153 169 1153 174 1154 c 0,70,71
 278 1172 278 1172 372 1189.5 c 128,-1,72
 466 1207 466 1207 554 1224 c 0,73,74
 570 1227 570 1227 578.5 1215.5 c 128,-1,75
 587 1204 587 1204 580 1190 c 2,76,-1
 461 954 l 2,58,59
EndSplineSet
MultipleSubs2: "'fina' Terminal Forms in Arabic lookup 2 subtable" __.notdef_53 noqtatan_A
MultipleSubs2: "'isol' Isolated Forms in Arabic lookup 0 subtable" __.notdef_52 noqtatan_A
EndChar

StartChar: afii57418
Encoding: 1578 1578 42
AltUni2: 00fe95.ffffffff.0
Width: 1439
GlyphClass: 2
Flags: W
LayerCount: 2
Fore
SplineSet
1269 439 m 1,0,1
 1204 302 1204 302 1020 188 c 0,2,3
 931 134 931 134 834 94.5 c 128,-1,4
 737 55 737 55 638 31 c 0,5,6
 578 17 578 17 520 9.5 c 128,-1,7
 462 2 462 2 408 2 c 0,8,9
 328 2 328 2 255 16 c 1,10,11
 163 36 163 36 99 85.5 c 128,-1,12
 35 135 35 135 5 219 c 0,13,14
 -15 276 -15 276 -15 337 c 0,15,16
 -15 379 -15 379 -4 424 c 128,-1,17
 7 469 7 469 27 517 c 1,18,19
 62 594 62 594 96.5 660.5 c 128,-1,20
 131 727 131 727 169 786 c 1,21,22
 190 814 190 814 215 814 c 0,23,24
 225 814 225 814 231 812 c 0,25,26
 260 799 260 799 260 770 c 0,27,28
 260 758 260 758 251 737 c 1,29,30
 173 591 173 591 173 499 c 0,31,32
 173 484 173 484 176 469 c 0,33,34
 191 377 191 377 269 335 c 256,35,36
 347 293 347 293 469 293 c 0,37,38
 473 293 473 293 478 294 c 0,39,40
 619 296 619 296 755 330 c 0,41,42
 824 347 824 347 890 370 c 128,-1,43
 956 393 956 393 1016 422 c 2,44,-1
 1125 475 l 1,45,46
 1123 508 1123 508 1108 564 c 1,47,48
 1097 599 1097 599 1087 632 c 128,-1,49
 1077 665 1077 665 1066 694 c 0,50,51
 1065 698 1065 698 1066 704.5 c 128,-1,52
 1067 711 1067 711 1069 715 c 2,53,-1
 1221 939 l 2,54,55
 1231 953 1231 953 1245.5 951 c 128,-1,56
 1260 949 1260 949 1265 933 c 2,57,-1
 1312 788 l 1,58,59
 1329 732 1329 732 1329 674 c 0,60,61
 1329 563 1329 563 1269 439 c 1,0,1
830 796 m 2,62,63
 828 792 828 792 822.5 788 c 128,-1,64
 817 784 817 784 813 783 c 2,65,-1
 609 745 l 1,66,-1
 434 712 l 2,67,68
 417 709 417 709 408.5 721 c 128,-1,69
 400 733 400 733 407 747 c 2,70,-1
 525 983 l 2,71,72
 527 987 527 987 532.5 991 c 128,-1,73
 538 995 538 995 543 996 c 0,74,75
 647 1014 647 1014 741 1032 c 128,-1,76
 835 1050 835 1050 922 1067 c 0,77,78
 939 1070 939 1070 947.5 1058 c 128,-1,79
 956 1046 956 1046 949 1032 c 2,80,-1
 830 796 l 2,62,63
EndSplineSet
MultipleSubs2: "'medi' Medial Forms in Arabic lookup 3 subtable" _.notdef_7 noqtatan_A
MultipleSubs2: "'fina' Terminal Forms in Arabic lookup 2 subtable" _.notdef_5 noqtatan_A
MultipleSubs2: "'init' Initial Forms in Arabic lookup 1 subtable" _.notdef_6 noqtatan_A
MultipleSubs2: "'isol' Isolated Forms in Arabic lookup 0 subtable" _.notdef_4 noqtatan_A
EndChar

StartChar: afii57419
Encoding: 1579 1579 43
AltUni2: 00fe99.ffffffff.0
Width: 1439
GlyphClass: 2
Flags: W
LayerCount: 2
Fore
SplineSet
1269 439 m 1,0,1
 1204 302 1204 302 1020 188 c 0,2,3
 931 134 931 134 834 94.5 c 128,-1,4
 737 55 737 55 638 31 c 0,5,6
 578 17 578 17 520 9.5 c 128,-1,7
 462 2 462 2 408 2 c 0,8,9
 328 2 328 2 255 16 c 1,10,11
 163 36 163 36 99 85.5 c 128,-1,12
 35 135 35 135 5 219 c 0,13,14
 -15 276 -15 276 -15 337 c 0,15,16
 -15 379 -15 379 -4 424 c 128,-1,17
 7 469 7 469 27 517 c 1,18,19
 62 594 62 594 96.5 660.5 c 128,-1,20
 131 727 131 727 169 786 c 1,21,22
 190 814 190 814 215 814 c 0,23,24
 225 814 225 814 231 812 c 0,25,26
 260 799 260 799 260 770 c 0,27,28
 260 758 260 758 251 737 c 1,29,30
 173 591 173 591 173 499 c 0,31,32
 173 484 173 484 176 469 c 0,33,34
 191 377 191 377 269 335 c 256,35,36
 347 293 347 293 469 293 c 0,37,38
 473 293 473 293 478 294 c 0,39,40
 619 296 619 296 755 330 c 0,41,42
 824 347 824 347 890 370 c 128,-1,43
 956 393 956 393 1016 422 c 2,44,-1
 1125 475 l 1,45,46
 1123 508 1123 508 1108 564 c 1,47,48
 1097 599 1097 599 1087 632 c 128,-1,49
 1077 665 1077 665 1066 694 c 0,50,51
 1065 698 1065 698 1066 704.5 c 128,-1,52
 1067 711 1067 711 1069 715 c 2,53,-1
 1221 939 l 2,54,55
 1231 953 1231 953 1245.5 951 c 128,-1,56
 1260 949 1260 949 1265 933 c 2,57,-1
 1312 788 l 1,58,59
 1329 732 1329 732 1329 674 c 0,60,61
 1329 563 1329 563 1269 439 c 1,0,1
989 1116 m 1,62,63
 960 1055 960 1055 921 997.5 c 128,-1,64
 882 940 882 940 840 886 c 0,65,66
 833 878 833 878 826 873.5 c 128,-1,67
 819 869 819 869 808 869 c 0,68,69
 796 869 796 869 786.5 878 c 128,-1,70
 777 887 777 887 770 903 c 0,71,72
 753 943 753 943 735 966.5 c 128,-1,73
 717 990 717 990 700 990 c 2,74,-1
 695 990 l 1,75,76
 674 987 674 987 651 972.5 c 128,-1,77
 628 958 628 958 607 933 c 1,78,79
 582 906 582 906 560.5 874 c 128,-1,80
 539 842 539 842 519 807 c 0,81,82
 498 769 498 769 483 743.5 c 128,-1,83
 468 718 468 718 458 704 c 0,84,85
 452 697 452 697 444.5 695 c 128,-1,86
 437 693 437 693 430.5 695.5 c 128,-1,87
 424 698 424 698 419 704 c 128,-1,88
 414 710 414 710 414 719 c 2,89,-1
 413 805 l 1,90,-1
 415 813 l 1,91,92
 428 838 428 838 448 875.5 c 128,-1,93
 468 913 468 913 493 957 c 0,94,95
 517 998 517 998 547 1042 c 128,-1,96
 577 1086 577 1086 608 1128 c 1,97,98
 639 1168 639 1168 673 1201.5 c 128,-1,99
 707 1235 707 1235 743 1261 c 1,100,101
 778 1284 778 1284 812 1284 c 0,102,103
 862 1284 862 1284 914 1238 c 1,104,105
 958 1196 958 1196 988 1138 c 1,106,-1
 989 1116 l 1,62,63
EndSplineSet
MultipleSubs2: "'medi' Medial Forms in Arabic lookup 3 subtable" _.notdef_7 salasneqat_A
MultipleSubs2: "'fina' Terminal Forms in Arabic lookup 2 subtable" _.notdef_5 salasneqat_A
MultipleSubs2: "'init' Initial Forms in Arabic lookup 1 subtable" _.notdef_6 salasneqat_A
MultipleSubs2: "'isol' Isolated Forms in Arabic lookup 0 subtable" _.notdef_4 salasneqat_A
EndChar

StartChar: afii57420
Encoding: 1580 1580 44
AltUni2: 00fe9d.ffffffff.0
Width: 940
GlyphClass: 2
Flags: W
LayerCount: 2
Fore
SplineSet
753 804 m 1,0,-1
 747 817 l 1,1,-1
 760 829 l 1,2,-1
 753 804 l 1,0,-1
642 737 m 1,3,4
 673 757 673 757 699 777 c 128,-1,5
 725 797 725 797 747 817 c 1,6,7
 722 862 722 862 643 862 c 0,8,9
 634 862 634 862 624.5 861.5 c 128,-1,10
 615 861 615 861 604 860 c 0,11,12
 546 853 546 853 505 844 c 128,-1,13
 464 835 464 835 441 823 c 1,14,15
 451 800 451 800 462 780 c 128,-1,16
 473 760 473 760 488 740 c 1,17,-1
 488 741 l 1,18,19
 501 723 501 723 513 703 c 128,-1,20
 525 683 525 683 536 663 c 1,21,-1
 642 737 l 1,3,4
1312 -358 m 1,22,23
 1188 -507 1188 -507 983 -602 c 1,24,-1
 984 -602 l 1,25,26
 883 -650 883 -650 782.5 -677 c 128,-1,27
 682 -704 682 -704 578 -710 c 0,28,29
 563 -711 563 -711 548 -711.5 c 128,-1,30
 533 -712 533 -712 519 -712 c 0,31,32
 435 -712 435 -712 357.5 -694.5 c 128,-1,33
 280 -677 280 -677 209 -643 c 1,34,35
 126 -601 126 -601 72.5 -529 c 128,-1,36
 19 -457 19 -457 -3 -356 c 0,37,38
 -8 -329 -8 -329 -11 -301 c 128,-1,39
 -14 -273 -14 -273 -14 -243 c 0,40,41
 -14 -71 -14 -71 87 131 c 1,42,43
 211 382 211 382 338 506 c 1,44,45
 263 601 263 601 263 723 c 0,46,47
 263 745 263 745 265.5 767.5 c 128,-1,48
 268 790 268 790 274 816 c 1,49,-1
 273 815 l 1,50,51
 310 1005 310 1005 417 1082 c 1,52,53
 487 1131 487 1131 626 1154 c 0,54,55
 649 1158 649 1158 671.5 1159.5 c 128,-1,56
 694 1161 694 1161 717 1161 c 0,57,58
 800 1161 800 1161 868 1133 c 1,59,60
 946 1099 946 1099 946 1012 c 0,61,62
 946 967 946 967 925 910 c 1,63,64
 899 833 899 833 875 779 c 128,-1,65
 851 725 851 725 829 695 c 0,66,67
 781 629 781 629 724 575 c 128,-1,68
 667 521 667 521 612 473 c 1,69,-1
 599 460 l 1,70,71
 585 449 585 449 566 432 c 128,-1,72
 547 415 547 415 523 393 c 2,73,-1
 461 336 l 1,74,-1
 461 337 l 1,75,76
 413 294 413 294 368 247 c 128,-1,77
 323 200 323 200 280 149 c 0,78,79
 238 99 238 99 205.5 49.5 c 128,-1,80
 173 0 173 0 150 -50 c 0,81,82
 131 -89 131 -89 131 -124 c 0,83,84
 131 -142 131 -142 138 -158.5 c 128,-1,85
 145 -175 145 -175 157 -190 c 1,86,87
 255 -300 255 -300 387 -345 c 0,88,89
 523 -392 523 -392 675 -397 c 0,90,91
 688 -398 688 -398 700.5 -398 c 128,-1,92
 713 -398 713 -398 726 -398 c 0,93,94
 849 -398 849 -398 978 -377 c 0,95,96
 1059 -363 1059 -363 1129 -349 c 128,-1,97
 1199 -335 1199 -335 1261 -319 c 1,98,99
 1280 -313 1280 -313 1291 -313 c 0,100,101
 1307 -313 1307 -313 1313 -321.5 c 128,-1,102
 1319 -330 1319 -330 1319 -339 c 0,103,104
 1319 -344 1319 -344 1318 -349 c 128,-1,105
 1317 -354 1317 -354 1311 -359 c 2,106,-1
 1312 -358 l 1,22,23
895 151 m 2,107,108
 902 144 902 144 903 135.5 c 128,-1,109
 904 127 904 127 898 119 c 0,110,111
 857 66 857 66 816.5 16 c 128,-1,112
 776 -34 776 -34 735 -85 c 0,113,114
 728 -93 728 -93 718 -94 c 128,-1,115
 708 -95 708 -95 700 -87 c 2,116,-1
 561 43 l 2,117,118
 554 50 554 50 553 59 c 128,-1,119
 552 68 552 68 558 75 c 0,120,121
 581 104 581 104 604 133 c 128,-1,122
 627 162 627 162 650 190 c 0,123,124
 684 232 684 232 720 278 c 0,125,126
 727 287 727 287 737.5 288 c 128,-1,127
 748 289 748 289 756 281 c 2,128,-1
 895 151 l 2,107,108
EndSplineSet
MultipleSubs2: "'medi' Medial Forms in Arabic lookup 3 subtable" _.notdef_11 noqta_B
MultipleSubs2: "'fina' Terminal Forms in Arabic lookup 2 subtable" _.notdef_9 noqta_B
MultipleSubs2: "'init' Initial Forms in Arabic lookup 1 subtable" _.notdef_10 noqta_B
MultipleSubs2: "'isol' Isolated Forms in Arabic lookup 0 subtable" _.notdef_8 noqta_B
EndChar

StartChar: afii57421
Encoding: 1581 1581 45
AltUni2: 00fea1.ffffffff.0
Width: 940
GlyphClass: 2
Flags: W
LayerCount: 2
Fore
SplineSet
753 804 m 1,0,-1
 747 817 l 1,1,-1
 760 829 l 1,2,-1
 753 804 l 1,0,-1
642 737 m 1,3,4
 673 757 673 757 699 777 c 128,-1,5
 725 797 725 797 747 817 c 1,6,7
 722 862 722 862 643 862 c 0,8,9
 634 862 634 862 624.5 861.5 c 128,-1,10
 615 861 615 861 604 860 c 0,11,12
 546 853 546 853 505 844 c 128,-1,13
 464 835 464 835 441 823 c 1,14,15
 451 800 451 800 462 780 c 128,-1,16
 473 760 473 760 488 740 c 1,17,-1
 488 741 l 1,18,19
 501 723 501 723 513 703 c 128,-1,20
 525 683 525 683 536 663 c 1,21,-1
 642 737 l 1,3,4
1312 -358 m 1,22,23
 1188 -507 1188 -507 983 -602 c 1,24,-1
 984 -602 l 1,25,26
 883 -650 883 -650 782.5 -677 c 128,-1,27
 682 -704 682 -704 578 -710 c 0,28,29
 563 -711 563 -711 548 -711.5 c 128,-1,30
 533 -712 533 -712 519 -712 c 0,31,32
 435 -712 435 -712 357.5 -694.5 c 128,-1,33
 280 -677 280 -677 209 -643 c 1,34,35
 126 -601 126 -601 72.5 -529 c 128,-1,36
 19 -457 19 -457 -3 -356 c 0,37,38
 -8 -329 -8 -329 -11 -301 c 128,-1,39
 -14 -273 -14 -273 -14 -243 c 0,40,41
 -14 -71 -14 -71 87 131 c 1,42,43
 211 382 211 382 338 506 c 1,44,45
 263 601 263 601 263 723 c 0,46,47
 263 745 263 745 265.5 767.5 c 128,-1,48
 268 790 268 790 274 816 c 1,49,-1
 273 815 l 1,50,51
 310 1005 310 1005 417 1082 c 1,52,53
 487 1131 487 1131 626 1154 c 0,54,55
 649 1158 649 1158 671.5 1159.5 c 128,-1,56
 694 1161 694 1161 717 1161 c 0,57,58
 800 1161 800 1161 868 1133 c 1,59,60
 946 1099 946 1099 946 1012 c 0,61,62
 946 967 946 967 925 910 c 1,63,64
 899 833 899 833 875 779 c 128,-1,65
 851 725 851 725 829 695 c 0,66,67
 781 629 781 629 724 575 c 128,-1,68
 667 521 667 521 612 473 c 1,69,-1
 599 460 l 1,70,71
 585 449 585 449 566 432 c 128,-1,72
 547 415 547 415 523 393 c 2,73,-1
 461 336 l 1,74,-1
 461 337 l 1,75,76
 413 294 413 294 368 247 c 128,-1,77
 323 200 323 200 280 149 c 0,78,79
 238 99 238 99 205.5 49.5 c 128,-1,80
 173 0 173 0 150 -50 c 0,81,82
 131 -89 131 -89 131 -124 c 0,83,84
 131 -142 131 -142 138 -158.5 c 128,-1,85
 145 -175 145 -175 157 -190 c 1,86,87
 255 -300 255 -300 387 -345 c 0,88,89
 523 -392 523 -392 675 -397 c 0,90,91
 688 -398 688 -398 700.5 -398 c 128,-1,92
 713 -398 713 -398 726 -398 c 0,93,94
 849 -398 849 -398 978 -377 c 0,95,96
 1059 -363 1059 -363 1129 -349 c 128,-1,97
 1199 -335 1199 -335 1261 -319 c 1,98,99
 1280 -313 1280 -313 1291 -313 c 0,100,101
 1307 -313 1307 -313 1313 -321.5 c 128,-1,102
 1319 -330 1319 -330 1319 -339 c 0,103,104
 1319 -344 1319 -344 1318 -349 c 128,-1,105
 1317 -354 1317 -354 1311 -359 c 2,106,-1
 1312 -358 l 1,22,23
EndSplineSet
MultipleSubs2: "'medi' Medial Forms in Arabic lookup 3 subtable" _.notdef_11
MultipleSubs2: "'fina' Terminal Forms in Arabic lookup 2 subtable" _.notdef_9
MultipleSubs2: "'init' Initial Forms in Arabic lookup 1 subtable" _.notdef_10
MultipleSubs2: "'isol' Isolated Forms in Arabic lookup 0 subtable" _.notdef_8
EndChar

StartChar: afii57422
Encoding: 1582 1582 46
AltUni2: 00fea5.ffffffff.0
Width: 940
GlyphClass: 2
Flags: W
LayerCount: 2
Fore
SplineSet
753 804 m 1,0,-1
 747 817 l 1,1,-1
 760 829 l 1,2,-1
 753 804 l 1,0,-1
642 737 m 1,3,4
 673 757 673 757 699 777 c 128,-1,5
 725 797 725 797 747 817 c 1,6,7
 722 862 722 862 643 862 c 0,8,9
 634 862 634 862 624.5 861.5 c 128,-1,10
 615 861 615 861 604 860 c 0,11,12
 546 853 546 853 505 844 c 128,-1,13
 464 835 464 835 441 823 c 1,14,15
 451 800 451 800 462 780 c 128,-1,16
 473 760 473 760 488 740 c 1,17,-1
 488 741 l 1,18,19
 501 723 501 723 513 703 c 128,-1,20
 525 683 525 683 536 663 c 1,21,-1
 642 737 l 1,3,4
1312 -358 m 1,22,23
 1188 -507 1188 -507 983 -602 c 1,24,-1
 984 -602 l 1,25,26
 883 -650 883 -650 782.5 -677 c 128,-1,27
 682 -704 682 -704 578 -710 c 0,28,29
 563 -711 563 -711 548 -711.5 c 128,-1,30
 533 -712 533 -712 519 -712 c 0,31,32
 435 -712 435 -712 357.5 -694.5 c 128,-1,33
 280 -677 280 -677 209 -643 c 1,34,35
 126 -601 126 -601 72.5 -529 c 128,-1,36
 19 -457 19 -457 -3 -356 c 0,37,38
 -8 -329 -8 -329 -11 -301 c 128,-1,39
 -14 -273 -14 -273 -14 -243 c 0,40,41
 -14 -71 -14 -71 87 131 c 1,42,43
 211 382 211 382 338 506 c 1,44,45
 263 601 263 601 263 723 c 0,46,47
 263 745 263 745 265.5 767.5 c 128,-1,48
 268 790 268 790 274 816 c 1,49,-1
 273 815 l 1,50,51
 310 1005 310 1005 417 1082 c 1,52,53
 487 1131 487 1131 626 1154 c 0,54,55
 649 1158 649 1158 671.5 1159.5 c 128,-1,56
 694 1161 694 1161 717 1161 c 0,57,58
 800 1161 800 1161 868 1133 c 1,59,60
 946 1099 946 1099 946 1012 c 0,61,62
 946 967 946 967 925 910 c 1,63,64
 899 833 899 833 875 779 c 128,-1,65
 851 725 851 725 829 695 c 0,66,67
 781 629 781 629 724 575 c 128,-1,68
 667 521 667 521 612 473 c 1,69,-1
 599 460 l 1,70,71
 585 449 585 449 566 432 c 128,-1,72
 547 415 547 415 523 393 c 2,73,-1
 461 336 l 1,74,-1
 461 337 l 1,75,76
 413 294 413 294 368 247 c 128,-1,77
 323 200 323 200 280 149 c 0,78,79
 238 99 238 99 205.5 49.5 c 128,-1,80
 173 0 173 0 150 -50 c 0,81,82
 131 -89 131 -89 131 -124 c 0,83,84
 131 -142 131 -142 138 -158.5 c 128,-1,85
 145 -175 145 -175 157 -190 c 1,86,87
 255 -300 255 -300 387 -345 c 0,88,89
 523 -392 523 -392 675 -397 c 0,90,91
 688 -398 688 -398 700.5 -398 c 128,-1,92
 713 -398 713 -398 726 -398 c 0,93,94
 849 -398 849 -398 978 -377 c 0,95,96
 1059 -363 1059 -363 1129 -349 c 128,-1,97
 1199 -335 1199 -335 1261 -319 c 1,98,99
 1280 -313 1280 -313 1291 -313 c 0,100,101
 1307 -313 1307 -313 1313 -321.5 c 128,-1,102
 1319 -330 1319 -330 1319 -339 c 0,103,104
 1319 -344 1319 -344 1318 -349 c 128,-1,105
 1317 -354 1317 -354 1311 -359 c 2,106,-1
 1312 -358 l 1,22,23
826 1485 m 2,107,108
 832 1479 832 1479 833 1470 c 128,-1,109
 834 1461 834 1461 829 1453 c 1,110,111
 788 1401 788 1401 747 1350.5 c 128,-1,112
 706 1300 706 1300 665 1249 c 0,113,114
 659 1241 659 1241 649 1240.5 c 128,-1,115
 639 1240 639 1240 631 1248 c 2,116,-1
 491 1378 l 1,117,118
 485 1385 485 1385 484 1393.5 c 128,-1,119
 483 1402 483 1402 489 1410 c 0,120,121
 511 1439 511 1439 534 1467.5 c 128,-1,122
 557 1496 557 1496 580 1525 c 0,123,124
 598 1547 598 1547 616 1568.5 c 128,-1,125
 634 1590 634 1590 651 1613 c 0,126,127
 658 1621 658 1621 668.5 1622 c 128,-1,128
 679 1623 679 1623 687 1616 c 2,129,-1
 826 1485 l 2,107,108
EndSplineSet
MultipleSubs2: "'medi' Medial Forms in Arabic lookup 3 subtable" _.notdef_11 noqta_A
MultipleSubs2: "'fina' Terminal Forms in Arabic lookup 2 subtable" _.notdef_9 noqta_A
MultipleSubs2: "'init' Initial Forms in Arabic lookup 1 subtable" _.notdef_10 noqta_A
MultipleSubs2: "'isol' Isolated Forms in Arabic lookup 0 subtable" _.notdef_8 noqta_A
EndChar

StartChar: afii57423
Encoding: 1583 1583 47
AltUni2: 00fea9.ffffffff.0
Width: 752
GlyphClass: 2
Flags: W
LayerCount: 2
Fore
SplineSet
616 877 m 2,0,1
 624 890 624 890 638 889 c 128,-1,2
 652 888 652 888 658 874 c 2,3,-1
 681 819 l 2,4,5
 705 762 705 762 714 674 c 0,6,7
 715 662 715 662 715.5 649 c 128,-1,8
 716 636 716 636 716 623 c 0,9,10
 716 555 716 555 700 475 c 1,11,12
 687 418 687 418 658.5 362.5 c 128,-1,13
 630 307 630 307 582 250 c 1,14,15
 511 170 511 170 426 125 c 1,16,-1
 427 125 l 1,17,18
 358 87 358 87 223 54 c 0,19,20
 158 38 158 38 106 25 c 128,-1,21
 54 12 54 12 12 1 c 0,22,23
 -5 -4 -5 -4 -14 8.5 c 128,-1,24
 -23 21 -23 21 -15 36 c 2,25,-1
 132 300 l 2,26,27
 134 302 134 302 139.5 306.5 c 128,-1,28
 145 311 145 311 149 312 c 0,29,30
 194 320 194 320 244 331.5 c 128,-1,31
 294 343 294 343 349 358 c 0,32,33
 401 372 401 372 444 386 c 128,-1,34
 487 400 487 400 521 415 c 1,35,36
 519 432 519 432 514 454 c 128,-1,37
 509 476 509 476 503 502 c 1,38,39
 492 537 492 537 482 570 c 128,-1,40
 472 603 472 603 461 632 c 0,41,42
 459 636 459 636 460.5 642.5 c 128,-1,43
 462 649 462 649 464 653 c 2,44,-1
 616 877 l 2,0,1
EndSplineSet
MultipleSubs2: "'fina' Terminal Forms in Arabic lookup 2 subtable" _.notdef_13
MultipleSubs2: "'isol' Isolated Forms in Arabic lookup 0 subtable" _.notdef_12
EndChar

StartChar: afii57424
Encoding: 1584 1584 48
AltUni2: 00feab.ffffffff.0
Width: 752
GlyphClass: 2
Flags: W
LayerCount: 2
Fore
SplineSet
616 877 m 2,0,1
 624 890 624 890 638 889 c 128,-1,2
 652 888 652 888 658 874 c 2,3,-1
 681 819 l 2,4,5
 705 762 705 762 714 674 c 0,6,7
 715 662 715 662 715.5 649 c 128,-1,8
 716 636 716 636 716 623 c 0,9,10
 716 555 716 555 700 475 c 1,11,12
 687 418 687 418 658.5 362.5 c 128,-1,13
 630 307 630 307 582 250 c 1,14,15
 511 170 511 170 426 125 c 1,16,-1
 427 125 l 1,17,18
 358 87 358 87 223 54 c 0,19,20
 158 38 158 38 106 25 c 128,-1,21
 54 12 54 12 12 1 c 0,22,23
 -5 -4 -5 -4 -14 8.5 c 128,-1,24
 -23 21 -23 21 -15 36 c 2,25,-1
 132 300 l 2,26,27
 134 302 134 302 139.5 306.5 c 128,-1,28
 145 311 145 311 149 312 c 0,29,30
 194 320 194 320 244 331.5 c 128,-1,31
 294 343 294 343 349 358 c 0,32,33
 401 372 401 372 444 386 c 128,-1,34
 487 400 487 400 521 415 c 1,35,36
 519 432 519 432 514 454 c 128,-1,37
 509 476 509 476 503 502 c 1,38,39
 492 537 492 537 482 570 c 128,-1,40
 472 603 472 603 461 632 c 0,41,42
 459 636 459 636 460.5 642.5 c 128,-1,43
 462 649 462 649 464 653 c 2,44,-1
 616 877 l 2,0,1
686 1139 m 2,45,46
 693 1133 693 1133 694 1124 c 128,-1,47
 695 1115 695 1115 689 1107 c 0,48,49
 648 1055 648 1055 607.5 1004.5 c 128,-1,50
 567 954 567 954 526 903 c 0,51,52
 519 895 519 895 509 894.5 c 128,-1,53
 499 894 499 894 491 902 c 2,54,-1
 352 1032 l 2,55,56
 345 1039 345 1039 344 1047.5 c 128,-1,57
 343 1056 343 1056 349 1064 c 0,58,59
 372 1093 372 1093 395 1121.5 c 128,-1,60
 418 1150 418 1150 441 1179 c 0,61,62
 475 1221 475 1221 511 1267 c 0,63,64
 518 1275 518 1275 528.5 1276 c 128,-1,65
 539 1277 539 1277 547 1270 c 2,66,-1
 686 1139 l 2,45,46
EndSplineSet
MultipleSubs2: "'fina' Terminal Forms in Arabic lookup 2 subtable" _.notdef_13 noqta_A
MultipleSubs2: "'isol' Isolated Forms in Arabic lookup 0 subtable" _.notdef_12 noqta_A
EndChar

StartChar: afii57425
Encoding: 1585 1585 49
AltUni2: 00fead.ffffffff.0
Width: 961
GlyphClass: 2
Flags: W
LayerCount: 2
Fore
SplineSet
917 558 m 1,0,1
 906 509 906 509 890.5 455.5 c 128,-1,2
 875 402 875 402 852 345 c 0,3,4
 809 234 809 234 760 175 c 0,5,6
 725 134 725 134 679 99.5 c 128,-1,7
 633 65 633 65 582 43 c 1,8,9
 533 23 533 23 470 11.5 c 128,-1,10
 407 0 407 0 338 0 c 2,11,-1
 319 0 l 1,12,13
 201 3 201 3 116 12 c 0,14,15
 23 22 23 22 -4 48 c 0,16,17
 -15 59 -15 59 -15 77 c 0,18,19
 -15 110 -15 110 41 142 c 0,20,21
 71 159 71 159 131 181.5 c 128,-1,22
 191 204 191 204 282 233 c 1,23,-1
 281 233 l 1,24,25
 339 251 339 251 397.5 271 c 128,-1,26
 456 291 456 291 512 313.5 c 128,-1,27
 568 336 568 336 620 361.5 c 128,-1,28
 672 387 672 387 718 417 c 1,29,30
 760 446 760 446 792.5 485.5 c 128,-1,31
 825 525 825 525 846 572 c 1,32,-1
 846 571 l 1,33,34
 856 598 856 598 887 598 c 1,35,36
 901 596 901 596 908 588 c 128,-1,37
 915 580 915 580 917 566 c 1,38,-1
 917 558 l 1,0,1
EndSplineSet
MultipleSubs2: "'fina' Terminal Forms in Arabic lookup 2 subtable" _.notdef_15
MultipleSubs2: "'isol' Isolated Forms in Arabic lookup 0 subtable" _.notdef_14
EndChar

StartChar: afii57426
Encoding: 1586 1586 50
AltUni2: 00feaf.ffffffff.0
Width: 961
GlyphClass: 2
Flags: W
LayerCount: 2
Fore
SplineSet
918 558 m 1,0,1
 907 509 907 509 891.5 455.5 c 128,-1,2
 876 402 876 402 853 345 c 0,3,4
 809 233 809 233 760 175 c 0,5,6
 725 134 725 134 679.5 99.5 c 128,-1,7
 634 65 634 65 582 43 c 0,8,9
 534 23 534 23 471 11.5 c 128,-1,10
 408 0 408 0 339 0 c 2,11,-1
 320 0 l 1,12,13
 202 3 202 3 117 12 c 0,14,15
 22 22 22 22 -3 48 c 0,16,17
 -15 60 -15 60 -15 77 c 0,18,19
 -15 109 -15 109 41 142 c 1,20,21
 72 159 72 159 132 181.5 c 128,-1,22
 192 204 192 204 283 233 c 1,23,-1
 282 233 l 1,24,25
 340 251 340 251 398.5 271 c 128,-1,26
 457 291 457 291 513 313.5 c 128,-1,27
 569 336 569 336 621 361.5 c 128,-1,28
 673 387 673 387 719 417 c 1,29,30
 761 446 761 446 793.5 485.5 c 128,-1,31
 826 525 826 525 847 572 c 1,32,-1
 847 571 l 1,33,34
 857 598 857 598 888 598 c 1,35,36
 902 596 902 596 909 588 c 128,-1,37
 916 580 916 580 918 566 c 1,38,-1
 918 558 l 1,0,1
991 952 m 2,39,40
 998 945 998 945 999 936.5 c 128,-1,41
 1000 928 1000 928 994 920 c 0,42,43
 953 867 953 867 912.5 817 c 128,-1,44
 872 767 872 767 831 716 c 0,45,46
 824 708 824 708 814 707 c 128,-1,47
 804 706 804 706 796 714 c 2,48,-1
 657 845 l 2,49,50
 650 851 650 851 649 860 c 128,-1,51
 648 869 648 869 654 876 c 0,52,53
 677 905 677 905 700 934 c 128,-1,54
 723 963 723 963 746 991 c 0,55,56
 780 1033 780 1033 816 1079 c 0,57,58
 823 1088 823 1088 833.5 1089 c 128,-1,59
 844 1090 844 1090 852 1082 c 2,60,-1
 991 952 l 2,39,40
EndSplineSet
MultipleSubs2: "'fina' Terminal Forms in Arabic lookup 2 subtable" _.notdef_15 noqta_A
MultipleSubs2: "'isol' Isolated Forms in Arabic lookup 0 subtable" _.notdef_14 noqta_A
EndChar

StartChar: afii57427
Encoding: 1587 1587 51
AltUni2: 00feb1.ffffffff.0
Width: 1912
GlyphClass: 2
Flags: W
LayerCount: 2
Fore
SplineSet
817 421 m 2,0,1
 790 349 790 349 727 260 c 0,2,3
 670 178 670 178 598.5 121.5 c 128,-1,4
 527 65 527 65 441 33 c 1,5,6
 351 1 351 1 274 1 c 0,7,8
 204 1 204 1 139 32 c 1,9,-1
 139 31 l 1,10,11
 76 62 76 62 39 130.5 c 128,-1,12
 2 199 2 199 -9 298 c 0,13,14
 -10 305 -10 305 -10 314 c 128,-1,15
 -10 323 -10 323 -10 330 c 0,16,17
 -10 425 -10 425 36 557.5 c 128,-1,18
 82 690 82 690 167 846 c 1,19,20
 185 876 185 876 207 876 c 0,21,22
 210 876 210 876 213.5 875.5 c 128,-1,23
 217 875 217 875 223 873 c 1,24,25
 242 863 242 863 242 839 c 0,26,27
 242 831 242 831 240.5 822 c 128,-1,28
 239 813 239 813 234 801 c 0,29,30
 222 775 222 775 206.5 744.5 c 128,-1,31
 191 714 191 714 173 678 c 0,32,33
 156 645 156 645 142.5 611 c 128,-1,34
 129 577 129 577 121 542 c 0,35,36
 112 507 112 507 112 472 c 0,37,38
 112 444 112 444 118 420 c 0,39,40
 129 371 129 371 196 342 c 1,41,42
 260 331 260 331 311 331 c 0,43,44
 412 331 412 331 498 365 c 0,45,46
 566 391 566 391 620.5 422.5 c 128,-1,47
 675 454 675 454 720 495 c 1,48,-1
 720 502 l 2,49,50
 720 566 720 566 709 619 c 1,51,-1
 709 618 l 1,52,53
 701 650 701 650 692 687 c 128,-1,54
 683 724 683 724 672 760 c 1,55,-1
 780 1029 l 2,56,57
 786 1045 786 1045 801 1045.5 c 128,-1,58
 816 1046 816 1046 824 1031 c 1,59,60
 839 998 839 998 851.5 968 c 128,-1,61
 864 938 864 938 873 910 c 0,62,63
 881 884 881 884 909 884 c 0,64,65
 914 884 914 884 919 885 c 1,66,-1
 919 884 l 1,67,68
 1013 904 1013 904 1104 923.5 c 128,-1,69
 1195 943 1195 943 1287 963 c 0,70,71
 1465 1002 1465 1002 1625 1067 c 1,72,73
 1713 1100 1713 1100 1745 1152 c 0,74,75
 1748 1155 1748 1155 1752 1157.5 c 128,-1,76
 1756 1160 1756 1160 1764 1160 c 0,77,78
 1769 1160 1769 1160 1774 1157.5 c 128,-1,79
 1779 1155 1779 1155 1784 1153 c 1,80,81
 1791 1147 1791 1147 1795 1141.5 c 128,-1,82
 1799 1136 1799 1136 1799 1122 c 1,83,84
 1758 1000 1758 1000 1710 879.5 c 128,-1,85
 1662 759 1662 759 1611 650 c 0,86,87
 1603 634 1603 634 1591 624.5 c 128,-1,88
 1579 615 1579 615 1562 615 c 0,89,90
 1544 615 1544 615 1529 627 c 0,91,92
 1512 641 1512 641 1512 667 c 0,93,94
 1512 675 1512 675 1513.5 686 c 128,-1,95
 1515 697 1515 697 1520 709 c 1,96,-1
 1520 708 l 1,97,98
 1525 726 1525 726 1531 740.5 c 128,-1,99
 1537 755 1537 755 1544 768 c 1,100,101
 1474 740 1474 740 1398 716.5 c 128,-1,102
 1322 693 1322 693 1239 674 c 0,103,104
 1139 651 1139 651 1051.5 628 c 128,-1,105
 964 605 964 605 876 578 c 1,106,-1
 817 421 l 2,0,1
EndSplineSet
MultipleSubs2: "'medi' Medial Forms in Arabic lookup 3 subtable" _.notdef_19
MultipleSubs2: "'fina' Terminal Forms in Arabic lookup 2 subtable" _.notdef_17
MultipleSubs2: "'init' Initial Forms in Arabic lookup 1 subtable" _.notdef_18
MultipleSubs2: "'isol' Isolated Forms in Arabic lookup 0 subtable" _.notdef_16
EndChar

StartChar: afii57428
Encoding: 1588 1588 52
AltUni2: 00feb5.ffffffff.0
Width: 1912
GlyphClass: 2
Flags: W
LayerCount: 2
Fore
SplineSet
817 421 m 2,0,1
 790 349 790 349 727 260 c 0,2,3
 670 178 670 178 598.5 121.5 c 128,-1,4
 527 65 527 65 441 33 c 1,5,6
 351 1 351 1 274 1 c 0,7,8
 204 1 204 1 139 32 c 1,9,-1
 139 31 l 1,10,11
 76 62 76 62 39 130.5 c 128,-1,12
 2 199 2 199 -9 298 c 0,13,14
 -10 305 -10 305 -10 314 c 128,-1,15
 -10 323 -10 323 -10 330 c 0,16,17
 -10 425 -10 425 36 557.5 c 128,-1,18
 82 690 82 690 167 846 c 1,19,20
 185 876 185 876 207 876 c 0,21,22
 210 876 210 876 213.5 875.5 c 128,-1,23
 217 875 217 875 223 873 c 1,24,25
 242 863 242 863 242 839 c 0,26,27
 242 831 242 831 240.5 822 c 128,-1,28
 239 813 239 813 234 801 c 0,29,30
 222 775 222 775 206.5 744.5 c 128,-1,31
 191 714 191 714 173 678 c 0,32,33
 156 645 156 645 142.5 611 c 128,-1,34
 129 577 129 577 121 542 c 0,35,36
 112 507 112 507 112 472 c 0,37,38
 112 444 112 444 118 420 c 0,39,40
 129 371 129 371 196 342 c 1,41,42
 260 331 260 331 311 331 c 0,43,44
 412 331 412 331 498 365 c 0,45,46
 566 391 566 391 620.5 422.5 c 128,-1,47
 675 454 675 454 720 495 c 1,48,-1
 720 502 l 2,49,50
 720 566 720 566 709 619 c 1,51,-1
 709 618 l 1,52,53
 701 650 701 650 692 687 c 128,-1,54
 683 724 683 724 672 760 c 1,55,-1
 780 1029 l 2,56,57
 786 1045 786 1045 801 1045.5 c 128,-1,58
 816 1046 816 1046 824 1031 c 1,59,60
 839 998 839 998 851.5 968 c 128,-1,61
 864 938 864 938 873 910 c 0,62,63
 881 884 881 884 909 884 c 0,64,65
 914 884 914 884 919 885 c 1,66,-1
 919 884 l 1,67,68
 1013 904 1013 904 1104 923.5 c 128,-1,69
 1195 943 1195 943 1287 963 c 0,70,71
 1465 1002 1465 1002 1625 1067 c 1,72,73
 1713 1100 1713 1100 1745 1152 c 0,74,75
 1748 1155 1748 1155 1752 1157.5 c 128,-1,76
 1756 1160 1756 1160 1764 1160 c 0,77,78
 1769 1160 1769 1160 1774 1157.5 c 128,-1,79
 1779 1155 1779 1155 1784 1153 c 1,80,81
 1791 1147 1791 1147 1795 1141.5 c 128,-1,82
 1799 1136 1799 1136 1799 1122 c 1,83,84
 1758 1000 1758 1000 1710 879.5 c 128,-1,85
 1662 759 1662 759 1611 650 c 0,86,87
 1603 634 1603 634 1591 624.5 c 128,-1,88
 1579 615 1579 615 1562 615 c 0,89,90
 1544 615 1544 615 1529 627 c 0,91,92
 1512 641 1512 641 1512 667 c 0,93,94
 1512 675 1512 675 1513.5 686 c 128,-1,95
 1515 697 1515 697 1520 709 c 1,96,-1
 1520 708 l 1,97,98
 1525 726 1525 726 1531 740.5 c 128,-1,99
 1537 755 1537 755 1544 768 c 1,100,101
 1474 740 1474 740 1398 716.5 c 128,-1,102
 1322 693 1322 693 1239 674 c 0,103,104
 1139 651 1139 651 1051.5 628 c 128,-1,105
 964 605 964 605 876 578 c 1,106,-1
 817 421 l 2,0,1
1632 1504 m 1,107,108
 1603 1442 1603 1442 1564 1385 c 128,-1,109
 1525 1328 1525 1328 1483 1274 c 0,110,111
 1475 1265 1475 1265 1468.5 1260.5 c 128,-1,112
 1462 1256 1462 1256 1451 1256 c 0,113,114
 1439 1256 1439 1256 1429 1265.5 c 128,-1,115
 1419 1275 1419 1275 1413 1291 c 1,116,117
 1395 1330 1395 1330 1377.5 1354 c 128,-1,118
 1360 1378 1360 1378 1343 1378 c 2,119,-1
 1338 1378 l 1,120,121
 1317 1374 1317 1374 1294 1360 c 128,-1,122
 1271 1346 1271 1346 1250 1321 c 1,123,124
 1224 1293 1224 1293 1202.5 1261 c 128,-1,125
 1181 1229 1181 1229 1161 1194 c 0,126,127
 1140 1156 1140 1156 1125.5 1130.5 c 128,-1,128
 1111 1105 1111 1105 1100 1092 c 0,129,130
 1095 1085 1095 1085 1087.5 1083 c 128,-1,131
 1080 1081 1080 1081 1073 1083 c 128,-1,132
 1066 1085 1066 1085 1061.5 1091 c 128,-1,133
 1057 1097 1057 1097 1057 1106 c 2,134,-1
 1056 1192 l 1,135,-1
 1058 1200 l 1,136,137
 1070 1225 1070 1225 1090 1262.5 c 128,-1,138
 1110 1300 1110 1300 1136 1344 c 0,139,140
 1160 1385 1160 1385 1190 1429 c 128,-1,141
 1220 1473 1220 1473 1251 1515 c 1,142,143
 1282 1555 1282 1555 1316 1589 c 128,-1,144
 1350 1623 1350 1623 1386 1649 c 1,145,146
 1421 1672 1421 1672 1455 1672 c 0,147,148
 1481 1672 1481 1672 1506 1660 c 128,-1,149
 1531 1648 1531 1648 1557 1625 c 1,150,151
 1600 1583 1600 1583 1631 1526 c 1,152,-1
 1632 1504 l 1,107,108
EndSplineSet
MultipleSubs2: "'medi' Medial Forms in Arabic lookup 3 subtable" _.notdef_19 salasneqat_A
MultipleSubs2: "'fina' Terminal Forms in Arabic lookup 2 subtable" _.notdef_17 salasneqat_A
MultipleSubs2: "'init' Initial Forms in Arabic lookup 1 subtable" _.notdef_18 salasneqat_A
MultipleSubs2: "'isol' Isolated Forms in Arabic lookup 0 subtable" _.notdef_16 salasneqat_A
EndChar

StartChar: afii57429
Encoding: 1589 1589 53
AltUni2: 00feb9.ffffffff.0
Width: 1806
GlyphClass: 2
Flags: W
LayerCount: 2
Fore
SplineSet
726 260 m 0,0,1
 614 97 614 97 439 33 c 0,2,3
 349 1 349 1 273 1 c 0,4,5
 202 1 202 1 138 32 c 1,6,-1
 138 31 l 1,7,8
 75 62 75 62 38 130.5 c 128,-1,9
 1 199 1 199 -10 298 c 0,10,11
 -11 305 -11 305 -11 314 c 128,-1,12
 -11 323 -11 323 -11 330 c 0,13,14
 -11 425 -11 425 35 557.5 c 128,-1,15
 81 690 81 690 166 846 c 1,16,17
 184 876 184 876 206 876 c 0,18,19
 208 876 208 876 212 875.5 c 128,-1,20
 216 875 216 875 222 873 c 1,21,22
 241 863 241 863 241 839 c 0,23,24
 241 831 241 831 239 822 c 128,-1,25
 237 813 237 813 233 801 c 1,26,27
 221 775 221 775 205.5 744.5 c 128,-1,28
 190 714 190 714 172 678 c 0,29,30
 155 645 155 645 141.5 611 c 128,-1,31
 128 577 128 577 120 542 c 0,32,33
 111 507 111 507 111 472 c 0,34,35
 111 444 111 444 117 420 c 0,36,37
 128 371 128 371 195 342 c 1,38,39
 259 331 259 331 310 331 c 0,40,41
 410 331 410 331 496 365 c 1,42,43
 565 391 565 391 619.5 422.5 c 128,-1,44
 674 454 674 454 719 495 c 1,45,-1
 719 502 l 2,46,47
 719 539 719 539 715.5 571 c 128,-1,48
 712 603 712 603 706 632 c 1,49,-1
 706 631 l 1,50,51
 698 666 698 666 687.5 704 c 128,-1,52
 677 742 677 742 667 775 c 1,53,-1
 779 1030 l 2,54,55
 785 1045 785 1045 800 1045 c 128,-1,56
 815 1045 815 1045 823 1030 c 1,57,-1
 893 874 l 1,58,59
 899 856 899 856 930 856 c 0,60,61
 945 856 945 856 962 859 c 1,62,63
 1047 956 1047 956 1136.5 1051.5 c 128,-1,64
 1226 1147 1226 1147 1317 1232 c 1,65,66
 1370 1280 1370 1280 1468 1300 c 0,67,68
 1487 1304 1487 1304 1512 1304 c 0,69,70
 1587 1304 1587 1304 1634 1249 c 1,71,72
 1675 1199 1675 1199 1675 1143 c 0,73,74
 1675 1102 1675 1102 1655 1066 c 1,75,-1
 1655 1067 l 1,76,77
 1632 1023 1632 1023 1609 985.5 c 128,-1,78
 1586 948 1586 948 1561 914 c 0,79,80
 1520 859 1520 859 1468 812.5 c 128,-1,81
 1416 766 1416 766 1352 728 c 0,82,83
 1292 693 1292 693 1225.5 665.5 c 128,-1,84
 1159 638 1159 638 1093 621 c 1,85,86
 1032 604 1032 604 975.5 592.5 c 128,-1,87
 919 581 919 581 866 573 c 1,88,89
 826 407 826 407 726 260 c 0,0,1
1048 874 m 1,90,91
 1087 880 1087 880 1126 889 c 1,92,-1
 1106 869 l 1,93,-1
 1070 832 l 1,94,-1
 1048 874 l 1,90,91
1421 999 m 1,95,96
 1414 1012 1414 1012 1401 1020.5 c 128,-1,97
 1388 1029 1388 1029 1369 1035 c 0,98,99
 1351 1040 1351 1040 1339 1040 c 0,100,101
 1315 1040 1315 1040 1297 1028 c 1,102,103
 1248 1002 1248 1002 1207.5 965.5 c 128,-1,104
 1167 929 1167 929 1126 889 c 1,105,106
 1208 906 1208 906 1285.5 928 c 128,-1,107
 1363 950 1363 950 1429 981 c 1,108,109
 1428 984 1428 984 1426 987.5 c 128,-1,110
 1424 991 1424 991 1421 999 c 1,95,96
EndSplineSet
MultipleSubs2: "'medi' Medial Forms in Arabic lookup 3 subtable" _.notdef_23
MultipleSubs2: "'fina' Terminal Forms in Arabic lookup 2 subtable" _.notdef_21
MultipleSubs2: "'init' Initial Forms in Arabic lookup 1 subtable" _.notdef_22
MultipleSubs2: "'isol' Isolated Forms in Arabic lookup 0 subtable" _.notdef_20
EndChar

StartChar: afii57430
Encoding: 1590 1590 54
AltUni2: 00febd.ffffffff.0
Width: 1806
GlyphClass: 2
Flags: W
LayerCount: 2
Fore
SplineSet
726 260 m 0,0,1
 614 97 614 97 439 33 c 0,2,3
 349 1 349 1 273 1 c 0,4,5
 202 1 202 1 138 32 c 1,6,-1
 138 31 l 1,7,8
 75 62 75 62 38 130.5 c 128,-1,9
 1 199 1 199 -10 298 c 0,10,11
 -11 305 -11 305 -11 314 c 128,-1,12
 -11 323 -11 323 -11 330 c 0,13,14
 -11 425 -11 425 35 557.5 c 128,-1,15
 81 690 81 690 166 846 c 1,16,17
 184 876 184 876 206 876 c 0,18,19
 208 876 208 876 212 875.5 c 128,-1,20
 216 875 216 875 222 873 c 1,21,22
 241 863 241 863 241 839 c 0,23,24
 241 831 241 831 239 822 c 128,-1,25
 237 813 237 813 233 801 c 1,26,27
 221 775 221 775 205.5 744.5 c 128,-1,28
 190 714 190 714 172 678 c 0,29,30
 155 645 155 645 141.5 611 c 128,-1,31
 128 577 128 577 120 542 c 0,32,33
 111 507 111 507 111 472 c 0,34,35
 111 444 111 444 117 420 c 0,36,37
 128 371 128 371 195 342 c 1,38,39
 259 331 259 331 310 331 c 0,40,41
 410 331 410 331 496 365 c 1,42,43
 565 391 565 391 619.5 422.5 c 128,-1,44
 674 454 674 454 719 495 c 1,45,-1
 719 502 l 2,46,47
 719 539 719 539 715.5 571 c 128,-1,48
 712 603 712 603 706 632 c 1,49,-1
 706 631 l 1,50,51
 698 666 698 666 687.5 704 c 128,-1,52
 677 742 677 742 667 775 c 1,53,-1
 779 1030 l 2,54,55
 785 1045 785 1045 800 1045 c 128,-1,56
 815 1045 815 1045 823 1030 c 1,57,-1
 893 874 l 1,58,59
 899 856 899 856 930 856 c 0,60,61
 945 856 945 856 962 859 c 1,62,63
 1047 956 1047 956 1136.5 1051.5 c 128,-1,64
 1226 1147 1226 1147 1317 1232 c 1,65,66
 1370 1280 1370 1280 1468 1300 c 0,67,68
 1487 1304 1487 1304 1512 1304 c 0,69,70
 1587 1304 1587 1304 1634 1249 c 1,71,72
 1675 1199 1675 1199 1675 1143 c 0,73,74
 1675 1102 1675 1102 1655 1066 c 1,75,-1
 1655 1067 l 1,76,77
 1632 1023 1632 1023 1609 985.5 c 128,-1,78
 1586 948 1586 948 1561 914 c 0,79,80
 1520 859 1520 859 1468 812.5 c 128,-1,81
 1416 766 1416 766 1352 728 c 0,82,83
 1292 693 1292 693 1225.5 665.5 c 128,-1,84
 1159 638 1159 638 1093 621 c 1,85,86
 1032 604 1032 604 975.5 592.5 c 128,-1,87
 919 581 919 581 866 573 c 1,88,89
 826 407 826 407 726 260 c 0,0,1
1048 874 m 1,90,91
 1087 880 1087 880 1126 889 c 1,92,-1
 1106 869 l 1,93,-1
 1070 832 l 1,94,-1
 1048 874 l 1,90,91
1421 999 m 1,95,96
 1414 1012 1414 1012 1401 1020.5 c 128,-1,97
 1388 1029 1388 1029 1369 1035 c 0,98,99
 1351 1040 1351 1040 1339 1040 c 0,100,101
 1315 1040 1315 1040 1297 1028 c 1,102,103
 1248 1002 1248 1002 1207.5 965.5 c 128,-1,104
 1167 929 1167 929 1126 889 c 1,105,106
 1208 906 1208 906 1285.5 928 c 128,-1,107
 1363 950 1363 950 1429 981 c 1,108,109
 1428 984 1428 984 1426 987.5 c 128,-1,110
 1424 991 1424 991 1421 999 c 1,95,96
1507 1621 m 2,111,112
 1514 1615 1514 1615 1515 1606 c 128,-1,113
 1516 1597 1516 1597 1510 1590 c 0,114,115
 1469 1537 1469 1537 1428.5 1486.5 c 128,-1,116
 1388 1436 1388 1436 1347 1386 c 0,117,118
 1340 1378 1340 1378 1330 1377 c 128,-1,119
 1320 1376 1320 1376 1312 1384 c 2,120,-1
 1173 1514 l 2,121,122
 1166 1521 1166 1521 1165 1529.5 c 128,-1,123
 1164 1538 1164 1538 1170 1546 c 0,124,125
 1193 1575 1193 1575 1216 1603.5 c 128,-1,126
 1239 1632 1239 1632 1262 1661 c 0,127,128
 1296 1703 1296 1703 1332 1749 c 0,129,130
 1339 1758 1339 1758 1349.5 1759 c 128,-1,131
 1360 1760 1360 1760 1368 1752 c 2,132,-1
 1507 1621 l 2,111,112
EndSplineSet
MultipleSubs2: "'medi' Medial Forms in Arabic lookup 3 subtable" _.notdef_23 noqta_A
MultipleSubs2: "'fina' Terminal Forms in Arabic lookup 2 subtable" _.notdef_21 noqta_A
MultipleSubs2: "'init' Initial Forms in Arabic lookup 1 subtable" _.notdef_22 noqta_A
MultipleSubs2: "'isol' Isolated Forms in Arabic lookup 0 subtable" _.notdef_20 noqta_A
EndChar

StartChar: afii57431
Encoding: 1591 1591 55
AltUni2: 00fec1.ffffffff.0
Width: 1395
GlyphClass: 2
Flags: W
LayerCount: 2
Fore
SplineSet
667 304 m 1,0,1
 687 308 687 308 706 311.5 c 128,-1,2
 725 315 725 315 744 320 c 1,3,-1
 722 297 l 1,4,-1
 689 263 l 1,5,-1
 667 304 l 1,0,1
1040 430 m 1,6,7
 1025 454 1025 454 987 466 c 0,8,9
 969 471 969 471 956 471 c 0,10,11
 937 471 937 471 915 460 c 1,12,13
 867 433 867 433 826 396.5 c 128,-1,14
 785 360 785 360 744 320 c 1,15,16
 827 337 827 337 903 358.5 c 128,-1,17
 979 380 979 380 1046 412 c 0,18,19
 1046 413 1046 413 1047 413 c 2,20,-1
 1046 413 l 1,21,22
 1046 416 1046 416 1044 420.5 c 128,-1,23
 1042 425 1042 425 1039 433 c 2,24,-1
 1040 430 l 1,6,7
1176 384 m 1,25,26
 1074 248 1074 248 922.5 163.5 c 128,-1,27
 771 79 771 79 576 27 c 0,28,29
 528 14 528 14 482.5 7 c 128,-1,30
 437 0 437 0 398 0 c 0,31,32
 387 0 387 0 378 0.5 c 128,-1,33
 369 1 369 1 361 2 c 0,34,35
 308 7 308 7 263.5 22.5 c 128,-1,36
 219 38 219 38 181 66 c 0,37,38
 149 89 149 89 103.5 118.5 c 128,-1,39
 58 148 58 148 2 181 c 0,40,41
 -6 185 -6 185 -9.5 193 c 128,-1,42
 -13 201 -13 201 -13 209 c 0,43,44
 -13 213 -13 213 -10 222 c 0,45,46
 0 249 0 249 24 249 c 0,47,48
 49 248 49 248 73 247.5 c 128,-1,49
 97 247 97 247 121 247 c 0,50,51
 218 247 218 247 316 256 c 0,52,53
 388 262 388 262 450.5 270 c 128,-1,54
 513 278 513 278 579 289 c 1,55,56
 662 385 662 385 752 480.5 c 128,-1,57
 842 576 842 576 936 664 c 1,58,59
 988 710 988 710 1086 731 c 0,60,61
 1100 733 1100 733 1111 734 c 128,-1,62
 1122 735 1122 735 1132 735 c 0,63,64
 1207 735 1207 735 1253 680 c 1,65,66
 1293 630 1293 630 1293 583 c 0,67,68
 1293 545 1293 545 1270 513 c 2,69,-1
 1247 481 l 1,70,-1
 1176 384 l 1,25,26
569 978 m 1,71,-1
 718 1217 l 2,72,73
 728 1232 728 1232 744.5 1228 c 128,-1,74
 761 1224 761 1224 763 1206 c 2,75,-1
 805 563 l 1,76,-1
 655 325 l 2,77,78
 650 317 650 317 643 314.5 c 128,-1,79
 636 312 636 312 629 313.5 c 128,-1,80
 622 315 622 315 617 320.5 c 128,-1,81
 612 326 612 326 611 335 c 2,82,-1
 569 978 l 1,71,-1
EndSplineSet
MultipleSubs2: "'medi' Medial Forms in Arabic lookup 3 subtable" _.notdef_27
MultipleSubs2: "'fina' Terminal Forms in Arabic lookup 2 subtable" _.notdef_25
MultipleSubs2: "'init' Initial Forms in Arabic lookup 1 subtable" _.notdef_26
MultipleSubs2: "'isol' Isolated Forms in Arabic lookup 0 subtable" _.notdef_24
EndChar

StartChar: afii57432
Encoding: 1592 1592 56
AltUni2: 00fec5.ffffffff.0
Width: 1395
GlyphClass: 2
Flags: W
LayerCount: 2
Fore
SplineSet
667 304 m 1,0,1
 687 308 687 308 706 311.5 c 128,-1,2
 725 315 725 315 744 320 c 1,3,-1
 722 297 l 1,4,-1
 689 263 l 1,5,-1
 667 304 l 1,0,1
1040 430 m 1,6,7
 1025 454 1025 454 987 466 c 0,8,9
 969 471 969 471 956 471 c 0,10,11
 937 471 937 471 915 460 c 1,12,13
 867 433 867 433 826 396.5 c 128,-1,14
 785 360 785 360 744 320 c 1,15,16
 827 337 827 337 903 358.5 c 128,-1,17
 979 380 979 380 1046 412 c 0,18,19
 1046 413 1046 413 1047 413 c 2,20,-1
 1046 413 l 1,21,22
 1046 416 1046 416 1044 420.5 c 128,-1,23
 1042 425 1042 425 1039 433 c 2,24,-1
 1040 430 l 1,6,7
1176 384 m 1,25,26
 1074 248 1074 248 922.5 163.5 c 128,-1,27
 771 79 771 79 576 27 c 0,28,29
 528 14 528 14 482.5 7 c 128,-1,30
 437 0 437 0 398 0 c 0,31,32
 387 0 387 0 378 0.5 c 128,-1,33
 369 1 369 1 361 2 c 0,34,35
 308 7 308 7 263.5 22.5 c 128,-1,36
 219 38 219 38 181 66 c 0,37,38
 149 89 149 89 103.5 118.5 c 128,-1,39
 58 148 58 148 2 181 c 0,40,41
 -6 185 -6 185 -9.5 193 c 128,-1,42
 -13 201 -13 201 -13 209 c 0,43,44
 -13 213 -13 213 -10 222 c 0,45,46
 0 249 0 249 24 249 c 0,47,48
 49 248 49 248 73 247.5 c 128,-1,49
 97 247 97 247 121 247 c 0,50,51
 218 247 218 247 316 256 c 0,52,53
 388 262 388 262 450.5 270 c 128,-1,54
 513 278 513 278 579 289 c 1,55,56
 662 385 662 385 752 480.5 c 128,-1,57
 842 576 842 576 936 664 c 1,58,59
 988 710 988 710 1086 731 c 0,60,61
 1100 733 1100 733 1111 734 c 128,-1,62
 1122 735 1122 735 1132 735 c 0,63,64
 1207 735 1207 735 1253 680 c 1,65,66
 1293 630 1293 630 1293 583 c 0,67,68
 1293 545 1293 545 1270 513 c 2,69,-1
 1247 481 l 1,70,-1
 1176 384 l 1,25,26
569 978 m 1,71,-1
 718 1217 l 2,72,73
 728 1232 728 1232 744.5 1228 c 128,-1,74
 761 1224 761 1224 763 1206 c 2,75,-1
 805 563 l 1,76,-1
 655 325 l 2,77,78
 650 317 650 317 643 314.5 c 128,-1,79
 636 312 636 312 629 313.5 c 128,-1,80
 622 315 622 315 617 320.5 c 128,-1,81
 612 326 612 326 611 335 c 2,82,-1
 569 978 l 1,71,-1
1194 1028 m 2,83,84
 1200 1021 1200 1021 1201 1012.5 c 128,-1,85
 1202 1004 1202 1004 1197 996 c 1,86,87
 1156 944 1156 944 1115 893.5 c 128,-1,88
 1074 843 1074 843 1033 792 c 0,89,90
 1027 784 1027 784 1017 783.5 c 128,-1,91
 1007 783 1007 783 999 790 c 2,92,-1
 859 921 l 1,93,94
 853 928 853 928 852 936.5 c 128,-1,95
 851 945 851 945 856 953 c 1,96,97
 879 982 879 982 902 1010.5 c 128,-1,98
 925 1039 925 1039 948 1068 c 0,99,100
 966 1090 966 1090 984 1111.5 c 128,-1,101
 1002 1133 1002 1133 1019 1156 c 0,102,103
 1026 1164 1026 1164 1036.5 1165 c 128,-1,104
 1047 1166 1047 1166 1055 1159 c 2,105,-1
 1194 1028 l 2,83,84
EndSplineSet
MultipleSubs2: "'medi' Medial Forms in Arabic lookup 3 subtable" _.notdef_27 noqta_A
MultipleSubs2: "'fina' Terminal Forms in Arabic lookup 2 subtable" _.notdef_25 noqta_A
MultipleSubs2: "'init' Initial Forms in Arabic lookup 1 subtable" _.notdef_26 noqta_A
MultipleSubs2: "'isol' Isolated Forms in Arabic lookup 0 subtable" _.notdef_24 noqta_A
EndChar

StartChar: afii57433
Encoding: 1593 1593 57
AltUni2: 00fec9.ffffffff.0
Width: 1400
GlyphClass: 2
Flags: W
LayerCount: 2
Fore
SplineSet
90 140 m 1,0,1
 153 268 153 268 227 370 c 128,-1,2
 301 472 301 472 381 541 c 1,3,4
 372 552 372 552 361.5 564.5 c 128,-1,5
 351 577 351 577 340 592 c 1,6,-1
 341 591 l 1,7,8
 304 636 304 636 282 687 c 128,-1,9
 260 738 260 738 252 795 c 0,10,11
 246 838 246 838 246 884 c 0,12,13
 246 945 246 945 260 1010 c 1,14,15
 273 1060 273 1060 294 1104.5 c 128,-1,16
 315 1149 315 1149 344 1184 c 0,17,18
 405 1257 405 1257 490 1257 c 1,19,20
 533 1255 533 1255 572 1247.5 c 128,-1,21
 611 1240 611 1240 650 1231 c 2,22,-1
 688 1222 l 2,23,24
 699 1220 699 1220 704 1211 c 128,-1,25
 709 1202 709 1202 705 1191 c 2,26,-1
 622 934 l 2,27,28
 619 925 619 925 610 920.5 c 128,-1,29
 601 916 601 916 592 919 c 0,30,31
 506 945 506 945 421 957 c 1,32,33
 426 934 426 934 433 914 c 128,-1,34
 440 894 440 894 449 879 c 1,35,-1
 448 880 l 1,36,37
 473 840 473 840 523 797 c 1,38,39
 550 772 550 772 590 772 c 0,40,41
 628 772 628 772 683 798 c 1,42,-1
 683 797 l 1,43,44
 742 827 742 827 793 862.5 c 128,-1,45
 844 898 844 898 889 941 c 0,46,47
 896 948 896 948 904 948 c 128,-1,48
 912 948 912 948 918 943.5 c 128,-1,49
 924 939 924 939 927 931.5 c 128,-1,50
 930 924 930 924 927 915 c 2,51,-1
 838 686 l 2,52,53
 826 655 826 655 799.5 625 c 128,-1,54
 773 595 773 595 732 563 c 0,55,56
 694 534 694 534 660.5 507 c 128,-1,57
 627 480 627 480 598 454 c 1,58,-1
 599 454 l 1,59,60
 585 443 585 443 566 426 c 128,-1,61
 547 409 547 409 523 387 c 2,62,-1
 461 330 l 1,63,-1
 461 331 l 1,64,65
 413 288 413 288 368 241 c 128,-1,66
 323 194 323 194 280 143 c 0,67,68
 197 45 197 45 150 -56 c 0,69,70
 131 -95 131 -95 131 -129 c 0,71,72
 131 -148 131 -148 138 -164.5 c 128,-1,73
 145 -181 145 -181 157 -196 c 1,74,75
 255 -306 255 -306 387 -351 c 0,76,77
 523 -398 523 -398 675 -403 c 0,78,79
 688 -404 688 -404 700.5 -404 c 128,-1,80
 713 -404 713 -404 726 -404 c 0,81,82
 849 -404 849 -404 978 -383 c 0,83,84
 1059 -369 1059 -369 1129 -355 c 128,-1,85
 1199 -341 1199 -341 1261 -325 c 1,86,87
 1280 -319 1280 -319 1291 -319 c 0,88,89
 1307 -319 1307 -319 1313 -327 c 128,-1,90
 1319 -335 1319 -335 1319 -345 c 0,91,92
 1319 -350 1319 -350 1318 -355 c 128,-1,93
 1317 -360 1317 -360 1311 -365 c 1,94,-1
 1312 -363 l 1,95,96
 1189 -513 1189 -513 983 -608 c 1,97,-1
 984 -608 l 1,98,99
 783 -703 783 -703 578 -716 c 0,100,101
 563 -717 563 -717 548 -717.5 c 128,-1,102
 533 -718 533 -718 519 -718 c 0,103,104
 352 -718 352 -718 209 -648 c 0,105,106
 126 -607 126 -607 72 -535 c 128,-1,107
 18 -463 18 -463 -3 -360 c 0,108,109
 -14 -308 -14 -308 -14 -248 c 0,110,111
 -14 -162 -14 -162 13.5 -63.5 c 128,-1,112
 41 35 41 35 90 140 c 1,0,1
EndSplineSet
MultipleSubs2: "'medi' Medial Forms in Arabic lookup 3 subtable" _.notdef_31
MultipleSubs2: "'fina' Terminal Forms in Arabic lookup 2 subtable" _.notdef_29
MultipleSubs2: "'init' Initial Forms in Arabic lookup 1 subtable" _.notdef_30
MultipleSubs2: "'isol' Isolated Forms in Arabic lookup 0 subtable" _.notdef_28
EndChar

StartChar: afii57434
Encoding: 1594 1594 58
AltUni2: 00fecd.ffffffff.0
Width: 1400
GlyphClass: 2
Flags: W
LayerCount: 2
Fore
SplineSet
90 140 m 1,0,1
 153 268 153 268 227 370 c 128,-1,2
 301 472 301 472 381 541 c 1,3,4
 372 552 372 552 361.5 564.5 c 128,-1,5
 351 577 351 577 340 592 c 1,6,-1
 341 591 l 1,7,8
 304 636 304 636 282 687 c 128,-1,9
 260 738 260 738 252 795 c 0,10,11
 246 838 246 838 246 884 c 0,12,13
 246 945 246 945 260 1010 c 1,14,15
 273 1060 273 1060 294 1104.5 c 128,-1,16
 315 1149 315 1149 344 1184 c 0,17,18
 405 1257 405 1257 490 1257 c 1,19,20
 533 1255 533 1255 572 1247.5 c 128,-1,21
 611 1240 611 1240 650 1231 c 2,22,-1
 688 1222 l 2,23,24
 699 1220 699 1220 704 1211 c 128,-1,25
 709 1202 709 1202 705 1191 c 2,26,-1
 622 934 l 2,27,28
 619 925 619 925 610 920.5 c 128,-1,29
 601 916 601 916 592 919 c 0,30,31
 506 945 506 945 421 957 c 1,32,33
 426 934 426 934 433 914 c 128,-1,34
 440 894 440 894 449 879 c 1,35,-1
 448 880 l 1,36,37
 473 840 473 840 523 797 c 1,38,39
 550 772 550 772 590 772 c 0,40,41
 628 772 628 772 683 798 c 1,42,-1
 683 797 l 1,43,44
 742 827 742 827 793 862.5 c 128,-1,45
 844 898 844 898 889 941 c 0,46,47
 896 948 896 948 904 948 c 128,-1,48
 912 948 912 948 918 943.5 c 128,-1,49
 924 939 924 939 927 931.5 c 128,-1,50
 930 924 930 924 927 915 c 2,51,-1
 838 686 l 2,52,53
 826 655 826 655 799.5 625 c 128,-1,54
 773 595 773 595 732 563 c 0,55,56
 694 534 694 534 660.5 507 c 128,-1,57
 627 480 627 480 598 454 c 1,58,-1
 599 454 l 1,59,60
 585 443 585 443 566 426 c 128,-1,61
 547 409 547 409 523 387 c 2,62,-1
 461 330 l 1,63,-1
 461 331 l 1,64,65
 413 288 413 288 368 241 c 128,-1,66
 323 194 323 194 280 143 c 0,67,68
 197 45 197 45 150 -56 c 0,69,70
 131 -95 131 -95 131 -129 c 0,71,72
 131 -148 131 -148 138 -164.5 c 128,-1,73
 145 -181 145 -181 157 -196 c 1,74,75
 255 -306 255 -306 387 -351 c 0,76,77
 523 -398 523 -398 675 -403 c 0,78,79
 688 -404 688 -404 700.5 -404 c 128,-1,80
 713 -404 713 -404 726 -404 c 0,81,82
 849 -404 849 -404 978 -383 c 0,83,84
 1059 -369 1059 -369 1129 -355 c 128,-1,85
 1199 -341 1199 -341 1261 -325 c 1,86,87
 1280 -319 1280 -319 1291 -319 c 0,88,89
 1307 -319 1307 -319 1313 -327 c 128,-1,90
 1319 -335 1319 -335 1319 -345 c 0,91,92
 1319 -350 1319 -350 1318 -355 c 128,-1,93
 1317 -360 1317 -360 1311 -365 c 1,94,-1
 1312 -363 l 1,95,96
 1189 -513 1189 -513 983 -608 c 1,97,-1
 984 -608 l 1,98,99
 783 -703 783 -703 578 -716 c 0,100,101
 563 -717 563 -717 548 -717.5 c 128,-1,102
 533 -718 533 -718 519 -718 c 0,103,104
 352 -718 352 -718 209 -648 c 0,105,106
 126 -607 126 -607 72 -535 c 128,-1,107
 18 -463 18 -463 -3 -360 c 0,108,109
 -14 -308 -14 -308 -14 -248 c 0,110,111
 -14 -162 -14 -162 13.5 -63.5 c 128,-1,112
 41 35 41 35 90 140 c 1,0,1
660 1577 m 1,113,114
 666 1570 666 1570 667 1561.5 c 128,-1,115
 668 1553 668 1553 662 1545 c 0,116,117
 621 1493 621 1493 580.5 1442.5 c 128,-1,118
 540 1392 540 1392 499 1341 c 0,119,120
 492 1333 492 1333 482 1332.5 c 128,-1,121
 472 1332 472 1332 464 1339 c 2,122,-1
 325 1470 l 2,123,124
 319 1476 319 1476 318 1485 c 128,-1,125
 317 1494 317 1494 322 1502 c 1,126,127
 345 1531 345 1531 368 1559.5 c 128,-1,128
 391 1588 391 1588 414 1617 c 0,129,130
 432 1639 432 1639 449.5 1660.5 c 128,-1,131
 467 1682 467 1682 485 1705 c 0,132,133
 491 1713 491 1713 501.5 1714 c 128,-1,134
 512 1715 512 1715 520 1707 c 2,135,-1
 660 1577 l 1,113,114
EndSplineSet
MultipleSubs2: "'medi' Medial Forms in Arabic lookup 3 subtable" _.notdef_31 noqta_A
MultipleSubs2: "'fina' Terminal Forms in Arabic lookup 2 subtable" _.notdef_29 noqta_A
MultipleSubs2: "'init' Initial Forms in Arabic lookup 1 subtable" _.notdef_30 noqta_A
MultipleSubs2: "'isol' Isolated Forms in Arabic lookup 0 subtable" _.notdef_28 noqta_A
EndChar

StartChar: afii57441
Encoding: 1601 1601 60
AltUni2: 00fed1.ffffffff.0
Width: 1288
GlyphClass: 2
Flags: W
LayerCount: 2
Fore
SplineSet
1149 572 m 1,0,1
 1154 574 1154 574 1155 577 c 1,2,-1
 1149 572 l 1,0,1
1175 274 m 1,3,4
 1100 193 1100 193 1007 140.5 c 128,-1,5
 914 88 914 88 810 56 c 0,6,7
 746 36 746 36 666 23 c 128,-1,8
 586 10 586 10 501 2 c 0,9,10
 486 0 486 0 469.5 -0.5 c 128,-1,11
 453 -1 453 -1 439 -1 c 0,12,13
 295 -1 295 -1 190 59 c 0,14,15
 89 116 89 116 53 219 c 0,16,17
 33 277 33 277 33 336 c 0,18,19
 33 380 33 380 44 424.5 c 128,-1,20
 55 469 55 469 75 516 c 1,21,22
 110 593 110 593 144.5 659.5 c 128,-1,23
 179 726 179 726 217 785 c 1,24,25
 238 813 238 813 263 813 c 0,26,27
 268 813 268 813 272 813 c 128,-1,28
 276 813 276 813 278 812 c 0,29,30
 307 800 307 800 307 770 c 0,31,32
 307 756 307 756 299 737 c 1,33,34
 215 582 215 582 215 485 c 0,35,36
 215 418 215 418 258 381 c 1,37,-1
 257 381 l 1,38,39
 357 294 357 294 532 294 c 0,40,41
 541 294 541 294 550 294 c 128,-1,42
 559 294 559 294 570 295 c 0,43,44
 624 299 624 299 703 313.5 c 128,-1,45
 782 328 782 328 887 355 c 0,46,47
 1081 403 1081 403 1172 474 c 1,48,49
 1167 489 1167 489 1162.5 503 c 128,-1,50
 1158 517 1158 517 1153 531 c 2,51,-1
 1141 566 l 1,52,53
 1106 540 1106 540 1060 527 c 0,54,55
 1048 523 1048 523 1036.5 521.5 c 128,-1,56
 1025 520 1025 520 1014 520 c 0,57,58
 996 520 996 520 979 524 c 128,-1,59
 962 528 962 528 946 535 c 0,60,61
 907 554 907 554 904 606 c 0,62,63
 903 609 903 609 903 612.5 c 128,-1,64
 903 616 903 616 903 618 c 0,65,66
 903 661 903 661 920 692 c 1,67,-1
 920 691 l 1,68,-1
 955 761 l 1,69,-1
 954 761 l 1,70,71
 976 806 976 806 1000 851.5 c 128,-1,72
 1024 897 1024 897 1055 939 c 0,73,74
 1093 989 1093 989 1138 989 c 0,75,76
 1166 989 1166 989 1196 968 c 0,77,78
 1229 945 1229 945 1255 914.5 c 128,-1,79
 1281 884 1281 884 1301 845 c 0,80,81
 1342 764 1342 764 1342 673 c 0,82,83
 1342 641 1342 641 1337.5 608.5 c 128,-1,84
 1333 576 1333 576 1322 541 c 0,85,86
 1271 380 1271 380 1176 274 c 1,87,-1
 1175 274 l 1,3,4
1262 1230 m 2,88,89
 1269 1223 1269 1223 1270 1214.5 c 128,-1,90
 1271 1206 1271 1206 1265 1198 c 0,91,92
 1224 1146 1224 1146 1183.5 1095.5 c 128,-1,93
 1143 1045 1143 1045 1102 994 c 0,94,95
 1095 986 1095 986 1085 985.5 c 128,-1,96
 1075 985 1075 985 1067 992 c 2,97,-1
 928 1123 l 2,98,99
 921 1130 921 1130 920 1138.5 c 128,-1,100
 919 1147 919 1147 925 1155 c 0,101,102
 948 1184 948 1184 971 1212.5 c 128,-1,103
 994 1241 994 1241 1017 1270 c 0,104,105
 1051 1312 1051 1312 1087 1358 c 0,106,107
 1094 1366 1094 1366 1104.5 1367 c 128,-1,108
 1115 1368 1115 1368 1123 1361 c 2,109,-1
 1262 1230 l 2,88,89
EndSplineSet
MultipleSubs2: "'medi' Medial Forms in Arabic lookup 3 subtable" _.notdef_35 noqta_A
MultipleSubs2: "'fina' Terminal Forms in Arabic lookup 2 subtable" _.notdef_33 noqta_A
MultipleSubs2: "'init' Initial Forms in Arabic lookup 1 subtable" _.notdef_34 noqta_A
MultipleSubs2: "'isol' Isolated Forms in Arabic lookup 0 subtable" _.notdef_32 noqta_A
EndChar

StartChar: afii57442
Encoding: 1602 1602 61
AltUni2: 00fed5.ffffffff.0
Width: 1300
GlyphClass: 2
Flags: W
LayerCount: 2
Fore
SplineSet
309 544 m 1,0,1
 308 544 308 544 307 543.5 c 128,-1,2
 306 543 306 543 305 543 c 1,3,4
 307 543 307 543 309 544 c 1,0,1
1021 258 m 0,5,6
 930 127 930 127 792 58 c 0,7,8
 732 29 732 29 676 15 c 128,-1,9
 620 1 620 1 568 1 c 0,10,11
 560 1 560 1 551 1 c 128,-1,12
 542 1 542 1 534 2 c 0,13,14
 474 8 474 8 422.5 36.5 c 128,-1,15
 371 65 371 65 333 114 c 1,16,17
 283 181 283 181 283 292 c 0,18,19
 283 349 283 349 295 414 c 0,20,21
 300 438 300 438 303 469 c 128,-1,22
 306 500 306 500 306 522 c 1,23,-1
 302 543 l 1,24,25
 140 516 140 516 42 385 c 0,26,27
 36 377 36 377 28 376 c 128,-1,28
 20 375 20 375 12.5 378.5 c 128,-1,29
 5 382 5 382 1 390 c 128,-1,30
 -3 398 -3 398 0 407 c 0,31,32
 23 480 23 480 47.5 553 c 128,-1,33
 72 626 72 626 103 700 c 1,34,35
 161 752 161 752 230.5 792 c 128,-1,36
 300 832 300 832 395 847 c 1,37,38
 459 854 459 854 459 792 c 1,39,40
 457 759 457 759 452 719.5 c 128,-1,41
 447 680 447 680 437 635 c 1,42,-1
 438 635 l 1,43,44
 433 605 433 605 430.5 578.5 c 128,-1,45
 428 552 428 552 428 527 c 0,46,47
 428 515 428 515 428 503.5 c 128,-1,48
 428 492 428 492 430 479 c 1,49,50
 438 372 438 372 506 344 c 0,51,52
 529 334 529 334 553.5 330 c 128,-1,53
 578 326 578 326 604 326 c 0,54,55
 635 326 635 326 673 332 c 1,56,57
 773 351 773 351 870 402 c 0,58,59
 961 450 961 450 1013 494 c 1,60,61
 1013 513 1013 513 1011.5 533 c 128,-1,62
 1010 553 1010 553 1008 579 c 0,63,64
 1006 598 1006 598 1004 612.5 c 128,-1,65
 1002 627 1002 627 997 639 c 1,66,67
 965 633 965 633 933 633 c 0,68,69
 926 633 926 633 918 633 c 128,-1,70
 910 633 910 633 903 634 c 0,71,72
 840 639 840 639 807 676 c 1,73,-1
 807 675 l 1,74,75
 793 692 793 692 786 709.5 c 128,-1,76
 779 727 779 727 779 748 c 0,77,78
 779 781 779 781 802 824 c 1,79,-1
 802 823 l 1,80,81
 818 855 818 855 832.5 887.5 c 128,-1,82
 847 920 847 920 862 955 c 1,83,84
 879 990 879 990 899.5 1023 c 128,-1,85
 920 1056 920 1056 944 1083 c 0,86,87
 961 1101 961 1101 981.5 1107 c 128,-1,88
 1002 1113 1002 1113 1027 1103 c 0,89,90
 1045 1095 1045 1095 1059.5 1086.5 c 128,-1,91
 1074 1078 1074 1078 1087 1067 c 1,92,93
 1140 1012 1140 1012 1167 944 c 128,-1,94
 1194 876 1194 876 1194 793 c 0,95,96
 1194 763 1194 763 1190 729.5 c 128,-1,97
 1186 696 1186 696 1178 659 c 0,98,99
 1123 406 1123 406 1021 258 c 0,5,6
EndSplineSet
MultipleSubs2: "'medi' Medial Forms in Arabic lookup 3 subtable" _.notdef_35 noqtatan_A
MultipleSubs2: "'fina' Terminal Forms in Arabic lookup 2 subtable" _.notdef_37
MultipleSubs2: "'init' Initial Forms in Arabic lookup 1 subtable" _.notdef_34 noqtatan_A
MultipleSubs2: "'isol' Isolated Forms in Arabic lookup 0 subtable" _.notdef_36
EndChar

StartChar: afii57443
Encoding: 1603 1603 62
AltUni2: 00fed9.ffffffff.0
Width: 1164
GlyphClass: 2
Flags: W
LayerCount: 2
Fore
SplineSet
961 474 m 2,0,1
 959 472 959 472 959 485 c 2,2,-1
 959 496 l 1,3,-1
 903 1232 l 1,4,-1
 1053 1482 l 2,5,6
 1058 1490 1058 1490 1065.5 1492.5 c 128,-1,7
 1073 1495 1073 1495 1080 1493.5 c 128,-1,8
 1087 1492 1087 1492 1092 1486.5 c 128,-1,9
 1097 1481 1097 1481 1098 1472 c 2,10,-1
 1156 707 l 1,11,-1
 1156 709 l 1,12,13
 1157 704 1157 704 1157 697.5 c 128,-1,14
 1157 691 1157 691 1157 684 c 0,15,16
 1157 642 1157 642 1148 600.5 c 128,-1,17
 1139 559 1139 559 1122 521 c 0,18,19
 1103 479 1103 479 1080.5 438 c 128,-1,20
 1058 397 1058 397 1035 359 c 1,21,22
 997 302 997 302 940.5 250.5 c 128,-1,23
 884 199 884 199 810 151 c 1,24,25
 662 58 662 58 506 21 c 0,26,27
 427 2 427 2 351 2 c 0,28,29
 276 2 276 2 207 21 c 1,30,-1
 208 21 l 1,31,32
 136 39 136 39 85 89 c 128,-1,33
 34 139 34 139 5 213 c 0,34,35
 1 225 1 225 -3 240 c 128,-1,36
 -7 255 -7 255 -10 271 c 128,-1,37
 -13 287 -13 287 -15 302.5 c 128,-1,38
 -17 318 -17 318 -17 331 c 0,39,40
 -17 376 -17 376 -5 423.5 c 128,-1,41
 7 471 7 471 28 519 c 1,42,43
 63 593 63 593 101.5 663.5 c 128,-1,44
 140 734 140 734 176 791 c 1,45,-1
 176 790 l 1,46,47
 412 1161 412 1161 569 1190 c 0,48,49
 582 1192 582 1192 594.5 1193.5 c 128,-1,50
 607 1195 607 1195 621 1195 c 0,51,52
 746 1195 746 1195 779 1071 c 0,53,54
 791 1029 791 1029 791 985 c 0,55,56
 791 929 791 929 774 865 c 128,-1,57
 757 801 757 801 726 731 c 1,58,59
 678 629 678 629 593.5 555 c 128,-1,60
 509 481 509 481 385 436 c 0,61,62
 369 431 369 431 359 441 c 128,-1,63
 349 451 349 451 354 467 c 2,64,-1
 439 726 l 2,65,66
 441 731 441 731 446.5 735.5 c 128,-1,67
 452 740 452 740 457 741 c 0,68,69
 483 746 483 746 501.5 752 c 128,-1,70
 520 758 520 758 533 763 c 2,71,-1
 593 791 l 1,72,73
 571 904 571 904 511 904 c 0,74,75
 502 904 502 904 492 902.5 c 128,-1,76
 482 901 482 901 471 896 c 0,77,78
 414 872 414 872 366 834.5 c 128,-1,79
 318 797 318 797 285 750 c 1,80,81
 252 700 252 700 220 649.5 c 128,-1,82
 188 599 188 599 160 548 c 1,83,84
 146 520 146 520 146 496 c 0,85,86
 146 436 146 436 229 371 c 0,87,88
 292 321 292 321 391 318 c 0,89,90
 398 317 398 317 403 317 c 128,-1,91
 408 317 408 317 413 317 c 0,92,93
 501 317 501 317 593 337 c 1,94,95
 647 350 647 350 698.5 365.5 c 128,-1,96
 750 381 750 381 800 401 c 1,97,-1
 799 401 l 1,98,99
 901 443 901 443 964 476 c 1,100,-1
 961 474 l 2,0,1
EndSplineSet
MultipleSubs2: "'medi' Medial Forms in Arabic lookup 3 subtable" __.notdef_41
MultipleSubs2: "'fina' Terminal Forms in Arabic lookup 2 subtable" _.notdef_39
MultipleSubs2: "'init' Initial Forms in Arabic lookup 1 subtable" __.notdef_40
MultipleSubs2: "'isol' Isolated Forms in Arabic lookup 0 subtable" _.notdef_38
EndChar

StartChar: afii57444
Encoding: 1604 1604 63
AltUni2: 00fedd.ffffffff.0
Width: 882
GlyphClass: 2
Flags: W
LayerCount: 2
Fore
SplineSet
633 1347 m 1,0,-1
 783 1587 l 2,1,2
 793 1602 793 1602 809.5 1598 c 128,-1,3
 826 1594 826 1594 828 1576 c 2,4,-1
 876 803 l 2,5,6
 876 801 876 801 876.5 800 c 128,-1,7
 877 799 877 799 877 797 c 0,8,9
 878 792 878 792 878 785.5 c 128,-1,10
 878 779 878 779 878 775 c 2,11,-1
 880 753 l 1,12,-1
 879 749 l 1,13,14
 879 618 879 618 836.5 493 c 128,-1,15
 794 368 794 368 720 260 c 0,16,17
 606 96 606 96 433 33 c 0,18,19
 343 1 343 1 266 1 c 0,20,21
 196 1 196 1 131 32 c 1,22,-1
 131 31 l 1,23,24
 68 62 68 62 31 130.5 c 128,-1,25
 -6 199 -6 199 -17 298 c 0,26,27
 -18 305 -18 305 -18 314 c 128,-1,28
 -18 323 -18 323 -18 330 c 0,29,30
 -18 425 -18 425 28 557.5 c 128,-1,31
 74 690 74 690 159 846 c 1,32,33
 177 876 177 876 199 876 c 0,34,35
 202 876 202 876 205.5 875.5 c 128,-1,36
 209 875 209 875 215 873 c 1,37,38
 234 863 234 863 234 839 c 0,39,40
 234 831 234 831 232.5 822 c 128,-1,41
 231 813 231 813 226 801 c 0,42,43
 214 775 214 775 198.5 744.5 c 128,-1,44
 183 714 183 714 165 678 c 0,45,46
 148 645 148 645 134.5 611 c 128,-1,47
 121 577 121 577 113 542 c 0,48,49
 104 507 104 507 104 472 c 0,50,51
 104 444 104 444 110 420 c 0,52,53
 122 370 122 370 188 342 c 1,54,55
 218 337 218 337 246.5 334.5 c 128,-1,56
 275 332 275 332 301 332 c 0,57,58
 345 332 345 332 388.5 339.5 c 128,-1,59
 432 347 432 347 474 360 c 1,60,61
 600 404 600 404 689 476 c 1,62,-1
 633 1347 l 1,0,-1
EndSplineSet
MultipleSubs2: "'medi' Medial Forms in Arabic lookup 3 subtable" __.notdef_45
MultipleSubs2: "'fina' Terminal Forms in Arabic lookup 2 subtable" __.notdef_43
MultipleSubs2: "'init' Initial Forms in Arabic lookup 1 subtable" __.notdef_44
MultipleSubs2: "'isol' Isolated Forms in Arabic lookup 0 subtable" __.notdef_42
EndChar

StartChar: afii57445
Encoding: 1605 1605 64
AltUni2: 00fee1.ffffffff.0
Width: 1056
GlyphClass: 2
Flags: W
LayerCount: 2
Fore
SplineSet
990 1016 m 0,0,1
 954 836 954 836 859 706 c 128,-1,2
 764 576 764 576 624 501 c 1,3,4
 573 475 573 475 516.5 455.5 c 128,-1,5
 460 436 460 436 400 423 c 0,6,7
 282 399 282 399 189 349 c 0,8,9
 151 328 151 328 119 300 c 1,10,11
 101 282 101 282 101 249 c 0,12,13
 101 244 101 244 101 238.5 c 128,-1,14
 101 233 101 233 103 225 c 2,15,-1
 184 -292 l 1,16,17
 193 -361 193 -361 193 -432 c 0,18,19
 193 -569 193 -569 157 -695 c 0,20,21
 154 -704 154 -704 147 -708 c 128,-1,22
 140 -712 140 -712 132 -711.5 c 128,-1,23
 124 -711 124 -711 117.5 -705.5 c 128,-1,24
 111 -700 111 -700 110 -691 c 0,25,26
 96 -585 96 -585 76.5 -485.5 c 128,-1,27
 57 -386 57 -386 34 -292 c 1,28,29
 11 -192 11 -192 -2 -89.5 c 128,-1,30
 -15 13 -15 13 -16 122 c 1,31,32
 -16 233 -16 233 7 337.5 c 128,-1,33
 30 442 30 442 68 528 c 1,34,35
 125 615 125 615 215 652 c 0,36,37
 257 669 257 669 308 687 c 128,-1,38
 359 705 359 705 413 720 c 0,39,40
 448 730 448 730 480 738.5 c 128,-1,41
 512 747 512 747 547 758 c 1,42,43
 560 787 560 787 579.5 834.5 c 128,-1,44
 599 882 599 882 627 951 c 0,45,46
 659 1032 659 1032 690 1072.5 c 128,-1,47
 721 1113 721 1113 755 1115 c 1,48,49
 788 1124 788 1124 845 1124 c 0,50,51
 856 1124 856 1124 867.5 1124 c 128,-1,52
 879 1124 879 1124 891 1123 c 0,53,54
 950 1119 950 1119 975.5 1092.5 c 128,-1,55
 1001 1066 1001 1066 990 1016 c 0,0,1
EndSplineSet
MultipleSubs2: "'medi' Medial Forms in Arabic lookup 3 subtable" __.notdef_49
MultipleSubs2: "'fina' Terminal Forms in Arabic lookup 2 subtable" __.notdef_47
MultipleSubs2: "'init' Initial Forms in Arabic lookup 1 subtable" __.notdef_48
MultipleSubs2: "'isol' Isolated Forms in Arabic lookup 0 subtable" __.notdef_46
EndChar

StartChar: afii57446
Encoding: 1606 1606 65
AltUni2: 00fee5.ffffffff.0
Width: 950
GlyphClass: 2
Flags: W
LayerCount: 2
Fore
SplineSet
209 734 m 1,0,1
 184 683 184 683 160.5 626 c 128,-1,2
 137 569 137 569 113 506 c 1,3,-1
 114 507 l 1,4,5
 108 490 108 490 104.5 475.5 c 128,-1,6
 101 461 101 461 101 448 c 0,7,8
 101 381 101 381 188 342 c 1,9,10
 252 331 252 331 303 331 c 0,11,12
 404 331 404 331 490 365 c 0,13,14
 558 391 558 391 612.5 422.5 c 128,-1,15
 667 454 667 454 712 495 c 1,16,-1
 712 502 l 2,17,18
 712 539 712 539 708.5 571 c 128,-1,19
 705 603 705 603 699 632 c 1,20,-1
 699 631 l 1,21,22
 691 666 691 666 680.5 704 c 128,-1,23
 670 742 670 742 660 775 c 1,24,-1
 772 1030 l 2,25,26
 778 1045 778 1045 793.5 1045.5 c 128,-1,27
 809 1046 809 1046 816 1031 c 0,28,29
 881 893 881 893 881 750 c 0,30,31
 881 719 881 719 878 690 c 128,-1,32
 875 661 875 661 870 632 c 0,33,34
 851 528 851 528 814 435.5 c 128,-1,35
 777 343 777 343 720 260 c 0,36,37
 606 96 606 96 433 33 c 0,38,39
 343 1 343 1 266 1 c 0,40,41
 196 1 196 1 131 32 c 1,42,-1
 131 31 l 1,43,44
 68 62 68 62 31 130.5 c 128,-1,45
 -6 199 -6 199 -17 298 c 0,46,47
 -18 305 -18 305 -18 314 c 128,-1,48
 -18 323 -18 323 -18 330 c 0,49,50
 -18 425 -18 425 28 557.5 c 128,-1,51
 74 690 74 690 159 846 c 0,52,53
 176 877 176 877 195.5 912.5 c 128,-1,54
 215 948 215 948 235 983 c 2,55,-1
 265 1034 l 2,56,57
 270 1043 270 1043 279.5 1045.5 c 128,-1,58
 289 1048 289 1048 297 1043 c 2,59,-1
 325 1027 l 1,60,-1
 327 1027 l 1,61,-1
 489 919 l 2,62,63
 496 914 496 914 498.5 904.5 c 128,-1,64
 501 895 501 895 496 887 c 0,65,66
 464 828 464 828 432.5 772 c 128,-1,67
 401 716 401 716 369 660 c 0,68,69
 364 650 364 650 353.5 648 c 128,-1,70
 343 646 343 646 334 651 c 2,71,-1
 209 734 l 1,0,1
EndSplineSet
MultipleSubs2: "'medi' Medial Forms in Arabic lookup 3 subtable" _.notdef_7 noqta_A
MultipleSubs2: "'fina' Terminal Forms in Arabic lookup 2 subtable" __.notdef_51
MultipleSubs2: "'init' Initial Forms in Arabic lookup 1 subtable" _.notdef_6 noqta_A
MultipleSubs2: "'isol' Isolated Forms in Arabic lookup 0 subtable" __.notdef_50
EndChar

StartChar: afii57470
Encoding: 1607 1607 66
AltUni2: 00fee9.ffffffff.0
Width: 506
GlyphClass: 2
Flags: W
LayerCount: 2
Fore
SplineSet
113 347 m 0,0,1
 113 348 113 348 114 349 c 1,2,-1
 114 347 l 1,3,4
 113 345 113 345 113 347 c 0,0,1
264 531 m 0,5,6
 247 542 247 542 236 542 c 0,7,8
 221 542 221 542 204 525.5 c 128,-1,9
 187 509 187 509 172 477 c 0,10,11
 147 427 147 427 132.5 394 c 128,-1,12
 118 361 118 361 114 349 c 1,13,14
 118 349 118 349 127 345 c 1,15,-1
 126 345 l 1,16,17
 154 331 154 331 187 331 c 0,18,19
 197 331 197 331 208 333 c 128,-1,20
 219 335 219 335 230 338 c 0,21,22
 291 354 291 354 330 379 c 1,23,-1
 328 378 l 2,24,25
 329 379 329 379 329 383 c 0,26,27
 329 391 329 391 323.5 408.5 c 128,-1,28
 318 426 318 426 310 446 c 0,29,30
 294 484 294 484 282.5 505.5 c 128,-1,31
 271 527 271 527 264 531 c 0,5,6
456 353 m 0,32,33
 443 294 443 294 424 243 c 128,-1,34
 405 192 405 192 379 145 c 0,35,36
 324 46 324 46 188 11 c 0,37,38
 141 -1 141 -1 108 -1 c 0,39,40
 -18 -1 -18 -1 -18 136 c 0,41,42
 -18 139 -18 139 -18.5 141 c 128,-1,43
 -19 143 -19 143 -17 147 c 1,44,45
 -16 225 -16 225 -1 304.5 c 128,-1,46
 14 384 14 384 43 471 c 0,47,48
 128 722 128 722 216 804 c 1,49,50
 275 862 275 862 329 862 c 0,51,52
 358 862 358 862 384 845 c 1,53,54
 449 799 449 799 473 659 c 1,55,56
 476 635 476 635 478 609 c 128,-1,57
 480 583 480 583 480 555 c 0,58,59
 480 509 480 509 474.5 458.5 c 128,-1,60
 469 408 469 408 456 353 c 0,32,33
EndSplineSet
MultipleSubs2: "'medi' Medial Forms in Arabic lookup 3 subtable" __.notdef_56
MultipleSubs2: "'fina' Terminal Forms in Arabic lookup 2 subtable" __.notdef_53
MultipleSubs2: "'init' Initial Forms in Arabic lookup 1 subtable" __.notdef_54
MultipleSubs2: "'isol' Isolated Forms in Arabic lookup 0 subtable" __.notdef_52
EndChar

StartChar: afii57448
Encoding: 1608 1608 67
AltUni2: 00feed.ffffffff.0
Width: 1001
GlyphClass: 2
Flags: W
LayerCount: 2
Fore
SplineSet
466 16 m 1,0,1
 421 8 421 8 375 4 c 128,-1,2
 329 0 329 0 280 0 c 0,3,4
 270 0 270 0 259.5 0 c 128,-1,5
 249 0 249 0 238 1 c 0,6,7
 183 3 183 3 126.5 7 c 128,-1,8
 70 11 70 11 16 16 c 0,9,10
 -16 18 -16 18 -16 52 c 0,11,12
 -16 75 -16 75 3 88 c 1,13,14
 82 132 82 132 164.5 170 c 128,-1,15
 247 208 247 208 335 242 c 0,16,17
 422 275 422 275 507.5 309 c 128,-1,18
 593 343 593 343 679 378 c 0,19,20
 720 394 720 394 755 418.5 c 128,-1,21
 790 443 790 443 819 475 c 1,22,-1
 819 478 l 1,23,24
 818 479 818 479 818 482 c 0,25,26
 818 484 818 484 817.5 486.5 c 128,-1,27
 817 489 817 489 817 493 c 1,28,-1
 818 490 l 2,29,30
 817 495 817 495 815.5 499 c 128,-1,31
 814 503 814 503 812 507 c 1,32,33
 797 504 797 504 782.5 503 c 128,-1,34
 768 502 768 502 752 502 c 0,35,36
 744 502 744 502 735.5 502.5 c 128,-1,37
 727 503 727 503 721 504 c 0,38,39
 655 509 655 509 624 546 c 1,40,-1
 624 545 l 1,41,42
 610 561 610 561 603 578.5 c 128,-1,43
 596 596 596 596 596 617 c 0,44,45
 596 653 596 653 617 694 c 0,46,47
 634 726 634 726 649 758 c 128,-1,48
 664 790 664 790 679 824 c 0,49,50
 710 897 710 897 760 953 c 1,51,52
 784 978 784 978 814 978 c 0,53,54
 822 978 822 978 829 977 c 128,-1,55
 836 976 836 976 844 972 c 1,56,-1
 843 972 l 1,57,58
 862 964 862 964 877 955.5 c 128,-1,59
 892 947 892 947 903 936 c 0,60,61
 1002 835 1002 835 1002 695 c 2,62,-1
 1002 681 l 1,63,64
 1000 609 1000 609 979.5 537 c 128,-1,65
 959 465 959 465 924 396 c 1,66,67
 888 330 888 330 839 267.5 c 128,-1,68
 790 205 790 205 729 152 c 0,69,70
 607 45 607 45 467 16 c 1,71,-1
 466 16 l 1,0,1
EndSplineSet
MultipleSubs2: "'fina' Terminal Forms in Arabic lookup 2 subtable" __.notdef_58
MultipleSubs2: "'isol' Isolated Forms in Arabic lookup 0 subtable" __.notdef_57
EndChar

StartChar: afii57449
Encoding: 1609 1609 68
AltUni2: 00feef.ffffffff.0
Width: 1261
GlyphClass: 2
Flags: W
LayerCount: 2
Fore
SplineSet
154 49 m 0,0,1
 14 126 14 126 -5 264 c 1,2,-1
 -5 263 l 1,3,4
 -11 302 -11 302 -11 346 c 0,5,6
 -11 391 -11 391 -3.5 439.5 c 128,-1,7
 4 488 4 488 17 534 c 0,8,9
 37 600 37 600 65.5 670 c 128,-1,10
 94 740 94 740 129 800 c 0,11,12
 164 862 164 862 196 913.5 c 128,-1,13
 228 965 228 965 255 1002 c 1,14,15
 266 1013 266 1013 280 1013 c 0,16,17
 282 1013 282 1013 286 1012.5 c 128,-1,18
 290 1012 290 1012 296 1009 c 2,19,-1
 293 1011 l 1,20,21
 313 1004 313 1004 313 982 c 0,22,23
 313 977 313 977 312 972.5 c 128,-1,24
 311 968 311 968 309 963 c 0,25,26
 295 933 295 933 276.5 897 c 128,-1,27
 258 861 258 861 235 819 c 0,28,29
 213 780 213 780 196 739.5 c 128,-1,30
 179 699 179 699 165 657 c 1,31,-1
 165 658 l 1,32,33
 156 627 156 627 151 596.5 c 128,-1,34
 146 566 146 566 146 535 c 0,35,36
 146 526 146 526 146.5 517.5 c 128,-1,37
 147 509 147 509 148 500 c 0,38,39
 154 429 154 429 222 376 c 0,40,41
 252 352 252 352 295 338.5 c 128,-1,42
 338 325 338 325 392 321 c 0,43,44
 407 320 407 320 424 319.5 c 128,-1,45
 441 319 441 319 455 319 c 0,46,47
 493 319 493 319 531.5 322.5 c 128,-1,48
 570 326 570 326 606 333 c 0,49,50
 797 368 797 368 961 459 c 1,51,52
 928 466 928 466 897.5 474.5 c 128,-1,53
 867 483 867 483 838 496 c 0,54,55
 745 537 745 537 719 627 c 0,56,57
 713 649 713 649 713 674 c 0,58,59
 713 756 713 756 785 885 c 0,60,61
 876 1046 876 1046 940 1107 c 1,62,-1
 939 1107 l 1,63,64
 953 1121 953 1121 970 1135.5 c 128,-1,65
 987 1150 987 1150 1011 1168 c 1,66,-1
 1010 1168 l 1,67,68
 1055 1204 1055 1204 1119 1209 c 0,69,70
 1129 1209 1129 1209 1144 1205 c 1,71,-1
 1143 1206 l 1,72,73
 1159 1204 1159 1204 1166 1194.5 c 128,-1,74
 1173 1185 1173 1185 1173 1172 c 0,75,76
 1173 1168 1173 1168 1172.5 1164.5 c 128,-1,77
 1172 1161 1172 1161 1168 1154 c 1,78,-1
 1169 1154 l 1,79,80
 1159 1133 1159 1133 1150 1112.5 c 128,-1,81
 1141 1092 1141 1092 1133 1070 c 0,82,83
 1119 1035 1119 1035 1105 1002.5 c 128,-1,84
 1091 970 1091 970 1073 940 c 0,85,86
 1069 934 1069 934 1061 931 c 128,-1,87
 1053 928 1053 928 1046 930 c 0,88,89
 1040 932 1040 932 1034.5 932 c 128,-1,90
 1029 932 1029 932 1022 932 c 0,91,92
 999 932 999 932 972 923 c 1,93,-1
 973 924 l 1,94,95
 951 916 951 916 935.5 905.5 c 128,-1,96
 920 895 920 895 911 881 c 1,97,-1
 911 882 l 1,98,99
 904 872 904 872 904 863 c 0,100,101
 904 858 904 858 907 851 c 128,-1,102
 910 844 910 844 915 836 c 0,103,104
 927 820 927 820 959.5 804 c 128,-1,105
 992 788 992 788 1047 773 c 0,106,107
 1084 762 1084 762 1129 756 c 1,108,-1
 1128 756 l 1,109,110
 1154 752 1154 752 1175 741.5 c 128,-1,111
 1196 731 1196 731 1213 714 c 0,112,113
 1251 673 1251 673 1251 618 c 0,114,115
 1251 558 1251 558 1201 479 c 1,116,117
 1169 431 1169 431 1121 379 c 128,-1,118
 1073 327 1073 327 1010 275 c 0,119,120
 947 224 947 224 879 180 c 128,-1,121
 811 136 811 136 736 100 c 1,122,123
 662 63 662 63 585 39.5 c 128,-1,124
 508 16 508 16 435 5 c 0,125,126
 397 -1 397 -1 358 -1 c 0,127,128
 244 -1 244 -1 154 49 c 0,0,1
EndSplineSet
MultipleSubs2: "'fina' Terminal Forms in Arabic lookup 2 subtable" __.notdef_60
MultipleSubs2: "'isol' Isolated Forms in Arabic lookup 0 subtable" __.notdef_59
EndChar

StartChar: afii57450
Encoding: 1610 1610 69
AltUni2: 00fef1.ffffffff.0
Width: 1261
GlyphClass: 2
Flags: W
LayerCount: 2
Fore
SplineSet
154 49 m 0,0,1
 14 126 14 126 -5 264 c 1,2,-1
 -5 263 l 1,3,4
 -11 302 -11 302 -11 346 c 0,5,6
 -11 391 -11 391 -3.5 439.5 c 128,-1,7
 4 488 4 488 17 534 c 0,8,9
 37 600 37 600 65.5 670 c 128,-1,10
 94 740 94 740 129 800 c 0,11,12
 164 862 164 862 196 913.5 c 128,-1,13
 228 965 228 965 255 1002 c 1,14,15
 266 1013 266 1013 280 1013 c 0,16,17
 282 1013 282 1013 286 1012.5 c 128,-1,18
 290 1012 290 1012 296 1009 c 2,19,-1
 293 1011 l 1,20,21
 313 1004 313 1004 313 982 c 0,22,23
 313 977 313 977 312 972.5 c 128,-1,24
 311 968 311 968 309 963 c 0,25,26
 295 933 295 933 276.5 897 c 128,-1,27
 258 861 258 861 235 819 c 0,28,29
 213 780 213 780 196 739.5 c 128,-1,30
 179 699 179 699 165 657 c 1,31,-1
 165 658 l 1,32,33
 156 627 156 627 151 596.5 c 128,-1,34
 146 566 146 566 146 535 c 0,35,36
 146 526 146 526 146.5 517.5 c 128,-1,37
 147 509 147 509 148 500 c 0,38,39
 154 429 154 429 222 376 c 0,40,41
 252 352 252 352 295 338.5 c 128,-1,42
 338 325 338 325 392 321 c 0,43,44
 407 320 407 320 424 319.5 c 128,-1,45
 441 319 441 319 455 319 c 0,46,47
 493 319 493 319 531.5 322.5 c 128,-1,48
 570 326 570 326 606 333 c 0,49,50
 797 368 797 368 961 459 c 1,51,52
 928 466 928 466 897.5 474.5 c 128,-1,53
 867 483 867 483 838 496 c 0,54,55
 745 537 745 537 719 627 c 0,56,57
 713 649 713 649 713 674 c 0,58,59
 713 756 713 756 785 885 c 0,60,61
 876 1046 876 1046 940 1107 c 1,62,-1
 939 1107 l 1,63,64
 953 1121 953 1121 970 1135.5 c 128,-1,65
 987 1150 987 1150 1011 1168 c 1,66,-1
 1010 1168 l 1,67,68
 1055 1204 1055 1204 1119 1209 c 0,69,70
 1129 1209 1129 1209 1144 1205 c 1,71,-1
 1143 1206 l 1,72,73
 1159 1204 1159 1204 1166 1194.5 c 128,-1,74
 1173 1185 1173 1185 1173 1172 c 0,75,76
 1173 1168 1173 1168 1172.5 1164.5 c 128,-1,77
 1172 1161 1172 1161 1168 1154 c 1,78,-1
 1169 1154 l 1,79,80
 1159 1133 1159 1133 1150 1112.5 c 128,-1,81
 1141 1092 1141 1092 1133 1070 c 0,82,83
 1119 1035 1119 1035 1105 1002.5 c 128,-1,84
 1091 970 1091 970 1073 940 c 0,85,86
 1069 934 1069 934 1061 931 c 128,-1,87
 1053 928 1053 928 1046 930 c 0,88,89
 1040 932 1040 932 1034.5 932 c 128,-1,90
 1029 932 1029 932 1022 932 c 0,91,92
 999 932 999 932 972 923 c 1,93,-1
 973 924 l 1,94,95
 951 916 951 916 935.5 905.5 c 128,-1,96
 920 895 920 895 911 881 c 1,97,-1
 911 882 l 1,98,99
 904 872 904 872 904 863 c 0,100,101
 904 858 904 858 907 851 c 128,-1,102
 910 844 910 844 915 836 c 0,103,104
 927 820 927 820 959.5 804 c 128,-1,105
 992 788 992 788 1047 773 c 0,106,107
 1084 762 1084 762 1129 756 c 1,108,-1
 1128 756 l 1,109,110
 1154 752 1154 752 1175 741.5 c 128,-1,111
 1196 731 1196 731 1213 714 c 0,112,113
 1251 673 1251 673 1251 618 c 0,114,115
 1251 558 1251 558 1201 479 c 1,116,117
 1169 431 1169 431 1121 379 c 128,-1,118
 1073 327 1073 327 1010 275 c 0,119,120
 947 224 947 224 879 180 c 128,-1,121
 811 136 811 136 736 100 c 1,122,123
 662 63 662 63 585 39.5 c 128,-1,124
 508 16 508 16 435 5 c 0,125,126
 397 -1 397 -1 358 -1 c 0,127,128
 244 -1 244 -1 154 49 c 0,0,1
698 -256 m 2,129,130
 696 -260 696 -260 690.5 -264.5 c 128,-1,131
 685 -269 685 -269 681 -270 c 2,132,-1
 477 -307 l 1,133,-1
 301 -340 l 2,134,135
 285 -343 285 -343 276.5 -331.5 c 128,-1,136
 268 -320 268 -320 275 -305 c 2,137,-1
 393 -70 l 2,138,139
 395 -66 395 -66 400.5 -61.5 c 128,-1,140
 406 -57 406 -57 411 -56 c 0,141,142
 515 -38 515 -38 608.5 -20.5 c 128,-1,143
 702 -3 702 -3 790 14 c 0,144,145
 807 17 807 17 815.5 5.5 c 128,-1,146
 824 -6 824 -6 817 -20 c 2,147,-1
 698 -256 l 2,129,130
EndSplineSet
MultipleSubs2: "'medi' Medial Forms in Arabic lookup 3 subtable" _.notdef_7 noqtatan_B
MultipleSubs2: "'fina' Terminal Forms in Arabic lookup 2 subtable" __.notdef_60 noqtatan_B
MultipleSubs2: "'init' Initial Forms in Arabic lookup 1 subtable" _.notdef_6 noqtatan_B
MultipleSubs2: "'isol' Isolated Forms in Arabic lookup 0 subtable" __.notdef_59 noqtatan_B
EndChar

StartChar: uniFE82
Encoding: 65154 65154 70
Width: 217
GlyphClass: 2
Flags: W
LayerCount: 2
Fore
SplineSet
111 1157 m 1,0,-1
 239 1395 l 2,1,2
 243 1403 243 1403 250.5 1406 c 128,-1,3
 258 1409 258 1409 265.5 1407.5 c 128,-1,4
 273 1406 273 1406 278.5 1400.5 c 128,-1,5
 284 1395 284 1395 285 1386 c 2,6,-1
 360 292 l 1,7,-1
 235 14 l 2,8,9
 231 5 231 5 223.5 2 c 128,-1,10
 216 -1 216 -1 208.5 0 c 128,-1,11
 201 1 201 1 195.5 7 c 128,-1,12
 190 13 190 13 189 22 c 2,13,-1
 111 1157 l 1,0,-1
472 1480 m 1,14,15
 392 1429 392 1429 267 1403 c 0,16,17
 248 1399 248 1399 229 1397 c 128,-1,18
 210 1395 210 1395 189 1395 c 0,19,20
 101 1395 101 1395 23 1437 c 1,21,-1
 24 1437 l 1,22,23
 20 1439 20 1439 17 1439 c 1,24,-1
 -18 1418 l 2,25,26
 -30 1411 -30 1411 -49.5 1393.5 c 128,-1,27
 -69 1376 -69 1376 -89 1355 c 0,28,29
 -101 1342 -101 1342 -112.5 1335.5 c 128,-1,30
 -124 1329 -124 1329 -138 1334 c 0,31,32
 -143 1336 -143 1336 -148 1342.5 c 128,-1,33
 -153 1349 -153 1349 -153 1356 c 0,34,35
 -153 1364 -153 1364 -144 1383.5 c 128,-1,36
 -135 1403 -135 1403 -118 1433 c 0,37,38
 -91 1478 -91 1478 -48.5 1518.5 c 128,-1,39
 -6 1559 -6 1559 48 1587 c 0,40,41
 52 1589 52 1589 56.5 1590.5 c 128,-1,42
 61 1592 61 1592 66 1592 c 0,43,44
 80 1592 80 1592 104 1581 c 0,45,46
 178 1544 178 1544 258 1544 c 0,47,48
 290 1544 290 1544 333 1552 c 1,49,-1
 332 1552 l 1,50,51
 455 1576 455 1576 519 1633 c 1,52,-1
 518 1632 l 2,53,54
 527 1642 527 1642 540 1642 c 0,55,56
 554 1642 554 1642 560.5 1631 c 128,-1,57
 567 1620 567 1620 567 1601 c 1,58,-1
 472 1480 l 1,14,15
EndSplineSet
EndChar

StartChar: uniFE84
Encoding: 65156 65156 71
Width: 217
GlyphClass: 2
Flags: W
LayerCount: 2
Fore
SplineSet
110 1157 m 1,0,-1
 239 1395 l 2,1,2
 243 1403 243 1403 250.5 1406 c 128,-1,3
 258 1409 258 1409 265 1407.5 c 128,-1,4
 272 1406 272 1406 277.5 1400.5 c 128,-1,5
 283 1395 283 1395 284 1386 c 2,6,-1
 360 292 l 1,7,-1
 235 14 l 2,8,9
 231 5 231 5 223.5 2 c 128,-1,10
 216 -1 216 -1 208.5 0 c 128,-1,11
 201 1 201 1 195.5 7 c 128,-1,12
 190 13 190 13 189 22 c 2,13,-1
 110 1157 l 1,0,-1
296 1713 m 1,14,15
 287 1696 287 1696 274 1683.5 c 128,-1,16
 261 1671 261 1671 241 1662 c 0,17,18
 224 1655 224 1655 213 1644 c 1,19,20
 218 1642 218 1642 222.5 1639.5 c 128,-1,21
 227 1637 227 1637 232 1636 c 0,22,23
 249 1631 249 1631 264 1625 c 128,-1,24
 279 1619 279 1619 292 1611 c 0,25,26
 330 1585 330 1585 330 1545 c 0,27,28
 330 1527 330 1527 320 1502 c 0,29,30
 298 1443 298 1443 235 1400 c 1,31,-1
 236 1400 l 1,32,33
 210 1381 210 1381 183 1369.5 c 128,-1,34
 156 1358 156 1358 128 1353 c 2,35,-1
 49 1340 l 1,36,-1
 23 1336 l 2,37,38
 13 1335 13 1335 7 1341 c 128,-1,39
 1 1347 1 1347 -1 1355 c 128,-1,40
 -3 1363 -3 1363 0 1371 c 128,-1,41
 3 1379 3 1379 12 1383 c 2,42,-1
 56 1402 l 1,43,-1
 55 1402 l 1,44,45
 86 1416 86 1416 116.5 1429.5 c 128,-1,46
 147 1443 147 1443 176 1458 c 1,47,48
 173 1460 173 1460 170.5 1460.5 c 128,-1,49
 168 1461 168 1461 166 1463 c 2,50,-1
 126 1483 l 1,51,-1
 127 1483 l 1,52,53
 78 1510 78 1510 78 1559 c 0,54,55
 78 1602 78 1602 126 1665 c 0,56,57
 166 1718 166 1718 197.5 1753 c 128,-1,58
 229 1788 229 1788 250 1805 c 0,59,60
 269 1820 269 1820 306 1836 c 0,61,62
 314 1840 314 1840 321.5 1838.5 c 128,-1,63
 329 1837 329 1837 334 1832 c 128,-1,64
 339 1827 339 1827 340.5 1819.5 c 128,-1,65
 342 1812 342 1812 338 1804 c 2,66,-1
 296 1713 l 1,14,15
EndSplineSet
EndChar

StartChar: uniFE86
Encoding: 65158 65158 72
Width: 1001
GlyphClass: 2
Flags: W
LayerCount: 2
Fore
SplineSet
466 16 m 1,0,1
 421 8 421 8 375 4 c 128,-1,2
 329 0 329 0 280 0 c 0,3,4
 270 0 270 0 259.5 0 c 128,-1,5
 249 0 249 0 238 1 c 0,6,7
 183 3 183 3 126.5 7 c 128,-1,8
 70 11 70 11 16 16 c 0,9,10
 -16 18 -16 18 -16 52 c 0,11,12
 -16 75 -16 75 3 88 c 1,13,14
 82 132 82 132 164.5 170 c 128,-1,15
 247 208 247 208 335 242 c 0,16,17
 422 275 422 275 507.5 309 c 128,-1,18
 593 343 593 343 679 378 c 0,19,20
 720 394 720 394 755 418.5 c 128,-1,21
 790 443 790 443 819 475 c 1,22,-1
 819 478 l 1,23,24
 818 479 818 479 818 482 c 0,25,26
 818 484 818 484 817.5 486.5 c 128,-1,27
 817 489 817 489 817 493 c 1,28,-1
 818 490 l 2,29,30
 817 495 817 495 815.5 499 c 128,-1,31
 814 503 814 503 812 507 c 1,32,33
 797 504 797 504 782.5 503 c 128,-1,34
 768 502 768 502 752 502 c 0,35,36
 744 502 744 502 735.5 502.5 c 128,-1,37
 727 503 727 503 721 504 c 0,38,39
 655 509 655 509 624 546 c 1,40,-1
 624 545 l 1,41,42
 610 561 610 561 603 578.5 c 128,-1,43
 596 596 596 596 596 617 c 0,44,45
 596 653 596 653 617 694 c 0,46,47
 634 726 634 726 649 758 c 128,-1,48
 664 790 664 790 679 824 c 0,49,50
 710 897 710 897 760 953 c 1,51,52
 784 978 784 978 814 978 c 0,53,54
 822 978 822 978 829 977 c 128,-1,55
 836 976 836 976 844 972 c 1,56,-1
 843 972 l 1,57,58
 862 964 862 964 877 955.5 c 128,-1,59
 892 947 892 947 903 936 c 0,60,61
 1002 835 1002 835 1002 695 c 2,62,-1
 1002 681 l 1,63,64
 1000 609 1000 609 979.5 537 c 128,-1,65
 959 465 959 465 924 396 c 1,66,67
 888 330 888 330 839 267.5 c 128,-1,68
 790 205 790 205 729 152 c 0,69,70
 607 45 607 45 467 16 c 1,71,-1
 466 16 l 1,0,1
931 1402 m 1,72,73
 913 1367 913 1367 876 1351 c 0,74,75
 861 1344 861 1344 848 1333 c 1,76,77
 853 1331 853 1331 857.5 1328.5 c 128,-1,78
 862 1326 862 1326 867 1325 c 0,79,80
 885 1320 885 1320 899.5 1314 c 128,-1,81
 914 1308 914 1308 927 1300 c 0,82,83
 965 1275 965 1275 965 1234 c 0,84,85
 965 1223 965 1223 962.5 1212.5 c 128,-1,86
 960 1202 960 1202 955 1190 c 0,87,88
 933 1132 933 1132 870 1089 c 1,89,-1
 871 1089 l 1,90,91
 821 1051 821 1051 763 1042 c 2,92,-1
 685 1029 l 1,93,-1
 659 1025 l 2,94,95
 649 1024 649 1024 642.5 1029.5 c 128,-1,96
 636 1035 636 1035 634 1043.5 c 128,-1,97
 632 1052 632 1052 635 1060 c 128,-1,98
 638 1068 638 1068 647 1072 c 2,99,-1
 692 1091 l 1,100,-1
 691 1091 l 1,101,102
 721 1104 721 1104 751.5 1118 c 128,-1,103
 782 1132 782 1132 811 1147 c 1,104,105
 809 1149 809 1149 806.5 1149.5 c 128,-1,106
 804 1150 804 1150 802 1152 c 2,107,-1
 761 1172 l 1,108,-1
 762 1172 l 1,109,110
 714 1198 714 1198 714 1248 c 0,111,112
 714 1292 714 1292 761 1354 c 0,113,114
 801 1406 801 1406 833 1441.5 c 128,-1,115
 865 1477 865 1477 886 1494 c 0,116,117
 896 1502 896 1502 910.5 1509.5 c 128,-1,118
 925 1517 925 1517 942 1525 c 0,119,120
 958 1532 958 1532 969.5 1520.5 c 128,-1,121
 981 1509 981 1509 974 1493 c 2,122,-1
 931 1402 l 1,72,73
EndSplineSet
EndChar

StartChar: uniFE88
Encoding: 65160 65160 73
Width: 217
GlyphClass: 2
Flags: W
LayerCount: 2
Fore
SplineSet
111 1157 m 1,0,-1
 239 1395 l 2,1,2
 243 1403 243 1403 250.5 1406 c 128,-1,3
 258 1409 258 1409 265.5 1407.5 c 128,-1,4
 273 1406 273 1406 278.5 1400.5 c 128,-1,5
 284 1395 284 1395 285 1386 c 2,6,-1
 360 292 l 1,7,-1
 235 14 l 2,8,9
 231 5 231 5 223.5 2 c 128,-1,10
 216 -1 216 -1 208.5 0 c 128,-1,11
 201 1 201 1 195.5 7 c 128,-1,12
 190 13 190 13 189 22 c 2,13,-1
 111 1157 l 1,0,-1
324 -147 m 2,14,15
 316 -164 316 -164 301 -176.5 c 128,-1,16
 286 -189 286 -189 269 -197 c 0,17,18
 263 -200 263 -200 254 -205.5 c 128,-1,19
 245 -211 245 -211 240 -216 c 1,20,21
 245 -220 245 -220 250 -221 c 128,-1,22
 255 -222 255 -222 260 -224 c 0,23,24
 278 -229 278 -229 292.5 -235 c 128,-1,25
 307 -241 307 -241 320 -249 c 0,26,27
 358 -275 358 -275 358 -315 c 0,28,29
 358 -326 358 -326 355.5 -336.5 c 128,-1,30
 353 -347 353 -347 348 -359 c 0,31,32
 326 -417 326 -417 263 -460 c 1,33,-1
 264 -460 l 1,34,35
 238 -479 238 -479 211 -491 c 128,-1,36
 184 -503 184 -503 156 -506 c 1,37,-1
 53 -524 l 2,38,39
 43 -526 43 -526 36.5 -520 c 128,-1,40
 30 -514 30 -514 27.5 -506 c 128,-1,41
 25 -498 25 -498 28 -489.5 c 128,-1,42
 31 -481 31 -481 40 -477 c 2,43,-1
 85 -458 l 1,44,-1
 84 -458 l 1,45,46
 114 -444 114 -444 144.5 -430 c 128,-1,47
 175 -416 175 -416 204 -402 c 1,48,-1
 195 -397 l 2,49,50
 188 -394 188 -394 174.5 -387.5 c 128,-1,51
 161 -381 161 -381 154 -376 c 1,52,-1
 155 -377 l 1,53,54
 107 -351 107 -351 107 -301 c 0,55,56
 107 -257 107 -257 154 -195 c 0,57,58
 194 -143 194 -143 226 -107.5 c 128,-1,59
 258 -72 258 -72 279 -55 c 0,60,61
 289 -47 289 -47 303.5 -39.5 c 128,-1,62
 318 -32 318 -32 335 -24 c 0,63,64
 343 -20 343 -20 350 -21.5 c 128,-1,65
 357 -23 357 -23 362 -28 c 128,-1,66
 367 -33 367 -33 368.5 -40.5 c 128,-1,67
 370 -48 370 -48 367 -56 c 2,68,-1
 324 -147 l 2,14,15
EndSplineSet
EndChar

StartChar: uniFE8A
Encoding: 65162 65162 74
Width: 848
GlyphClass: 2
Flags: W
LayerCount: 2
Fore
SplineSet
154 49 m 0,0,1
 14 126 14 126 -5 264 c 1,2,-1
 -5 263 l 1,3,4
 -11 302 -11 302 -11 346 c 0,5,6
 -11 391 -11 391 -3.5 439.5 c 128,-1,7
 4 488 4 488 17 534 c 0,8,9
 37 600 37 600 65.5 670 c 128,-1,10
 94 740 94 740 129 800 c 0,11,12
 164 862 164 862 196 913.5 c 128,-1,13
 228 965 228 965 255 1002 c 1,14,15
 266 1013 266 1013 280 1013 c 0,16,17
 282 1013 282 1013 286 1012.5 c 128,-1,18
 290 1012 290 1012 296 1009 c 2,19,-1
 293 1011 l 1,20,21
 313 1004 313 1004 313 982 c 0,22,23
 313 977 313 977 312 972.5 c 128,-1,24
 311 968 311 968 309 963 c 0,25,26
 295 933 295 933 276.5 897 c 128,-1,27
 258 861 258 861 235 819 c 0,28,29
 213 780 213 780 196 739.5 c 128,-1,30
 179 699 179 699 165 657 c 1,31,-1
 165 658 l 1,32,33
 156 627 156 627 151 596.5 c 128,-1,34
 146 566 146 566 146 535 c 0,35,36
 146 526 146 526 146.5 517.5 c 128,-1,37
 147 509 147 509 148 500 c 0,38,39
 154 429 154 429 222 376 c 0,40,41
 252 352 252 352 295 338.5 c 128,-1,42
 338 325 338 325 392 321 c 0,43,44
 407 320 407 320 424 319.5 c 128,-1,45
 441 319 441 319 455 319 c 0,46,47
 493 319 493 319 531.5 322.5 c 128,-1,48
 570 326 570 326 606 333 c 0,49,50
 797 368 797 368 961 459 c 1,51,52
 928 466 928 466 897.5 474.5 c 128,-1,53
 867 483 867 483 838 496 c 0,54,55
 745 537 745 537 719 627 c 0,56,57
 713 646 713 646 713 670 c 0,58,59
 713 693 713 693 718 716.5 c 128,-1,60
 723 740 723 740 733 769 c 0,61,62
 749 811 749 811 767.5 851 c 128,-1,63
 786 891 786 891 809 931 c 0,64,65
 817 945 817 945 832.5 943.5 c 128,-1,66
 848 942 848 942 853 926 c 0,67,68
 873 865 873 865 927 828 c 0,69,70
 982 790 982 790 1046 773 c 0,71,72
 1063 768 1063 768 1083.5 764 c 128,-1,73
 1104 760 1104 760 1129 756 c 1,74,-1
 1128 756 l 1,75,76
 1154 752 1154 752 1175 741.5 c 128,-1,77
 1196 731 1196 731 1213 714 c 0,78,79
 1251 673 1251 673 1251 618 c 0,80,81
 1251 558 1251 558 1201 479 c 1,82,83
 1169 431 1169 431 1121 379 c 128,-1,84
 1073 327 1073 327 1010 275 c 0,85,86
 947 224 947 224 879 180 c 128,-1,87
 811 136 811 136 736 100 c 1,88,89
 662 63 662 63 585 39.5 c 128,-1,90
 508 16 508 16 435 5 c 0,91,92
 397 -1 397 -1 358 -1 c 0,93,94
 244 -1 244 -1 154 49 c 0,0,1
449 1402 m 1,95,96
 431 1367 431 1367 394 1351 c 0,97,98
 379 1344 379 1344 366 1333 c 1,99,100
 371 1331 371 1331 376 1328.5 c 128,-1,101
 381 1326 381 1326 386 1325 c 0,102,103
 403 1320 403 1320 417.5 1314 c 128,-1,104
 432 1308 432 1308 445 1300 c 0,105,106
 483 1275 483 1275 483 1234 c 0,107,108
 483 1223 483 1223 480.5 1212.5 c 128,-1,109
 478 1202 478 1202 473 1190 c 0,110,111
 451 1132 451 1132 388 1089 c 1,112,-1
 389 1089 l 1,113,114
 339 1051 339 1051 281 1042 c 2,115,-1
 203 1029 l 1,116,-1
 177 1025 l 2,117,118
 167 1024 167 1024 160.5 1029.5 c 128,-1,119
 154 1035 154 1035 152 1043.5 c 128,-1,120
 150 1052 150 1052 153 1060 c 128,-1,121
 156 1068 156 1068 165 1072 c 2,122,-1
 210 1091 l 1,123,-1
 209 1091 l 1,124,125
 239 1104 239 1104 270 1118 c 128,-1,126
 301 1132 301 1132 330 1147 c 1,127,128
 327 1149 327 1149 324.5 1149.5 c 128,-1,129
 322 1150 322 1150 320 1152 c 2,130,-1
 279 1172 l 1,131,-1
 280 1172 l 1,132,133
 232 1198 232 1198 232 1248 c 0,134,135
 232 1292 232 1292 279 1354 c 0,136,137
 319 1406 319 1406 351 1441.5 c 128,-1,138
 383 1477 383 1477 404 1494 c 0,139,140
 414 1502 414 1502 428.5 1509.5 c 128,-1,141
 443 1517 443 1517 460 1525 c 0,142,143
 468 1528 468 1528 475.5 1526.5 c 128,-1,144
 483 1525 483 1525 488 1520 c 128,-1,145
 493 1515 493 1515 494.5 1508 c 128,-1,146
 496 1501 496 1501 492 1493 c 2,147,-1
 449 1402 l 1,95,96
EndSplineSet
EndChar

StartChar: uniFE8B
Encoding: 65163 65163 75
Width: 604
GlyphClass: 2
Flags: W
LayerCount: 2
Fore
SplineSet
572 510 m 0,0,1
 566 461 566 461 548 407.5 c 128,-1,2
 530 354 530 354 504 300 c 1,3,4
 476 246 476 246 442.5 200.5 c 128,-1,5
 409 155 409 155 372 123 c 0,6,7
 305 67 305 67 216 39.5 c 128,-1,8
 127 12 127 12 7 0 c 0,9,10
 -7 -2 -7 -2 -15 9 c 128,-1,11
 -23 20 -23 20 -17 34 c 2,12,-1
 100 300 l 2,13,14
 102 304 102 304 108 308.5 c 128,-1,15
 114 313 114 313 119 314 c 0,16,17
 196 323 196 323 261.5 334.5 c 128,-1,18
 327 346 327 346 378 377 c 1,19,20
 376 394 376 394 371.5 416.5 c 128,-1,21
 367 439 367 439 359 465 c 0,22,23
 348 499 348 499 338.5 529.5 c 128,-1,24
 329 560 329 560 319 589 c 0,25,26
 317 593 317 593 318.5 600.5 c 128,-1,27
 320 608 320 608 322 611 c 2,28,-1
 474 835 l 2,29,30
 482 848 482 848 496 846 c 128,-1,31
 510 844 510 844 516 830 c 2,32,-1
 550 741 l 2,33,34
 562 708 562 708 569 668 c 128,-1,35
 576 628 576 628 576 585 c 0,36,37
 576 566 576 566 575 547.5 c 128,-1,38
 574 529 574 529 572 510 c 0,0,1
550 1238 m 1,39,40
 541 1221 541 1221 528 1208 c 128,-1,41
 515 1195 515 1195 495 1187 c 0,42,43
 480 1181 480 1181 467 1168 c 1,44,45
 472 1166 472 1166 476.5 1164 c 128,-1,46
 481 1162 481 1162 486 1161 c 0,47,48
 519 1152 519 1152 546 1135 c 0,49,50
 584 1111 584 1111 584 1070 c 0,51,52
 584 1059 584 1059 581.5 1048.5 c 128,-1,53
 579 1038 579 1038 574 1026 c 0,54,55
 552 968 552 968 489 925 c 1,56,-1
 490 925 l 1,57,58
 440 888 440 888 382 877 c 1,59,-1
 304 865 l 1,60,-1
 277 861 l 2,61,62
 267 860 267 860 261 865.5 c 128,-1,63
 255 871 255 871 253 879.5 c 128,-1,64
 251 888 251 888 254 896 c 128,-1,65
 257 904 257 904 266 907 c 2,66,-1
 310 927 l 1,67,-1
 309 927 l 1,68,69
 340 940 340 940 370.5 953.5 c 128,-1,70
 401 967 401 967 430 983 c 1,71,72
 427 985 427 985 424.5 985.5 c 128,-1,73
 422 986 422 986 420 988 c 2,74,-1
 380 1008 l 1,75,-1
 381 1008 l 1,76,77
 332 1033 332 1033 332 1083 c 0,78,79
 332 1127 332 1127 380 1190 c 0,80,81
 420 1242 420 1242 451.5 1277.5 c 128,-1,82
 483 1313 483 1313 504 1330 c 0,83,84
 515 1338 515 1338 529 1345.5 c 128,-1,85
 543 1353 543 1353 561 1361 c 0,86,87
 577 1368 577 1368 588 1356.5 c 128,-1,88
 599 1345 599 1345 592 1329 c 2,89,-1
 550 1238 l 1,39,40
EndSplineSet
EndChar

StartChar: uniFE8C
Encoding: 65164 65164 76
Width: 419
GlyphClass: 2
Flags: W
LayerCount: 2
Fore
SplineSet
412 48 m 2,0,1
 386 48 386 48 380 71 c 1,2,3
 348 60 348 60 307.5 50 c 128,-1,4
 267 40 267 40 221 31 c 0,5,6
 166 21 166 21 107.5 12.5 c 128,-1,7
 49 4 49 4 7 0 c 0,8,9
 -7 -2 -7 -2 -15 9 c 128,-1,10
 -23 20 -23 20 -17 34 c 2,11,-1
 98 300 l 2,12,13
 100 305 100 305 106.5 309 c 128,-1,14
 113 313 113 313 118 314 c 2,15,-1
 285 326 l 2,16,17
 347 330 347 330 400 344 c 128,-1,18
 453 358 453 358 493 380 c 1,19,20
 544 411 544 411 568 466 c 1,21,22
 574 477 574 477 582 481.5 c 128,-1,23
 590 486 590 486 597 486 c 0,24,25
 624 486 624 486 624 451 c 0,26,27
 624 439 624 439 623 431 c 128,-1,28
 622 423 622 423 621 420 c 1,29,-1
 621 421 l 1,30,31
 610 385 610 385 593 341 c 128,-1,32
 576 297 576 297 554 245 c 0,33,34
 508 139 508 139 431 56 c 0,35,36
 429 54 429 54 423 51 c 128,-1,37
 417 48 417 48 414 48 c 2,38,-1
 412 48 l 2,0,1
568 901 m 1,39,40
 550 866 550 866 512 849 c 1,41,42
 497 844 497 844 484 831 c 1,43,44
 489 829 489 829 494 826.5 c 128,-1,45
 499 824 499 824 504 823 c 0,46,47
 537 814 537 814 564 798 c 1,48,49
 601 774 601 774 601 732 c 0,50,51
 601 711 601 711 592 689 c 0,52,53
 569 631 569 631 507 588 c 1,54,-1
 508 588 l 1,55,56
 482 568 482 568 455 556.5 c 128,-1,57
 428 545 428 545 399 540 c 2,58,-1
 321 528 l 1,59,-1
 295 524 l 2,60,61
 285 523 285 523 278.5 528.5 c 128,-1,62
 272 534 272 534 270 542 c 128,-1,63
 268 550 268 550 271 558 c 128,-1,64
 274 566 274 566 283 570 c 2,65,-1
 328 589 l 1,66,-1
 327 589 l 1,67,68
 358 603 358 603 388.5 616.5 c 128,-1,69
 419 630 419 630 448 645 c 1,70,71
 445 647 445 647 442.5 647.5 c 128,-1,72
 440 648 440 648 438 650 c 2,73,-1
 397 671 l 1,74,-1
 398 671 l 1,75,76
 350 696 350 696 350 746 c 0,77,78
 350 769 350 769 362 795.5 c 128,-1,79
 374 822 374 822 397 852 c 0,80,81
 479 958 479 958 522 992 c 0,82,83
 545 1010 545 1010 578 1023 c 0,84,85
 586 1027 586 1027 593.5 1025.5 c 128,-1,86
 601 1024 601 1024 606 1019 c 128,-1,87
 611 1014 611 1014 612.5 1006.5 c 128,-1,88
 614 999 614 999 610 991 c 2,89,-1
 568 901 l 1,39,40
EndSplineSet
EndChar

StartChar: uniFE8E
Encoding: 65166 65166 77
Width: 217
GlyphClass: 2
Flags: W
LayerCount: 2
Fore
SplineSet
111 1157 m 1,0,-1
 240 1395 l 2,1,2
 244 1403 244 1403 251.5 1406 c 128,-1,3
 259 1409 259 1409 266 1407.5 c 128,-1,4
 273 1406 273 1406 278.5 1400.5 c 128,-1,5
 284 1395 284 1395 285 1386 c 2,6,-1
 361 292 l 1,7,-1
 236 14 l 2,8,9
 232 5 232 5 224.5 2 c 128,-1,10
 217 -1 217 -1 209.5 0 c 128,-1,11
 202 1 202 1 196.5 7 c 128,-1,12
 191 13 191 13 190 22 c 2,13,-1
 111 1157 l 1,0,-1
EndSplineSet
EndChar

StartChar: uniFE90
Encoding: 65168 65168 78
Width: 1257
GlyphClass: 2
Flags: W
LayerCount: 2
Fore
SplineSet
4 222 m 0,0,1
 -16 279 -16 279 -16 339 c 0,2,3
 -16 425 -16 425 26 518 c 0,4,5
 61 594 61 594 95.5 661.5 c 128,-1,6
 130 729 130 729 168 788 c 1,7,8
 189 816 189 816 214 816 c 0,9,10
 225 816 225 816 229 814 c 0,11,12
 258 802 258 802 258 772 c 0,13,14
 258 758 258 758 250 739 c 1,15,16
 179 608 179 608 174 519 c 1,17,-1
 174 505 l 2,18,19
 174 469 174 469 184 439 c 128,-1,20
 194 409 194 409 211 387 c 1,21,22
 234 361 234 361 274 343 c 128,-1,23
 314 325 314 325 371 316 c 0,24,25
 419 308 419 308 468.5 304.5 c 128,-1,26
 518 301 518 301 569 301 c 2,27,-1
 629 301 l 1,28,29
 762 307 762 307 890 331 c 1,30,31
 1016 357 1016 357 1061 383 c 1,32,33
 1110 408 1110 408 1135 467 c 1,34,35
 1149 489 1149 489 1165 489 c 0,36,37
 1192 489 1192 489 1192 454 c 0,38,39
 1192 442 1192 442 1191 434 c 128,-1,40
 1190 426 1190 426 1189 423 c 1,41,-1
 1189 424 l 1,42,43
 1178 388 1178 388 1161 344 c 128,-1,44
 1144 300 1144 300 1122 247 c 0,45,46
 1099 193 1099 193 1068.5 146 c 128,-1,47
 1038 99 1038 99 998 58 c 0,48,49
 996 56 996 56 989.5 53.5 c 128,-1,50
 983 51 983 51 980 51 c 0,51,52
 955 51 955 51 950 73 c 1,53,54
 907 58 907 58 856 46 c 128,-1,55
 805 34 805 34 747 23 c 0,56,57
 686 12 686 12 622.5 6.5 c 128,-1,58
 559 1 559 1 495 1 c 0,59,60
 484 1 484 1 473 1 c 128,-1,61
 462 1 462 1 452 2 c 0,62,63
 378 4 378 4 309.5 17 c 128,-1,64
 241 30 241 30 178 53 c 1,65,66
 46 105 46 105 4 222 c 0,0,1
692 -146 m 2,67,68
 699 -153 699 -153 700 -161.5 c 128,-1,69
 701 -170 701 -170 695 -178 c 0,70,71
 654 -230 654 -230 613.5 -280.5 c 128,-1,72
 573 -331 573 -331 532 -382 c 0,73,74
 525 -390 525 -390 515 -390.5 c 128,-1,75
 505 -391 505 -391 497 -384 c 2,76,-1
 358 -253 l 2,77,78
 351 -246 351 -246 350 -237.5 c 128,-1,79
 349 -229 349 -229 355 -221 c 0,80,81
 378 -192 378 -192 401 -163.5 c 128,-1,82
 424 -135 424 -135 447 -106 c 0,83,84
 481 -64 481 -64 517 -18 c 0,85,86
 524 -10 524 -10 534.5 -9 c 128,-1,87
 545 -8 545 -8 553 -15 c 2,88,-1
 692 -146 l 2,67,68
EndSplineSet
EndChar

StartChar: uniFE91
Encoding: 65169 65169 79
Width: 604
GlyphClass: 2
Flags: W
LayerCount: 2
Fore
SplineSet
572 510 m 0,0,1
 566 461 566 461 548 407.5 c 128,-1,2
 530 354 530 354 503 300 c 256,3,4
 476 246 476 246 442.5 200.5 c 128,-1,5
 409 155 409 155 372 123 c 0,6,7
 305 67 305 67 216 39.5 c 128,-1,8
 127 12 127 12 7 0 c 0,9,10
 -8 -2 -8 -2 -15.5 9 c 128,-1,11
 -23 20 -23 20 -17 34 c 2,12,-1
 99 300 l 2,13,14
 101 304 101 304 107.5 308.5 c 128,-1,15
 114 313 114 313 119 314 c 0,16,17
 196 323 196 323 261.5 334.5 c 128,-1,18
 327 346 327 346 378 377 c 1,19,20
 375 413 375 413 358 465 c 1,21,22
 348 499 348 499 338 529.5 c 128,-1,23
 328 560 328 560 319 589 c 0,24,25
 317 593 317 593 318.5 600.5 c 128,-1,26
 320 608 320 608 322 611 c 2,27,-1
 473 835 l 2,28,29
 482 848 482 848 496 846 c 128,-1,30
 510 844 510 844 516 830 c 2,31,-1
 550 741 l 2,32,33
 562 708 562 708 569 668 c 128,-1,34
 576 628 576 628 576 585 c 0,35,36
 576 566 576 566 575 547.5 c 128,-1,37
 574 529 574 529 572 510 c 0,0,1
473 -146 m 2,38,39
 480 -153 480 -153 481 -161.5 c 128,-1,40
 482 -170 482 -170 476 -178 c 0,41,42
 435 -230 435 -230 394.5 -280.5 c 128,-1,43
 354 -331 354 -331 313 -382 c 0,44,45
 306 -390 306 -390 296 -390.5 c 128,-1,46
 286 -391 286 -391 278 -384 c 2,47,-1
 139 -253 l 2,48,49
 132 -246 132 -246 131 -237.5 c 128,-1,50
 130 -229 130 -229 136 -221 c 0,51,52
 159 -192 159 -192 182 -163.5 c 128,-1,53
 205 -135 205 -135 228 -106 c 0,54,55
 246 -84 246 -84 263.5 -62.5 c 128,-1,56
 281 -41 281 -41 299 -18 c 0,57,58
 305 -10 305 -10 315.5 -9 c 128,-1,59
 326 -8 326 -8 334 -15 c 2,60,-1
 473 -146 l 2,38,39
EndSplineSet
EndChar

StartChar: uniFE92
Encoding: 65170 65170 80
Width: 419
GlyphClass: 2
Flags: W
LayerCount: 2
Fore
SplineSet
412 48 m 2,0,1
 386 48 386 48 380 71 c 1,2,3
 348 60 348 60 307.5 50 c 128,-1,4
 267 40 267 40 221 31 c 0,5,6
 166 21 166 21 107.5 12.5 c 128,-1,7
 49 4 49 4 7 0 c 0,8,9
 -7 -2 -7 -2 -15 9 c 128,-1,10
 -23 20 -23 20 -17 34 c 2,11,-1
 98 300 l 2,12,13
 100 305 100 305 106.5 309 c 128,-1,14
 113 313 113 313 118 314 c 2,15,-1
 285 326 l 2,16,17
 347 330 347 330 400 344 c 128,-1,18
 453 358 453 358 493 380 c 1,19,20
 544 411 544 411 568 466 c 1,21,22
 574 477 574 477 582 481.5 c 128,-1,23
 590 486 590 486 597 486 c 0,24,25
 624 486 624 486 624 451 c 0,26,27
 624 439 624 439 623 431 c 128,-1,28
 622 423 622 423 621 420 c 1,29,-1
 621 421 l 1,30,31
 610 385 610 385 593 341 c 128,-1,32
 576 297 576 297 554 245 c 0,33,34
 508 139 508 139 431 56 c 0,35,36
 429 54 429 54 423 51 c 128,-1,37
 417 48 417 48 414 48 c 2,38,-1
 412 48 l 2,0,1
398 -146 m 2,39,40
 405 -153 405 -153 406 -161.5 c 128,-1,41
 407 -170 407 -170 401 -178 c 0,42,43
 360 -230 360 -230 319.5 -280.5 c 128,-1,44
 279 -331 279 -331 238 -382 c 0,45,46
 231 -390 231 -390 221 -390.5 c 128,-1,47
 211 -391 211 -391 203 -384 c 2,48,-1
 64 -253 l 2,49,50
 57 -246 57 -246 56 -237.5 c 128,-1,51
 55 -229 55 -229 61 -221 c 0,52,53
 84 -192 84 -192 107 -163.5 c 128,-1,54
 130 -135 130 -135 153 -106 c 0,55,56
 171 -84 171 -84 188.5 -62.5 c 128,-1,57
 206 -41 206 -41 224 -18 c 0,58,59
 230 -10 230 -10 240.5 -9 c 128,-1,60
 251 -8 251 -8 259 -15 c 2,61,-1
 398 -146 l 2,39,40
EndSplineSet
EndChar

StartChar: uniFE94
Encoding: 65172 65172 81
Width: 403
GlyphClass: 2
Flags: W
LayerCount: 2
Fore
SplineSet
567 294 m 1,0,-1
 416 15 l 2,1,2
 411 7 411 7 404 4.5 c 128,-1,3
 397 2 397 2 389.5 3.5 c 128,-1,4
 382 5 382 5 376.5 10.5 c 128,-1,5
 371 16 371 16 370 25 c 2,6,-1
 348 347 l 1,7,8
 319 322 319 322 287.5 305.5 c 128,-1,9
 256 289 256 289 218 278 c 0,10,11
 203 273 203 273 188.5 271.5 c 128,-1,12
 174 270 174 270 160 270 c 0,13,14
 82 270 82 270 17 332 c 0,15,16
 -18 366 -18 366 -18 421 c 0,17,18
 -18 435 -18 435 -16.5 449 c 128,-1,19
 -15 463 -15 463 -10 478 c 1,20,21
 0 520 0 520 17.5 566 c 128,-1,22
 35 612 35 612 58 658 c 256,23,24
 81 704 81 704 107 746.5 c 128,-1,25
 133 789 133 789 161 829 c 0,26,27
 190 871 190 871 211 898 c 128,-1,28
 232 925 232 925 246 936 c 1,29,-1
 246 935 l 1,30,31
 326 1011 326 1011 395 1011 c 0,32,33
 418 1011 418 1011 442 1002 c 1,34,-1
 441 1002 l 1,35,36
 528 968 528 968 531 823 c 1,37,-1
 567 294 l 1,0,-1
280 718 m 0,38,39
 265 723 265 723 255 723 c 0,40,41
 235 723 235 723 219 708 c 1,42,43
 183 681 183 681 163 654 c 1,44,-1
 163 655 l 1,45,46
 157 647 157 647 157 642 c 0,47,48
 157 634 157 634 162 626 c 0,49,50
 179 592 179 592 227 579 c 1,51,-1
 226 579 l 1,52,53
 239 576 239 576 251.5 574 c 128,-1,54
 264 572 264 572 278 572 c 0,55,56
 299 572 299 572 318 576 c 1,57,58
 319 581 319 581 319 586.5 c 128,-1,59
 319 592 319 592 319 597 c 0,60,61
 319 611 319 611 317.5 627 c 128,-1,62
 316 643 316 643 314 661 c 0,63,64
 308 708 308 708 280 718 c 0,38,39
481 1122 m 2,65,66
 479 1118 479 1118 474 1113.5 c 128,-1,67
 469 1109 469 1109 465 1108 c 2,68,-1
 261 1071 l 1,69,-1
 85 1038 l 2,70,71
 69 1035 69 1035 60 1046.5 c 128,-1,72
 51 1058 51 1058 59 1073 c 2,73,-1
 177 1308 l 2,74,75
 179 1312 179 1312 184.5 1316.5 c 128,-1,76
 190 1321 190 1321 194 1322 c 0,77,78
 299 1340 299 1340 392.5 1357.5 c 128,-1,79
 486 1375 486 1375 574 1392 c 0,80,81
 590 1395 590 1395 599 1383.5 c 128,-1,82
 608 1372 608 1372 600 1358 c 2,83,-1
 481 1122 l 2,65,66
EndSplineSet
EndChar

StartChar: uniFE96
Encoding: 65174 65174 82
Width: 1257
GlyphClass: 2
Flags: W
LayerCount: 2
Fore
SplineSet
4 222 m 0,0,1
 -16 279 -16 279 -16 339 c 0,2,3
 -16 425 -16 425 26 518 c 0,4,5
 61 594 61 594 95.5 661.5 c 128,-1,6
 130 729 130 729 168 788 c 1,7,8
 189 816 189 816 214 816 c 0,9,10
 225 816 225 816 229 814 c 0,11,12
 258 802 258 802 258 772 c 0,13,14
 258 758 258 758 250 739 c 1,15,16
 179 608 179 608 174 519 c 1,17,-1
 174 505 l 2,18,19
 174 469 174 469 184 439 c 128,-1,20
 194 409 194 409 211 387 c 1,21,22
 234 361 234 361 274 343 c 128,-1,23
 314 325 314 325 371 316 c 0,24,25
 419 308 419 308 468.5 304.5 c 128,-1,26
 518 301 518 301 569 301 c 2,27,-1
 629 301 l 1,28,29
 762 307 762 307 890 331 c 1,30,31
 1016 357 1016 357 1061 383 c 1,32,33
 1110 408 1110 408 1135 467 c 1,34,35
 1149 489 1149 489 1165 489 c 0,36,37
 1192 489 1192 489 1192 454 c 0,38,39
 1192 442 1192 442 1191 434 c 128,-1,40
 1190 426 1190 426 1189 423 c 1,41,-1
 1189 424 l 1,42,43
 1178 388 1178 388 1161 344 c 128,-1,44
 1144 300 1144 300 1122 247 c 0,45,46
 1099 193 1099 193 1068.5 146 c 128,-1,47
 1038 99 1038 99 998 58 c 0,48,49
 996 56 996 56 989.5 53.5 c 128,-1,50
 983 51 983 51 980 51 c 0,51,52
 955 51 955 51 950 73 c 1,53,54
 907 58 907 58 856 46 c 128,-1,55
 805 34 805 34 747 23 c 0,56,57
 686 12 686 12 622.5 6.5 c 128,-1,58
 559 1 559 1 495 1 c 0,59,60
 484 1 484 1 473 1 c 128,-1,61
 462 1 462 1 452 2 c 0,62,63
 378 4 378 4 309.5 17 c 128,-1,64
 241 30 241 30 178 53 c 1,65,66
 46 105 46 105 4 222 c 0,0,1
904 767 m 2,67,68
 902 763 902 763 896.5 759 c 128,-1,69
 891 755 891 755 887 754 c 2,70,-1
 684 716 l 1,71,-1
 508 683 l 2,72,73
 491 680 491 680 482.5 692 c 128,-1,74
 474 704 474 704 482 718 c 2,75,-1
 600 954 l 2,76,77
 602 958 602 958 607 962 c 128,-1,78
 612 966 612 966 617 967 c 0,79,80
 721 985 721 985 815 1003 c 128,-1,81
 909 1021 909 1021 997 1038 c 0,82,83
 1013 1041 1013 1041 1021.5 1029 c 128,-1,84
 1030 1017 1030 1017 1023 1003 c 2,85,-1
 904 767 l 2,67,68
EndSplineSet
EndChar

StartChar: uniFE97
Encoding: 65175 65175 83
Width: 604
GlyphClass: 2
Flags: W
LayerCount: 2
Fore
SplineSet
573 510 m 0,0,1
 567 461 567 461 549 407.5 c 128,-1,2
 531 354 531 354 504 300 c 0,3,4
 476 246 476 246 443 200.5 c 128,-1,5
 410 155 410 155 373 123 c 0,6,7
 306 67 306 67 217 39.5 c 128,-1,8
 128 12 128 12 7 0 c 0,9,10
 -7 -2 -7 -2 -14.5 9 c 128,-1,11
 -22 20 -22 20 -17 34 c 1,12,-1
 100 300 l 2,13,14
 102 304 102 304 108.5 308.5 c 128,-1,15
 115 313 115 313 120 314 c 0,16,17
 197 323 197 323 262.5 334.5 c 128,-1,18
 328 346 328 346 379 377 c 1,19,20
 376 413 376 413 359 465 c 1,21,22
 349 499 349 499 339 529.5 c 128,-1,23
 329 560 329 560 320 589 c 0,24,25
 318 593 318 593 319 600.5 c 128,-1,26
 320 608 320 608 322 611 c 2,27,-1
 474 835 l 2,28,29
 483 848 483 848 497 846 c 128,-1,30
 511 844 511 844 517 830 c 2,31,-1
 551 741 l 2,32,33
 563 708 563 708 570 668 c 128,-1,34
 577 628 577 628 577 585 c 0,35,36
 577 566 577 566 576 547.5 c 128,-1,37
 575 529 575 529 573 510 c 0,0,1
544 962 m 2,38,39
 542 959 542 959 536.5 954.5 c 128,-1,40
 531 950 531 950 527 949 c 2,41,-1
 323 911 l 1,42,-1
 148 878 l 1,43,44
 131 876 131 876 122.5 887.5 c 128,-1,45
 114 899 114 899 121 913 c 2,46,-1
 239 1149 l 2,47,48
 241 1153 241 1153 246.5 1157.5 c 128,-1,49
 252 1162 252 1162 257 1162 c 0,50,51
 361 1181 361 1181 455 1198.5 c 128,-1,52
 549 1216 549 1216 637 1233 c 0,53,54
 653 1236 653 1236 661.5 1224.5 c 128,-1,55
 670 1213 670 1213 663 1198 c 2,56,-1
 544 962 l 2,38,39
EndSplineSet
EndChar

StartChar: uniFE98
Encoding: 65176 65176 84
Width: 419
GlyphClass: 2
Flags: W
LayerCount: 2
Fore
SplineSet
413 48 m 2,0,1
 387 48 387 48 381 71 c 1,2,3
 349 60 349 60 308.5 50 c 128,-1,4
 268 40 268 40 222 31 c 0,5,6
 167 21 167 21 108.5 12.5 c 128,-1,7
 50 4 50 4 8 0 c 0,8,9
 -6 -2 -6 -2 -14 9 c 128,-1,10
 -22 20 -22 20 -16 34 c 2,11,-1
 99 300 l 2,12,13
 101 305 101 305 107.5 309 c 128,-1,14
 114 313 114 313 119 314 c 2,15,-1
 286 326 l 2,16,17
 348 330 348 330 401 344 c 128,-1,18
 454 358 454 358 494 380 c 1,19,20
 545 411 545 411 569 466 c 1,21,22
 575 477 575 477 583 481.5 c 128,-1,23
 591 486 591 486 598 486 c 0,24,25
 625 486 625 486 625 451 c 0,26,27
 625 439 625 439 624 431 c 128,-1,28
 623 423 623 423 622 420 c 1,29,-1
 622 421 l 1,30,31
 611 385 611 385 594 341 c 128,-1,32
 577 297 577 297 555 245 c 0,33,34
 532 193 532 193 502 145.5 c 128,-1,35
 472 98 472 98 432 56 c 0,36,37
 430 54 430 54 424 51 c 128,-1,38
 418 48 418 48 415 48 c 2,39,-1
 413 48 l 2,0,1
620 692 m 2,40,41
 618 688 618 688 612.5 683.5 c 128,-1,42
 607 679 607 679 603 678 c 2,43,-1
 399 641 l 1,44,-1
 224 608 l 2,45,46
 207 605 207 605 198.5 616.5 c 128,-1,47
 190 628 190 628 198 643 c 2,48,-1
 315 878 l 2,49,50
 317 882 317 882 322.5 886.5 c 128,-1,51
 328 891 328 891 333 892 c 0,52,53
 437 910 437 910 531 927.5 c 128,-1,54
 625 945 625 945 713 962 c 0,55,56
 729 965 729 965 737.5 953.5 c 128,-1,57
 746 942 746 942 739 928 c 2,58,-1
 620 692 l 2,40,41
EndSplineSet
EndChar

StartChar: uniFE9A
Encoding: 65178 65178 85
Width: 1257
GlyphClass: 2
Flags: W
LayerCount: 2
Fore
SplineSet
4 222 m 0,0,1
 -16 279 -16 279 -16 339 c 0,2,3
 -16 425 -16 425 26 518 c 0,4,5
 61 594 61 594 95.5 661.5 c 128,-1,6
 130 729 130 729 168 788 c 1,7,8
 189 816 189 816 214 816 c 0,9,10
 225 816 225 816 229 814 c 0,11,12
 258 802 258 802 258 772 c 0,13,14
 258 758 258 758 250 739 c 1,15,16
 179 608 179 608 174 519 c 1,17,-1
 174 505 l 2,18,19
 174 469 174 469 184 439 c 128,-1,20
 194 409 194 409 211 387 c 1,21,22
 234 361 234 361 274 343 c 128,-1,23
 314 325 314 325 371 316 c 0,24,25
 419 308 419 308 468.5 304.5 c 128,-1,26
 518 301 518 301 569 301 c 2,27,-1
 629 301 l 1,28,29
 762 307 762 307 890 331 c 1,30,31
 1016 357 1016 357 1061 383 c 1,32,33
 1110 408 1110 408 1135 467 c 1,34,35
 1149 489 1149 489 1165 489 c 0,36,37
 1192 489 1192 489 1192 454 c 0,38,39
 1192 442 1192 442 1191 434 c 128,-1,40
 1190 426 1190 426 1189 423 c 1,41,-1
 1189 424 l 1,42,43
 1178 388 1178 388 1161 344 c 128,-1,44
 1144 300 1144 300 1122 247 c 0,45,46
 1099 193 1099 193 1068.5 146 c 128,-1,47
 1038 99 1038 99 998 58 c 0,48,49
 996 56 996 56 989.5 53.5 c 128,-1,50
 983 51 983 51 980 51 c 0,51,52
 955 51 955 51 950 73 c 1,53,54
 907 58 907 58 856 46 c 128,-1,55
 805 34 805 34 747 23 c 0,56,57
 686 12 686 12 622.5 6.5 c 128,-1,58
 559 1 559 1 495 1 c 0,59,60
 484 1 484 1 473 1 c 128,-1,61
 462 1 462 1 452 2 c 0,62,63
 378 4 378 4 309.5 17 c 128,-1,64
 241 30 241 30 178 53 c 1,65,66
 46 105 46 105 4 222 c 0,0,1
1019 1003 m 1,67,68
 990 942 990 942 951 884.5 c 128,-1,69
 912 827 912 827 870 773 c 0,70,71
 862 764 862 764 855.5 760 c 128,-1,72
 849 756 849 756 838 756 c 0,73,74
 813 756 813 756 800 790 c 1,75,76
 782 830 782 830 764.5 853.5 c 128,-1,77
 747 877 747 877 730 877 c 2,78,-1
 725 877 l 1,79,80
 704 874 704 874 681 859.5 c 128,-1,81
 658 845 658 845 637 820 c 1,82,83
 611 793 611 793 589.5 761 c 128,-1,84
 568 729 568 729 548 694 c 0,85,86
 527 656 527 656 512.5 630.5 c 128,-1,87
 498 605 498 605 487 591 c 0,88,89
 482 584 482 584 474.5 582 c 128,-1,90
 467 580 467 580 460 582.5 c 128,-1,91
 453 585 453 585 448.5 591 c 128,-1,92
 444 597 444 597 444 606 c 2,93,-1
 443 692 l 1,94,-1
 445 700 l 1,95,96
 457 724 457 724 477 762 c 128,-1,97
 497 800 497 800 523 844 c 0,98,99
 547 885 547 885 577 929 c 128,-1,100
 607 973 607 973 638 1015 c 1,101,102
 669 1055 669 1055 703 1088.5 c 128,-1,103
 737 1122 737 1122 772 1148 c 1,104,105
 809 1171 809 1171 842 1171 c 0,106,107
 892 1171 892 1171 944 1125 c 1,108,109
 988 1083 988 1083 1018 1025 c 1,110,-1
 1019 1003 l 1,67,68
EndSplineSet
EndChar

StartChar: uniFE9B
Encoding: 65179 65179 86
Width: 604
GlyphClass: 2
Flags: W
LayerCount: 2
Fore
SplineSet
572 510 m 0,0,1
 567 461 567 461 549 407.5 c 128,-1,2
 531 354 531 354 504 300 c 0,3,4
 476 246 476 246 443 200.5 c 128,-1,5
 410 155 410 155 372 123 c 0,6,7
 306 67 306 67 217 39.5 c 128,-1,8
 128 12 128 12 7 0 c 0,9,10
 -7 -2 -7 -2 -15 9 c 128,-1,11
 -23 20 -23 20 -17 34 c 2,12,-1
 100 300 l 2,13,14
 102 304 102 304 108 308.5 c 128,-1,15
 114 313 114 313 119 314 c 0,16,17
 197 323 197 323 262 334.5 c 128,-1,18
 327 346 327 346 378 377 c 1,19,20
 376 394 376 394 371.5 416.5 c 128,-1,21
 367 439 367 439 359 465 c 0,22,23
 348 499 348 499 338.5 529.5 c 128,-1,24
 329 560 329 560 319 589 c 0,25,26
 317 593 317 593 318.5 600.5 c 128,-1,27
 320 608 320 608 322 611 c 2,28,-1
 474 835 l 2,29,30
 482 848 482 848 496.5 846 c 128,-1,31
 511 844 511 844 516 830 c 2,32,-1
 550 741 l 2,33,34
 563 708 563 708 569.5 668 c 128,-1,35
 576 628 576 628 576 585 c 0,36,37
 576 566 576 566 575 547.5 c 128,-1,38
 574 529 574 529 572 510 c 0,0,1
628 1202 m 1,39,40
 600 1141 600 1141 561 1083.5 c 128,-1,41
 522 1026 522 1026 480 972 c 1,42,43
 472 964 472 964 465.5 959.5 c 128,-1,44
 459 955 459 955 448 955 c 0,45,46
 435 955 435 955 425.5 964 c 128,-1,47
 416 973 416 973 409 989 c 0,48,49
 392 1029 392 1029 374.5 1052.5 c 128,-1,50
 357 1076 357 1076 340 1076 c 2,51,-1
 335 1076 l 1,52,53
 314 1073 314 1073 291 1058.5 c 128,-1,54
 268 1044 268 1044 247 1019 c 1,55,56
 221 992 221 992 199.5 960 c 128,-1,57
 178 928 178 928 158 893 c 0,58,59
 137 855 137 855 122.5 829.5 c 128,-1,60
 108 804 108 804 97 790 c 0,61,62
 92 783 92 783 84.5 781 c 128,-1,63
 77 779 77 779 70 781.5 c 128,-1,64
 63 784 63 784 58.5 790 c 128,-1,65
 54 796 54 796 54 805 c 2,66,-1
 53 891 l 1,67,-1
 54 899 l 1,68,69
 67 924 67 924 87 961.5 c 128,-1,70
 107 999 107 999 133 1043 c 0,71,72
 157 1084 157 1084 186.5 1128 c 128,-1,73
 216 1172 216 1172 248 1214 c 0,74,75
 278 1254 278 1254 312.5 1287.5 c 128,-1,76
 347 1321 347 1321 382 1347 c 1,77,78
 417 1370 417 1370 452 1370 c 0,79,80
 501 1370 501 1370 553 1324 c 1,81,82
 596 1283 596 1283 628 1224 c 1,83,-1
 628 1202 l 1,39,40
EndSplineSet
EndChar

StartChar: uniFE9C
Encoding: 65180 65180 87
Width: 419
GlyphClass: 2
Flags: W
LayerCount: 2
Fore
SplineSet
413 48 m 2,0,1
 387 48 387 48 381 71 c 1,2,3
 349 60 349 60 308.5 50 c 128,-1,4
 268 40 268 40 222 31 c 0,5,6
 167 21 167 21 108.5 12.5 c 128,-1,7
 50 4 50 4 8 0 c 0,8,9
 -6 -2 -6 -2 -14 9 c 128,-1,10
 -22 20 -22 20 -16 34 c 2,11,-1
 99 300 l 2,12,13
 101 305 101 305 107.5 309 c 128,-1,14
 114 313 114 313 119 314 c 2,15,-1
 287 326 l 2,16,17
 348 330 348 330 401 344 c 128,-1,18
 454 358 454 358 494 380 c 1,19,20
 545 411 545 411 569 466 c 1,21,22
 575 477 575 477 583 481.5 c 128,-1,23
 591 486 591 486 598 486 c 0,24,25
 625 486 625 486 625 451 c 0,26,27
 625 439 625 439 624 431 c 128,-1,28
 623 423 623 423 622 420 c 1,29,-1
 622 421 l 1,30,31
 611 385 611 385 594 341 c 128,-1,32
 577 297 577 297 555 245 c 0,33,34
 532 193 532 193 502 145.5 c 128,-1,35
 472 98 472 98 432 56 c 0,36,37
 430 54 430 54 424 51 c 128,-1,38
 418 48 418 48 415 48 c 2,39,-1
 413 48 l 2,0,1
758 887 m 1,40,41
 729 826 729 826 690 768.5 c 128,-1,42
 651 711 651 711 609 657 c 0,43,44
 602 648 602 648 595 644 c 128,-1,45
 588 640 588 640 577 640 c 0,46,47
 552 640 552 640 539 674 c 1,48,49
 522 714 522 714 504 737.5 c 128,-1,50
 486 761 486 761 469 761 c 2,51,-1
 464 761 l 1,52,53
 443 758 443 758 420 743.5 c 128,-1,54
 397 729 397 729 376 704 c 1,55,56
 351 677 351 677 329.5 645 c 128,-1,57
 308 613 308 613 288 578 c 0,58,59
 267 540 267 540 252 514.5 c 128,-1,60
 237 489 237 489 227 475 c 0,61,62
 221 468 221 468 213.5 466 c 128,-1,63
 206 464 206 464 199.5 466.5 c 128,-1,64
 193 469 193 469 188 475 c 128,-1,65
 183 481 183 481 183 490 c 2,66,-1
 182 576 l 1,67,-1
 184 584 l 1,68,69
 197 609 197 609 217 646.5 c 128,-1,70
 237 684 237 684 262 728 c 0,71,72
 286 769 286 769 316 813 c 128,-1,73
 346 857 346 857 377 899 c 1,74,75
 408 939 408 939 442 972.5 c 128,-1,76
 476 1006 476 1006 512 1032 c 1,77,78
 547 1055 547 1055 581 1055 c 0,79,80
 631 1055 631 1055 683 1009 c 1,81,82
 727 967 727 967 757 909 c 1,83,-1
 758 887 l 1,40,41
EndSplineSet
EndChar

StartChar: uniFE9E
Encoding: 65182 65182 88
Width: 387
GlyphClass: 2
Flags: W
LayerCount: 2
Fore
SplineSet
1259 -326 m 2,0,1
 1260 -325 1260 -325 1261 -325 c 2,2,-1
 1262 -325 l 1,3,-1
 1259 -326 l 2,0,1
643 731 m 1,4,5
 674 753 674 753 700.5 773 c 128,-1,6
 727 793 727 793 750 813 c 1,7,8
 662 830 662 830 556 830 c 1,9,10
 502 831 502 831 456.5 828 c 128,-1,11
 411 825 411 825 375 819 c 1,12,-1
 376 820 l 1,13,14
 313 808 313 808 309 873 c 0,15,16
 306 915 306 915 317 971 c 0,17,18
 322 997 322 997 329 1022.5 c 128,-1,19
 336 1048 336 1048 345 1074 c 0,20,21
 353 1097 353 1097 356.5 1109.5 c 128,-1,22
 360 1122 360 1122 361 1126 c 0,23,24
 363 1133 363 1133 369 1139 c 128,-1,25
 375 1145 375 1145 382 1146 c 0,26,27
 421 1151 421 1151 481.5 1153.5 c 128,-1,28
 542 1156 542 1156 625 1157 c 0,29,30
 790 1158 790 1158 868 1127 c 1,31,32
 947 1093 947 1093 947 1006 c 0,33,34
 947 960 947 960 926 903 c 1,35,36
 899 825 899 825 875 772.5 c 128,-1,37
 851 720 851 720 830 689 c 1,38,39
 782 623 782 623 725 569 c 128,-1,40
 668 515 668 515 613 467 c 1,41,-1
 600 454 l 1,42,43
 586 443 586 443 567 426 c 128,-1,44
 548 409 548 409 524 387 c 2,45,-1
 462 330 l 1,46,-1
 462 331 l 1,47,48
 414 288 414 288 369 241 c 128,-1,49
 324 194 324 194 281 143 c 0,50,51
 197 44 197 44 150 -56 c 1,52,-1
 150 -55 l 1,53,54
 132 -96 132 -96 132 -129 c 0,55,56
 132 -148 132 -148 139 -164.5 c 128,-1,57
 146 -181 146 -181 158 -196 c 1,58,59
 256 -306 256 -306 388 -351 c 0,60,61
 457 -375 457 -375 529 -388 c 128,-1,62
 601 -401 601 -401 676 -403 c 0,63,64
 690 -404 690 -404 703.5 -404 c 128,-1,65
 717 -404 717 -404 731 -404 c 0,66,67
 851 -404 851 -404 980 -383 c 1,68,69
 1059 -369 1059 -369 1129.5 -355 c 128,-1,70
 1200 -341 1200 -341 1261 -325 c 0,71,72
 1274 -321 1274 -321 1290 -319 c 128,-1,73
 1306 -317 1306 -317 1316.5 -321 c 128,-1,74
 1327 -325 1327 -325 1328.5 -335 c 128,-1,75
 1330 -345 1330 -345 1313 -364 c 1,76,-1
 1313 -363 l 1,77,78
 1190 -513 1190 -513 984 -608 c 1,79,-1
 985 -608 l 1,80,81
 784 -703 784 -703 578 -716 c 0,82,83
 564 -717 564 -717 549.5 -717.5 c 128,-1,84
 535 -718 535 -718 521 -718 c 0,85,86
 353 -718 353 -718 210 -648 c 0,87,88
 128 -607 128 -607 75 -533.5 c 128,-1,89
 22 -460 22 -460 -1 -360 c 0,90,91
 -8 -332 -8 -332 -10.5 -304 c 128,-1,92
 -13 -276 -13 -276 -13 -247 c 0,93,94
 -13 -77 -13 -77 87 126 c 1,95,96
 220 391 220 391 355 517 c 1,97,-1
 512 640 l 2,98,99
 541 662 541 662 574.5 685 c 128,-1,100
 608 708 608 708 643 731 c 1,4,5
925 191 m 2,101,102
 932 185 932 185 933 176 c 128,-1,103
 934 167 934 167 928 159 c 0,104,105
 887 107 887 107 846.5 56.5 c 128,-1,106
 806 6 806 6 765 -44 c 0,107,108
 758 -52 758 -52 748 -53 c 128,-1,109
 738 -54 738 -54 730 -46 c 2,110,-1
 591 84 l 2,111,112
 584 91 584 91 583 99.5 c 128,-1,113
 582 108 582 108 588 116 c 0,114,115
 611 145 611 145 634 173.5 c 128,-1,116
 657 202 657 202 680 231 c 0,117,118
 714 273 714 273 750 319 c 0,119,120
 757 327 757 327 767.5 328 c 128,-1,121
 778 329 778 329 786 322 c 2,122,-1
 925 191 l 2,101,102
EndSplineSet
EndChar

StartChar: uniFE9F
Encoding: 65183 65183 89
Width: 1143
GlyphClass: 2
Flags: W
LayerCount: 2
Fore
SplineSet
726 405 m 1,0,1
 725 406 725 406 725 407 c 2,2,-1
 722 414 l 1,3,-1
 734 416 l 1,4,-1
 733 416 l 1,5,6
 726 415 726 415 726 405 c 1,0,1
454 361 m 1,7,-1
 497 370 l 1,8,-1
 487 345 l 1,9,-1
 481 329 l 1,10,-1
 454 361 l 1,7,-1
579 499 m 0,11,12
 550 473 550 473 531 439.5 c 128,-1,13
 512 406 512 406 497 370 c 1,14,-1
 722 414 l 1,15,16
 709 443 709 443 694 463.5 c 128,-1,17
 679 484 679 484 661 499 c 1,18,-1
 662 499 l 1,19,20
 638 517 638 517 619 517 c 256,21,22
 600 517 600 517 579 499 c 0,11,12
113 302 m 2,23,24
 115 307 115 307 122 311.5 c 128,-1,25
 129 316 129 316 135 316 c 1,26,-1
 139 317 l 1,27,-1
 135 317 l 1,28,-1
 391 356 l 1,29,30
 400 380 400 380 413 412 c 128,-1,31
 426 444 426 444 442 481 c 0,32,33
 461 526 461 526 483 567.5 c 128,-1,34
 505 609 505 609 531 647 c 1,35,36
 557 688 557 688 587.5 719 c 128,-1,37
 618 750 618 750 652 773 c 0,38,39
 692 800 692 800 738 800 c 0,40,41
 772 800 772 800 810 782 c 0,42,43
 841 767 841 767 865.5 743 c 128,-1,44
 890 719 890 719 909.5 688.5 c 128,-1,45
 929 658 929 658 943.5 622.5 c 128,-1,46
 958 587 958 587 970 548 c 1,47,48
 987 530 987 530 1010 530 c 0,49,50
 1029 530 1029 530 1051 541 c 0,51,52
 1059 545 1059 545 1066.5 543.5 c 128,-1,53
 1074 542 1074 542 1079 537 c 128,-1,54
 1084 532 1084 532 1085.5 524.5 c 128,-1,55
 1087 517 1087 517 1084 509 c 2,56,-1
 957 237 l 2,57,58
 955 234 955 234 950 229 c 128,-1,59
 945 224 945 224 943 223 c 0,60,61
 876 202 876 202 805.5 184 c 128,-1,62
 735 166 735 166 662 149 c 0,63,64
 595 134 595 134 528 118.5 c 128,-1,65
 461 103 461 103 382 83 c 1,66,67
 379 75 379 75 377 65 c 128,-1,68
 375 55 375 55 372 42 c 0,69,70
 363 -10 363 -10 323 -22 c 0,71,72
 318 -24 318 -24 315 -24 c 128,-1,73
 312 -24 312 -24 309 -24 c 0,74,75
 272 -24 272 -24 272 13 c 0,76,77
 272 15 272 15 272 18.5 c 128,-1,78
 272 22 272 22 274 27 c 1,79,-1
 274 24 l 1,80,-1
 281 57 l 1,81,82
 265 53 265 53 248 50 c 128,-1,83
 231 47 231 47 214 44 c 1,84,85
 208 40 208 40 204 40 c 0,86,87
 172 34 172 34 141 28.5 c 128,-1,88
 110 23 110 23 79 16 c 2,89,-1
 83 17 l 2,90,91
 66 12 66 12 55 11 c 1,92,93
 45 9 45 9 34.5 6 c 128,-1,94
 24 3 24 3 14 1 c 0,95,96
 -1 -2 -1 -2 -10.5 9.5 c 128,-1,97
 -20 21 -20 21 -13 36 c 2,98,-1
 113 302 l 2,23,24
711 -104 m 1,99,100
 717 -111 717 -111 718 -120 c 128,-1,101
 719 -129 719 -129 714 -136 c 0,102,103
 672 -189 672 -189 631.5 -239 c 128,-1,104
 591 -289 591 -289 550 -340 c 0,105,106
 544 -348 544 -348 534 -349 c 128,-1,107
 524 -350 524 -350 516 -342 c 2,108,-1
 376 -212 l 1,109,110
 370 -205 370 -205 369 -196 c 128,-1,111
 368 -187 368 -187 373 -180 c 0,112,113
 396 -151 396 -151 419 -122 c 128,-1,114
 442 -93 442 -93 465 -65 c 0,115,116
 483 -43 483 -43 501 -21.5 c 128,-1,117
 519 0 519 0 536 23 c 0,118,119
 542 32 542 32 553 33 c 128,-1,120
 564 34 564 34 572 26 c 2,121,-1
 711 -104 l 1,99,100
EndSplineSet
EndChar

StartChar: uniFEA0
Encoding: 65184 65184 90
Width: 1052
GlyphClass: 2
Flags: W
LayerCount: 2
Fore
SplineSet
775 517 m 1,0,1
 773 517 773 517 771 519 c 2,2,-1
 773 518 l 1,3,4
 716 538 716 538 661.5 551.5 c 128,-1,5
 607 565 607 565 551 577 c 0,6,7
 528 582 528 582 505 586 c 128,-1,8
 482 590 482 590 458 596 c 1,9,10
 429 601 429 601 429 632 c 0,11,12
 429 648 429 648 437 668 c 1,13,-1
 437 667 l 1,14,15
 454 706 454 706 472.5 744.5 c 128,-1,16
 491 783 491 783 511 822 c 2,17,-1
 547 891 l 2,18,19
 550 898 550 898 557.5 901 c 128,-1,20
 565 904 565 904 573 903 c 1,21,22
 579 901 579 901 588 899.5 c 128,-1,23
 597 898 597 898 605 896 c 1,24,-1
 604 896 l 1,25,26
 636 888 636 888 678.5 878 c 128,-1,27
 721 868 721 868 775 855 c 0,28,29
 842 840 842 840 892.5 820.5 c 128,-1,30
 943 801 943 801 972 778 c 1,31,32
 998 756 998 756 999 726 c 1,33,-1
 999 715 l 2,34,35
 999 673 999 673 983 643 c 0,36,37
 978 632 978 632 969 614 c 128,-1,38
 960 596 960 596 954 586 c 1,39,-1
 955 587 l 1,40,41
 936 546 936 546 912 507 c 128,-1,42
 888 468 888 468 862 427 c 1,43,-1
 863 428 l 1,44,45
 859 421 859 421 854 414.5 c 128,-1,46
 849 408 849 408 845 401 c 0,47,48
 696 173 696 173 476 112 c 0,49,50
 370 83 370 83 266 57.5 c 128,-1,51
 162 32 162 32 59 11 c 1,52,-1
 13 0 l 2,53,54
 -3 -3 -3 -3 -12 8.5 c 128,-1,55
 -21 20 -21 20 -14 35 c 2,56,-1
 112 302 l 2,57,58
 114 307 114 307 121 311.5 c 128,-1,59
 128 316 128 316 134 316 c 1,60,-1
 138 318 l 1,61,-1
 134 318 l 1,62,63
 231 332 231 332 310 347 c 128,-1,64
 389 362 389 362 449 377 c 1,65,66
 509 394 509 394 592.5 429.5 c 128,-1,67
 676 465 676 465 775 517 c 1,0,1
774 -61 m 2,68,69
 780 -68 780 -68 781 -76.5 c 128,-1,70
 782 -85 782 -85 777 -93 c 1,71,72
 736 -145 736 -145 695 -195.5 c 128,-1,73
 654 -246 654 -246 613 -297 c 0,74,75
 607 -305 607 -305 597 -305.5 c 128,-1,76
 587 -306 587 -306 579 -299 c 2,77,-1
 439 -168 l 1,78,79
 433 -161 433 -161 432 -152.5 c 128,-1,80
 431 -144 431 -144 436 -136 c 1,81,82
 459 -107 459 -107 482 -78.5 c 128,-1,83
 505 -50 505 -50 528 -21 c 0,84,85
 546 1 546 1 564 22.5 c 128,-1,86
 582 44 582 44 599 67 c 0,87,88
 606 75 606 75 616.5 76 c 128,-1,89
 627 77 627 77 635 70 c 2,90,-1
 774 -61 l 2,68,69
EndSplineSet
EndChar

StartChar: uniFEA2
Encoding: 65186 65186 91
Width: 387
GlyphClass: 2
Flags: W
LayerCount: 2
Fore
SplineSet
1259 -326 m 2,0,1
 1260 -325 1260 -325 1261 -325 c 2,2,-1
 1262 -325 l 1,3,-1
 1259 -326 l 2,0,1
643 731 m 1,4,5
 674 753 674 753 700.5 773 c 128,-1,6
 727 793 727 793 750 813 c 1,7,8
 662 830 662 830 556 830 c 1,9,10
 502 831 502 831 456.5 828 c 128,-1,11
 411 825 411 825 375 819 c 1,12,-1
 376 820 l 1,13,14
 313 808 313 808 309 873 c 0,15,16
 306 915 306 915 317 971 c 0,17,18
 322 997 322 997 329 1022.5 c 128,-1,19
 336 1048 336 1048 345 1074 c 0,20,21
 353 1097 353 1097 356.5 1109.5 c 128,-1,22
 360 1122 360 1122 361 1126 c 0,23,24
 363 1133 363 1133 369 1139 c 128,-1,25
 375 1145 375 1145 382 1146 c 0,26,27
 421 1151 421 1151 481.5 1153.5 c 128,-1,28
 542 1156 542 1156 625 1157 c 0,29,30
 790 1158 790 1158 868 1127 c 1,31,32
 947 1093 947 1093 947 1006 c 0,33,34
 947 960 947 960 926 903 c 1,35,36
 899 825 899 825 875 772.5 c 128,-1,37
 851 720 851 720 830 689 c 1,38,39
 782 623 782 623 725 569 c 128,-1,40
 668 515 668 515 613 467 c 1,41,-1
 600 454 l 1,42,43
 586 443 586 443 567 426 c 128,-1,44
 548 409 548 409 524 387 c 2,45,-1
 462 330 l 1,46,-1
 462 331 l 1,47,48
 414 288 414 288 369 241 c 128,-1,49
 324 194 324 194 281 143 c 0,50,51
 197 44 197 44 150 -56 c 1,52,-1
 150 -55 l 1,53,54
 132 -96 132 -96 132 -129 c 0,55,56
 132 -148 132 -148 139 -164.5 c 128,-1,57
 146 -181 146 -181 158 -196 c 1,58,59
 256 -306 256 -306 388 -351 c 0,60,61
 457 -375 457 -375 529 -388 c 128,-1,62
 601 -401 601 -401 676 -403 c 0,63,64
 690 -404 690 -404 703.5 -404 c 128,-1,65
 717 -404 717 -404 731 -404 c 0,66,67
 851 -404 851 -404 980 -383 c 1,68,69
 1059 -369 1059 -369 1129.5 -355 c 128,-1,70
 1200 -341 1200 -341 1261 -325 c 0,71,72
 1274 -321 1274 -321 1290 -319 c 128,-1,73
 1306 -317 1306 -317 1316.5 -321 c 128,-1,74
 1327 -325 1327 -325 1328.5 -335 c 128,-1,75
 1330 -345 1330 -345 1313 -364 c 1,76,-1
 1313 -363 l 1,77,78
 1190 -513 1190 -513 984 -608 c 1,79,-1
 985 -608 l 1,80,81
 784 -703 784 -703 578 -716 c 0,82,83
 564 -717 564 -717 549.5 -717.5 c 128,-1,84
 535 -718 535 -718 521 -718 c 0,85,86
 353 -718 353 -718 210 -648 c 0,87,88
 128 -607 128 -607 75 -533.5 c 128,-1,89
 22 -460 22 -460 -1 -360 c 0,90,91
 -8 -332 -8 -332 -10.5 -304 c 128,-1,92
 -13 -276 -13 -276 -13 -247 c 0,93,94
 -13 -77 -13 -77 87 126 c 1,95,96
 220 391 220 391 355 517 c 1,97,-1
 512 640 l 2,98,99
 541 662 541 662 574.5 685 c 128,-1,100
 608 708 608 708 643 731 c 1,4,5
EndSplineSet
EndChar

StartChar: uniFEA3
Encoding: 65187 65187 92
Width: 1143
GlyphClass: 2
Flags: W
LayerCount: 2
Fore
SplineSet
726 405 m 1,0,1
 725 406 725 406 725 407 c 2,2,-1
 722 414 l 1,3,-1
 734 416 l 1,4,-1
 733 416 l 1,5,6
 726 415 726 415 726 405 c 1,0,1
454 361 m 1,7,-1
 497 370 l 1,8,-1
 487 345 l 1,9,-1
 481 329 l 1,10,-1
 454 361 l 1,7,-1
579 499 m 0,11,12
 550 473 550 473 531 439.5 c 128,-1,13
 512 406 512 406 497 370 c 1,14,-1
 722 414 l 1,15,16
 709 443 709 443 694 463.5 c 128,-1,17
 679 484 679 484 661 499 c 1,18,-1
 662 499 l 1,19,20
 638 517 638 517 619 517 c 256,21,22
 600 517 600 517 579 499 c 0,11,12
113 302 m 2,23,24
 115 307 115 307 122 311.5 c 128,-1,25
 129 316 129 316 135 316 c 1,26,-1
 139 317 l 1,27,-1
 135 317 l 1,28,-1
 391 356 l 1,29,30
 400 380 400 380 413 412 c 128,-1,31
 426 444 426 444 442 481 c 0,32,33
 461 526 461 526 483 567.5 c 128,-1,34
 505 609 505 609 531 647 c 1,35,36
 557 688 557 688 587.5 719 c 128,-1,37
 618 750 618 750 652 773 c 0,38,39
 692 800 692 800 738 800 c 0,40,41
 772 800 772 800 810 782 c 0,42,43
 841 767 841 767 865.5 743 c 128,-1,44
 890 719 890 719 909.5 688.5 c 128,-1,45
 929 658 929 658 943.5 622.5 c 128,-1,46
 958 587 958 587 970 548 c 1,47,48
 987 530 987 530 1010 530 c 0,49,50
 1029 530 1029 530 1051 541 c 0,51,52
 1059 545 1059 545 1066.5 543.5 c 128,-1,53
 1074 542 1074 542 1079 537 c 128,-1,54
 1084 532 1084 532 1085.5 524.5 c 128,-1,55
 1087 517 1087 517 1084 509 c 2,56,-1
 957 237 l 2,57,58
 955 234 955 234 950 229 c 128,-1,59
 945 224 945 224 943 223 c 0,60,61
 876 202 876 202 805.5 184 c 128,-1,62
 735 166 735 166 662 149 c 0,63,64
 595 134 595 134 528 118.5 c 128,-1,65
 461 103 461 103 382 83 c 1,66,67
 379 75 379 75 377 65 c 128,-1,68
 375 55 375 55 372 42 c 0,69,70
 363 -10 363 -10 323 -22 c 0,71,72
 318 -24 318 -24 315 -24 c 128,-1,73
 312 -24 312 -24 309 -24 c 0,74,75
 272 -24 272 -24 272 13 c 0,76,77
 272 15 272 15 272 18.5 c 128,-1,78
 272 22 272 22 274 27 c 1,79,-1
 274 24 l 1,80,-1
 281 57 l 1,81,82
 265 53 265 53 248 50 c 128,-1,83
 231 47 231 47 214 44 c 1,84,85
 208 40 208 40 204 40 c 0,86,87
 172 34 172 34 141 28.5 c 128,-1,88
 110 23 110 23 79 16 c 2,89,-1
 83 17 l 2,90,91
 66 12 66 12 55 11 c 1,92,93
 45 9 45 9 34.5 6 c 128,-1,94
 24 3 24 3 14 1 c 0,95,96
 -1 -2 -1 -2 -10.5 9.5 c 128,-1,97
 -20 21 -20 21 -13 36 c 2,98,-1
 113 302 l 2,23,24
EndSplineSet
EndChar

StartChar: uniFEA4
Encoding: 65188 65188 93
Width: 1052
GlyphClass: 2
Flags: W
LayerCount: 2
Fore
SplineSet
775 517 m 1,0,1
 773 517 773 517 771 519 c 2,2,-1
 773 518 l 1,3,4
 716 538 716 538 661.5 551.5 c 128,-1,5
 607 565 607 565 551 577 c 0,6,7
 528 582 528 582 505 586 c 128,-1,8
 482 590 482 590 458 596 c 1,9,10
 429 601 429 601 429 632 c 0,11,12
 429 648 429 648 437 668 c 1,13,-1
 437 667 l 1,14,15
 454 706 454 706 472.5 744.5 c 128,-1,16
 491 783 491 783 511 822 c 2,17,-1
 547 891 l 2,18,19
 550 898 550 898 557.5 901 c 128,-1,20
 565 904 565 904 573 903 c 1,21,22
 579 901 579 901 588 899.5 c 128,-1,23
 597 898 597 898 605 896 c 1,24,-1
 604 896 l 1,25,26
 636 888 636 888 678.5 878 c 128,-1,27
 721 868 721 868 775 855 c 0,28,29
 842 840 842 840 892.5 820.5 c 128,-1,30
 943 801 943 801 972 778 c 1,31,32
 998 756 998 756 999 726 c 1,33,-1
 999 715 l 2,34,35
 999 673 999 673 983 643 c 0,36,37
 978 632 978 632 969 614 c 128,-1,38
 960 596 960 596 954 586 c 1,39,-1
 955 587 l 1,40,41
 936 546 936 546 912 507 c 128,-1,42
 888 468 888 468 862 427 c 1,43,-1
 863 428 l 1,44,45
 859 421 859 421 854 414.5 c 128,-1,46
 849 408 849 408 845 401 c 0,47,48
 696 173 696 173 476 112 c 0,49,50
 370 83 370 83 266 57.5 c 128,-1,51
 162 32 162 32 59 11 c 1,52,-1
 13 0 l 2,53,54
 -3 -3 -3 -3 -12 8.5 c 128,-1,55
 -21 20 -21 20 -14 35 c 2,56,-1
 112 302 l 2,57,58
 114 307 114 307 121 311.5 c 128,-1,59
 128 316 128 316 134 316 c 1,60,-1
 138 318 l 1,61,-1
 134 318 l 1,62,63
 231 332 231 332 310 347 c 128,-1,64
 389 362 389 362 449 377 c 1,65,66
 509 394 509 394 592.5 429.5 c 128,-1,67
 676 465 676 465 775 517 c 1,0,1
EndSplineSet
EndChar

StartChar: uniFEA6
Encoding: 65190 65190 94
Width: 387
GlyphClass: 2
Flags: W
LayerCount: 2
Fore
SplineSet
1259 -326 m 2,0,1
 1260 -325 1260 -325 1261 -325 c 2,2,-1
 1262 -325 l 1,3,-1
 1259 -326 l 2,0,1
643 731 m 1,4,5
 674 753 674 753 700.5 773 c 128,-1,6
 727 793 727 793 750 813 c 1,7,8
 662 830 662 830 556 830 c 1,9,10
 502 831 502 831 456.5 828 c 128,-1,11
 411 825 411 825 375 819 c 1,12,-1
 376 820 l 1,13,14
 313 808 313 808 309 873 c 0,15,16
 306 915 306 915 317 971 c 0,17,18
 322 997 322 997 329 1022.5 c 128,-1,19
 336 1048 336 1048 345 1074 c 0,20,21
 353 1097 353 1097 356.5 1109.5 c 128,-1,22
 360 1122 360 1122 361 1126 c 0,23,24
 363 1133 363 1133 369 1139 c 128,-1,25
 375 1145 375 1145 382 1146 c 0,26,27
 421 1151 421 1151 481.5 1153.5 c 128,-1,28
 542 1156 542 1156 625 1157 c 0,29,30
 790 1158 790 1158 868 1127 c 1,31,32
 947 1093 947 1093 947 1006 c 0,33,34
 947 960 947 960 926 903 c 1,35,36
 899 825 899 825 875 772.5 c 128,-1,37
 851 720 851 720 830 689 c 1,38,39
 782 623 782 623 725 569 c 128,-1,40
 668 515 668 515 613 467 c 1,41,-1
 600 454 l 1,42,43
 586 443 586 443 567 426 c 128,-1,44
 548 409 548 409 524 387 c 2,45,-1
 462 330 l 1,46,-1
 462 331 l 1,47,48
 414 288 414 288 369 241 c 128,-1,49
 324 194 324 194 281 143 c 0,50,51
 197 44 197 44 150 -56 c 1,52,-1
 150 -55 l 1,53,54
 132 -96 132 -96 132 -129 c 0,55,56
 132 -148 132 -148 139 -164.5 c 128,-1,57
 146 -181 146 -181 158 -196 c 1,58,59
 256 -306 256 -306 388 -351 c 0,60,61
 457 -375 457 -375 529 -388 c 128,-1,62
 601 -401 601 -401 676 -403 c 0,63,64
 690 -404 690 -404 703.5 -404 c 128,-1,65
 717 -404 717 -404 731 -404 c 0,66,67
 851 -404 851 -404 980 -383 c 1,68,69
 1059 -369 1059 -369 1129.5 -355 c 128,-1,70
 1200 -341 1200 -341 1261 -325 c 0,71,72
 1274 -321 1274 -321 1290 -319 c 128,-1,73
 1306 -317 1306 -317 1316.5 -321 c 128,-1,74
 1327 -325 1327 -325 1328.5 -335 c 128,-1,75
 1330 -345 1330 -345 1313 -364 c 1,76,-1
 1313 -363 l 1,77,78
 1190 -513 1190 -513 984 -608 c 1,79,-1
 985 -608 l 1,80,81
 784 -703 784 -703 578 -716 c 0,82,83
 564 -717 564 -717 549.5 -717.5 c 128,-1,84
 535 -718 535 -718 521 -718 c 0,85,86
 353 -718 353 -718 210 -648 c 0,87,88
 128 -607 128 -607 75 -533.5 c 128,-1,89
 22 -460 22 -460 -1 -360 c 0,90,91
 -8 -332 -8 -332 -10.5 -304 c 128,-1,92
 -13 -276 -13 -276 -13 -247 c 0,93,94
 -13 -77 -13 -77 87 126 c 1,95,96
 220 391 220 391 355 517 c 1,97,-1
 512 640 l 2,98,99
 541 662 541 662 574.5 685 c 128,-1,100
 608 708 608 708 643 731 c 1,4,5
769 1464 m 2,101,102
 784 1449 784 1449 772 1432 c 0,103,104
 731 1379 731 1379 690.5 1329 c 128,-1,105
 650 1279 650 1279 608 1228 c 0,106,107
 602 1220 602 1220 592 1219.5 c 128,-1,108
 582 1219 582 1219 574 1226 c 2,109,-1
 435 1357 l 2,110,111
 428 1363 428 1363 427 1372 c 128,-1,112
 426 1381 426 1381 432 1389 c 0,113,114
 455 1418 455 1418 477.5 1446.5 c 128,-1,115
 500 1475 500 1475 523 1504 c 1,116,117
 542 1526 542 1526 559.5 1547.5 c 128,-1,118
 577 1569 577 1569 594 1592 c 0,119,120
 601 1600 601 1600 611.5 1601 c 128,-1,121
 622 1602 622 1602 630 1594 c 2,122,-1
 769 1464 l 2,101,102
EndSplineSet
EndChar

StartChar: uniFEA7
Encoding: 65191 65191 95
Width: 1143
GlyphClass: 2
Flags: W
LayerCount: 2
Fore
SplineSet
726 405 m 1,0,1
 725 406 725 406 725 407 c 2,2,-1
 722 414 l 1,3,-1
 734 416 l 1,4,-1
 733 416 l 1,5,6
 726 415 726 415 726 405 c 1,0,1
454 361 m 1,7,-1
 497 370 l 1,8,-1
 487 345 l 1,9,-1
 481 329 l 1,10,-1
 454 361 l 1,7,-1
579 499 m 0,11,12
 550 473 550 473 531 439.5 c 128,-1,13
 512 406 512 406 497 370 c 1,14,-1
 722 414 l 1,15,16
 709 443 709 443 694 463.5 c 128,-1,17
 679 484 679 484 661 499 c 1,18,-1
 662 499 l 1,19,20
 638 517 638 517 619 517 c 256,21,22
 600 517 600 517 579 499 c 0,11,12
113 302 m 2,23,24
 115 307 115 307 122 311.5 c 128,-1,25
 129 316 129 316 135 316 c 1,26,-1
 139 317 l 1,27,-1
 135 317 l 1,28,-1
 391 356 l 1,29,30
 400 380 400 380 413 412 c 128,-1,31
 426 444 426 444 442 481 c 0,32,33
 461 526 461 526 483 567.5 c 128,-1,34
 505 609 505 609 531 647 c 1,35,36
 557 688 557 688 587.5 719 c 128,-1,37
 618 750 618 750 652 773 c 0,38,39
 692 800 692 800 738 800 c 0,40,41
 772 800 772 800 810 782 c 0,42,43
 841 767 841 767 865.5 743 c 128,-1,44
 890 719 890 719 909.5 688.5 c 128,-1,45
 929 658 929 658 943.5 622.5 c 128,-1,46
 958 587 958 587 970 548 c 1,47,48
 987 530 987 530 1010 530 c 0,49,50
 1029 530 1029 530 1051 541 c 0,51,52
 1059 545 1059 545 1066.5 543.5 c 128,-1,53
 1074 542 1074 542 1079 537 c 128,-1,54
 1084 532 1084 532 1085.5 524.5 c 128,-1,55
 1087 517 1087 517 1084 509 c 2,56,-1
 957 237 l 2,57,58
 955 234 955 234 950 229 c 128,-1,59
 945 224 945 224 943 223 c 0,60,61
 876 202 876 202 805.5 184 c 128,-1,62
 735 166 735 166 662 149 c 0,63,64
 595 134 595 134 528 118.5 c 128,-1,65
 461 103 461 103 382 83 c 1,66,67
 379 75 379 75 377 65 c 128,-1,68
 375 55 375 55 372 42 c 0,69,70
 363 -10 363 -10 323 -22 c 0,71,72
 318 -24 318 -24 315 -24 c 128,-1,73
 312 -24 312 -24 309 -24 c 0,74,75
 272 -24 272 -24 272 13 c 0,76,77
 272 15 272 15 272 18.5 c 128,-1,78
 272 22 272 22 274 27 c 1,79,-1
 274 24 l 1,80,-1
 281 57 l 1,81,82
 265 53 265 53 248 50 c 128,-1,83
 231 47 231 47 214 44 c 1,84,85
 208 40 208 40 204 40 c 0,86,87
 172 34 172 34 141 28.5 c 128,-1,88
 110 23 110 23 79 16 c 2,89,-1
 83 17 l 2,90,91
 66 12 66 12 55 11 c 1,92,93
 45 9 45 9 34.5 6 c 128,-1,94
 24 3 24 3 14 1 c 0,95,96
 -1 -2 -1 -2 -10.5 9.5 c 128,-1,97
 -20 21 -20 21 -13 36 c 2,98,-1
 113 302 l 2,23,24
892 1145 m 2,99,100
 899 1138 899 1138 900 1129.5 c 128,-1,101
 901 1121 901 1121 895 1113 c 0,102,103
 854 1061 854 1061 813.5 1010.5 c 128,-1,104
 773 960 773 960 732 909 c 0,105,106
 725 901 725 901 715 900.5 c 128,-1,107
 705 900 705 900 697 907 c 2,108,-1
 558 1038 l 2,109,110
 551 1045 551 1045 550 1053.5 c 128,-1,111
 549 1062 549 1062 555 1070 c 0,112,113
 578 1099 578 1099 601 1127.5 c 128,-1,114
 624 1156 624 1156 647 1185 c 0,115,116
 681 1227 681 1227 717 1273 c 0,117,118
 724 1281 724 1281 734.5 1282 c 128,-1,119
 745 1283 745 1283 753 1276 c 2,120,-1
 892 1145 l 2,99,100
EndSplineSet
EndChar

StartChar: uniFEA8
Encoding: 65192 65192 96
Width: 1052
GlyphClass: 2
Flags: W
LayerCount: 2
Fore
SplineSet
775 517 m 1,0,1
 773 517 773 517 771 519 c 2,2,-1
 773 518 l 1,3,4
 716 538 716 538 661.5 551.5 c 128,-1,5
 607 565 607 565 551 577 c 0,6,7
 528 582 528 582 505 586 c 128,-1,8
 482 590 482 590 458 596 c 1,9,10
 429 601 429 601 429 632 c 0,11,12
 429 648 429 648 437 668 c 1,13,-1
 437 667 l 1,14,15
 454 706 454 706 472.5 744.5 c 128,-1,16
 491 783 491 783 511 822 c 2,17,-1
 547 891 l 2,18,19
 550 898 550 898 557.5 901 c 128,-1,20
 565 904 565 904 573 903 c 1,21,22
 579 901 579 901 588 899.5 c 128,-1,23
 597 898 597 898 605 896 c 1,24,-1
 604 896 l 1,25,26
 636 888 636 888 678.5 878 c 128,-1,27
 721 868 721 868 775 855 c 0,28,29
 842 840 842 840 892.5 820.5 c 128,-1,30
 943 801 943 801 972 778 c 1,31,32
 998 756 998 756 999 726 c 1,33,-1
 999 715 l 2,34,35
 999 673 999 673 983 643 c 0,36,37
 978 632 978 632 969 614 c 128,-1,38
 960 596 960 596 954 586 c 1,39,-1
 955 587 l 1,40,41
 936 546 936 546 912 507 c 128,-1,42
 888 468 888 468 862 427 c 1,43,-1
 863 428 l 1,44,45
 859 421 859 421 854 414.5 c 128,-1,46
 849 408 849 408 845 401 c 0,47,48
 696 173 696 173 476 112 c 0,49,50
 370 83 370 83 266 57.5 c 128,-1,51
 162 32 162 32 59 11 c 1,52,-1
 13 0 l 2,53,54
 -3 -3 -3 -3 -12 8.5 c 128,-1,55
 -21 20 -21 20 -14 35 c 2,56,-1
 112 302 l 2,57,58
 114 307 114 307 121 311.5 c 128,-1,59
 128 316 128 316 134 316 c 1,60,-1
 138 318 l 1,61,-1
 134 318 l 1,62,63
 231 332 231 332 310 347 c 128,-1,64
 389 362 389 362 449 377 c 1,65,66
 509 394 509 394 592.5 429.5 c 128,-1,67
 676 465 676 465 775 517 c 1,0,1
774 1317 m 2,68,69
 780 1310 780 1310 781 1301.5 c 128,-1,70
 782 1293 782 1293 777 1285 c 1,71,72
 736 1233 736 1233 695 1182.5 c 128,-1,73
 654 1132 654 1132 613 1081 c 0,74,75
 607 1073 607 1073 597 1072.5 c 128,-1,76
 587 1072 587 1072 579 1079 c 2,77,-1
 439 1210 l 1,78,79
 433 1217 433 1217 432 1225.5 c 128,-1,80
 431 1234 431 1234 436 1242 c 1,81,82
 459 1271 459 1271 482 1299.5 c 128,-1,83
 505 1328 505 1328 528 1357 c 0,84,85
 546 1379 546 1379 564 1400.5 c 128,-1,86
 582 1422 582 1422 599 1445 c 0,87,88
 606 1453 606 1453 616.5 1454 c 128,-1,89
 627 1455 627 1455 635 1448 c 2,90,-1
 774 1317 l 2,68,69
EndSplineSet
EndChar

StartChar: uniFEAA
Encoding: 65194 65194 97
Width: 845
GlyphClass: 2
Flags: W
LayerCount: 2
Fore
SplineSet
796 289 m 0,0,1
 791 272 791 272 782.5 261 c 128,-1,2
 774 250 774 250 760 244 c 1,3,4
 731 222 731 222 706.5 189.5 c 128,-1,5
 682 157 682 157 660 122 c 0,6,7
 625 68 625 68 584 39.5 c 128,-1,8
 543 11 543 11 495 3 c 0,9,10
 485 2 485 2 474.5 1.5 c 128,-1,11
 464 1 464 1 453 1 c 0,12,13
 385 1 385 1 307 25 c 0,14,15
 292 30 292 30 253 45.5 c 128,-1,16
 214 61 214 61 148 88 c 1,17,18
 18 144 18 144 -8 167 c 1,19,20
 -20 179 -20 179 -20 195 c 0,21,22
 -20 210 -20 210 -10 219 c 128,-1,23
 0 228 0 228 17 233 c 0,24,25
 86 250 86 250 164.5 261.5 c 128,-1,26
 243 273 243 273 316 278 c 0,27,28
 388 283 388 283 466 292.5 c 128,-1,29
 544 302 544 302 615 313 c 1,30,31
 662 322 662 322 700 355 c 1,32,33
 718 373 718 373 743 373 c 0,34,35
 753 373 753 373 758 371 c 1,36,-1
 757 371 l 1,37,38
 800 359 800 359 800 315 c 0,39,40
 800 302 800 302 796 289 c 0,0,1
EndSplineSet
EndChar

StartChar: uniFEAC
Encoding: 65196 65196 98
Width: 845
GlyphClass: 2
Flags: W
LayerCount: 2
Fore
SplineSet
797 289 m 0,0,1
 788 255 788 255 762 244 c 1,2,3
 733 222 733 222 708 189.5 c 128,-1,4
 683 157 683 157 661 122 c 0,5,6
 627 68 627 68 586 39.5 c 128,-1,7
 545 11 545 11 496 3 c 0,8,9
 486 2 486 2 475.5 1.5 c 128,-1,10
 465 1 465 1 454 1 c 0,11,12
 387 1 387 1 308 25 c 0,13,14
 293 30 293 30 254 45.5 c 128,-1,15
 215 61 215 61 149 88 c 1,16,17
 19 144 19 144 -7 167 c 1,18,19
 -19 180 -19 180 -19 195 c 256,20,21
 -19 210 -19 210 -9 219 c 128,-1,22
 1 228 1 228 18 233 c 0,23,24
 87 250 87 250 165.5 261.5 c 128,-1,25
 244 273 244 273 317 278 c 0,26,27
 389 283 389 283 467 292.5 c 128,-1,28
 545 302 545 302 617 313 c 1,29,30
 665 322 665 322 701 355 c 1,31,32
 719 373 719 373 744 373 c 0,33,34
 749 373 749 373 752 373 c 128,-1,35
 755 373 755 373 760 371 c 1,36,-1
 759 371 l 1,37,38
 801 359 801 359 801 315 c 0,39,40
 801 302 801 302 797 289 c 0,0,1
929 893 m 1,41,42
 935 886 935 886 936 877.5 c 128,-1,43
 937 869 937 869 932 861 c 0,44,45
 891 808 891 808 850 758 c 128,-1,46
 809 708 809 708 768 657 c 0,47,48
 762 649 762 649 752 648 c 128,-1,49
 742 647 742 647 734 655 c 2,50,-1
 594 786 l 2,51,52
 588 792 588 792 587 801 c 128,-1,53
 586 810 586 810 592 817 c 0,54,55
 614 846 614 846 637 875 c 128,-1,56
 660 904 660 904 683 932 c 0,57,58
 701 954 701 954 719 975.5 c 128,-1,59
 737 997 737 997 754 1020 c 0,60,61
 761 1029 761 1029 771.5 1030 c 128,-1,62
 782 1031 782 1031 790 1023 c 2,63,-1
 929 893 l 1,41,42
EndSplineSet
EndChar

StartChar: uniFEAE
Encoding: 65198 65198 99
Width: 769
GlyphClass: 2
Flags: W
LayerCount: 2
Fore
SplineSet
739 388 m 0,0,1
 739 354 739 354 717 335 c 1,2,3
 698 311 698 311 683 275 c 128,-1,4
 668 239 668 239 654 190 c 1,5,6
 616 70 616 70 527 30 c 1,7,8
 493 16 493 16 448.5 8 c 128,-1,9
 404 0 404 0 349 0 c 2,10,-1
 341 0 l 1,11,12
 324 1 324 1 281 4.5 c 128,-1,13
 238 8 238 8 170 16 c 0,14,15
 101 25 101 25 59 33.5 c 128,-1,16
 17 42 17 42 0 50 c 1,17,-1
 1 50 l 1,18,19
 -10 55 -10 55 -15.5 64 c 128,-1,20
 -21 73 -21 73 -21 82 c 0,21,22
 -21 102 -21 102 5 119 c 1,23,24
 70 157 70 157 138.5 188.5 c 128,-1,25
 207 220 207 220 281 246 c 0,26,27
 353 272 353 272 421.5 300.5 c 128,-1,28
 490 329 490 329 558 361 c 0,29,30
 603 383 603 383 628 424 c 1,31,-1
 627 423 l 1,32,33
 646 456 646 456 680 456 c 0,34,35
 739 456 739 456 739 388 c 0,0,1
EndSplineSet
EndChar

StartChar: uniFEB0
Encoding: 65200 65200 100
Width: 769
GlyphClass: 2
Flags: W
LayerCount: 2
Fore
SplineSet
739 388 m 0,0,1
 739 353 739 353 718 335 c 1,2,3
 699 311 699 311 684 275 c 128,-1,4
 669 239 669 239 654 190 c 0,5,6
 618 70 618 70 528 30 c 1,7,8
 493 16 493 16 448.5 8 c 128,-1,9
 404 0 404 0 350 0 c 2,10,-1
 342 0 l 1,11,12
 325 1 325 1 282 4.5 c 128,-1,13
 239 8 239 8 171 16 c 0,14,15
 101 25 101 25 59 33.5 c 128,-1,16
 17 42 17 42 1 50 c 1,17,-1
 2 50 l 1,18,19
 -9 55 -9 55 -14.5 64 c 128,-1,20
 -20 73 -20 73 -20 82 c 0,21,22
 -20 102 -20 102 6 119 c 1,23,24
 71 157 71 157 139.5 188.5 c 128,-1,25
 208 220 208 220 281 246 c 0,26,27
 353 272 353 272 422 300.5 c 128,-1,28
 491 329 491 329 559 361 c 0,29,30
 604 383 604 383 629 424 c 1,31,-1
 628 423 l 1,32,33
 647 456 647 456 680 456 c 0,34,35
 739 456 739 456 739 388 c 0,0,1
822 960 m 1,36,37
 828 953 828 953 829 944 c 128,-1,38
 830 935 830 935 824 928 c 0,39,40
 783 875 783 875 742.5 824.5 c 128,-1,41
 702 774 702 774 661 724 c 0,42,43
 654 716 654 716 644 715 c 128,-1,44
 634 714 634 714 626 722 c 2,45,-1
 487 852 l 2,46,47
 480 859 480 859 479.5 868 c 128,-1,48
 479 877 479 877 484 884 c 0,49,50
 507 913 507 913 530 941.5 c 128,-1,51
 553 970 553 970 576 999 c 0,52,53
 594 1021 594 1021 611.5 1042.5 c 128,-1,54
 629 1064 629 1064 647 1087 c 0,55,56
 653 1096 653 1096 663.5 1097 c 128,-1,57
 674 1098 674 1098 682 1090 c 2,58,-1
 822 960 l 1,36,37
EndSplineSet
EndChar

